<svg xmlns="http://www.w3.org/2000/svg" viewBox="0 0 900 380" font-family="'Caveat', 'Kalam', 'Comic Sans MS', cursive"><path d="M30,20 L870,20 L870,160 L30,160 Z" fill="#f8fafc" /><path d="M30.527794422000106,19.09091524227066 C310.62457606918684,16.598341003882283 592.2659383138331,15.845181595757891 870.9411849124303,19.675458671786988 M30.109366188989174,20.29251958200349 C360.68717564706844,19.38051297101904 691.6583184029354,19.381255243824363 869.5833107347406,20.253050099135052 M868.8850687640518,19.238974945738335 C871.9278842759337,53.558489885821466 868.9521674172425,91.35428841169636 871.1007630857423,160.99415627095865 M869.6793793960761,20.39747404940789 C868.8650056403452,72.61735709271028 868.8409254597588,124.05114917833843 869.0031473406876,160.06825417701427 M870.2568149765011,160.63385824786485 C649.2627469527578,163.31029107552183 427.4721272411865,163.36145130846535 29.90981408239591,160.83314947483822 M870.2896641678807,159.9919192307563 C641.6153774731482,160.28931281241287 413.9580107906782,159.39933468112278 29.703423738034047,160.4965332467902 M29.795266667116167,157.67978296755226 C28.660624083115735,125.93016558062335 28.01928449736501,94.70421451382174 31.839927710433166,22.516299556372385 M29.250759796289543,160.2148867698696 C32.08810957249433,128.8145828597109 31.284591836915247,95.1011604961378 30.410008162785296,19.122062404079383" stroke="#1e293b" stroke-width="1.4" fill="none" stroke-linecap="round" stroke-linejoin="round"/><text x="90" y="42" font-size="16" fill="#1e293b" text-anchor="middle" dominant-baseline="middle">Default</text><path d="M30,200 L870,200 L870,360 L30,360 Z" fill="#f8fafc" /><path d="M30.069009833839573,199.1128257690154 C202.5863819670321,199.98363628915206 376.73434819396874,201.16265193676446 869.7297918019973,200.31110642530186 M30.31681896887824,199.62868220181684 C302.34048147206533,196.358237631847 574.135475131572,196.1026420415472 870.2060893881173,200.19949403378178 M870.978690455135,199.99583874395964 C870.1953237921697,252.4403588675587 865.6594787195074,307.84903740904304 870.4067005214679,359.40274857094994 M869.0677486825609,200.43084339265687 C871.5262853639339,249.89702334414284 869.7147854835712,300.0591390610284 869.6803871558475,359.43456683384505 M869.0278053172774,361.0359797485949 C547.5836509856355,359.98834254839977 222.8384393172961,360.4252916896961 29.10563243945118,359.2481936197583 M869.6945913728025,360.1303941753132 C550.7078019497902,363.4436790867137 231.68476964906,363.83119223332307 30.031991018527414,359.4829021779225 M28.216462270343257,361.95572217981 C26.280448393836128,309.3718550803411 28.33207064892864,251.3689807889913 29.56425444318001,199.6008062381762 M30.007388220219305,360.13105867203586 C29.600112082634706,312.9633966851236 27.387649511530615,267.5654967290119 30.448489041748406,200.35774843831604" stroke="#1e293b" stroke-width="1.4" fill="none" stroke-linecap="round" stroke-linejoin="round"/><text x="130" y="222" font-size="16" fill="#1e293b" text-anchor="middle" dominant-baseline="middle">--oauth-bridge</text><path d="M80,70 L240,70 L240,130 L80,130 Z" fill="#eff6ff" /><path d="M82.4297727270525,69.33356719056829 C113.72713816033443,70.968573143662 142.67895484663086,72.46677450811815 240.139436542108,67.9329447751689 M80.98704569818725,69.11404864007217 C125.67376413097749,69.03938593349895 172.30404606671812,70.1287933301975 238.91861085018795,69.10941451993669 M242.11842610873262,70.75021902705909 C238.59040701401088,84.33487658593621 239.86986404284357,97.56435494494282 239.50472160853698,127.88392370649908 M241.14526606485805,70.64214071797866 C239.53582974150547,89.53488082498487 239.016903968195,106.50455607050468 241.10445337060443,129.7073996380485 M241.778208884494,129.29008387090227 C203.8965515614598,126.03200070275838 170.78929835696246,126.0774513300122 78.76956799163811,131.27074373178363 M239.54906270613552,130.6804203343747 C192.8717830341246,128.53050098388263 145.3867434615122,129.47954561620654 80.49789248941075,129.3384180178753 M78.23954062432765,131.50166298301372 C78.6015710246896,110.15983965163846 78.9875668652807,92.30519594015567 79.72350739669662,67.84296570327196 M80.84634180403991,129.86858796898366 C79.38884619412103,111.11684934944446 79.25927026797577,92.57320453723612 79.17159579919418,68.83719334495777" stroke="#1e293b" stroke-width="1.4" fill="none" stroke-linecap="round" stroke-linejoin="round"/><text x="160" y="100" font-size="17" fill="#1e293b" text-anchor="middle" dominant-baseline="middle">Client</text><path d="M370,70 L570,70 L570,130 L370,130 Z" fill="#eff6ff" /><path d="M369.3410232216332,69.68290946110865 C419.05725904586944,69.13640778004867 467.07251311130153,69.57212245462657 568.6038326077168,69.28641584977095 M369.54906796520214,69.16613262638505 C446.74770037044516,70.00646783989573 522.9376466226882,72.15780182611809 570.7306077244635,70.6897613958737 M571.6703837894861,68.5969941897253 C567.1435592342419,94.2262220329126 570.4619115434496,112.67769766189835 570.4276617157808,128.53907180731588 M570.6389898287645,69.73072154906195 C571.4169769177192,83.69618521969514 571.5078917084115,97.39421777680637 569.6491075279786,129.44523848993904 M567.8507563790656,128.42792496310136 C515.5852999956675,126.58948073334673 458.8683578119694,127.39985970276629 368.06832908518686,130.244200049626 M570.1513946850357,129.8242577830952 C509.57542750929906,127.56252599428977 451.26319113763367,128.07221035498364 370.28798331336134,129.8763138039811 M370.8868839863122,128.97519486369956 C370.10944036416697,105.23910955865568 371.013372270299,84.63209719170108 367.7385774388901,69.69971115565004 M371.07119802950484,129.28356151292635 C369.45734276335264,115.75127840995177 370.00124947872746,101.94610535410446 370.00793719639904,70.5038679464928" stroke="#1e293b" stroke-width="1.4" fill="none" stroke-linecap="round" stroke-linejoin="round"/><text x="470" y="100" font-size="17" fill="#1e293b" text-anchor="middle" dominant-baseline="middle">Proxy</text><path d="M700,70 L840,70 L840,130 L700,130 Z" fill="#eff6ff" /><path d="M701.8326772302514,71.20838237938759 C729.0105728038811,69.39575880900821 756.880835518726,70.35741929761248 840.2991002061482,72.39926654844277 M701.1765596866568,70.64010947181461 C749.8842492097452,71.73939467831411 798.9470245323038,71.01711717775031 839.6939443100638,70.07881282880066 M839.7540911865498,69.98197690359001 C839.5547449004016,81.61283515404574 840.6549731761033,95.97641881623568 839.8261781903701,130.29962393847828 M840.5013611380556,69.72433151658983 C840.0401700323928,90.75007644031776 840.3554155578141,113.66900218789078 839.6681240869779,130.0456856772273 M838.1858117678254,129.26965094710621 C796.3730256529361,129.03475753298173 757.3290657621272,130.67453940327118 701.3952209629102,128.99036896167252 M839.4534767107368,129.8582400875341 C809.7278249262956,130.0980836527224 776.616156225329,131.67612795109304 700.6178071148295,128.70470814892747 M697.5102799457153,128.7781590670418 C702.0174425672545,109.4723907228633 700.1748326584408,91.76198893244248 701.3173556008693,71.39828289906373 M698.8695612982875,130.778417894093 C700.4295872232002,114.75106030223331 699.543994546175,99.88374900017371 701.2742540524599,70.18286495625709" stroke="#1e293b" stroke-width="1.4" fill="none" stroke-linecap="round" stroke-linejoin="round"/><text x="770" y="91.95" font-size="14" fill="#1e293b" text-anchor="middle" dominant-baseline="middle">api.</text><text x="770" y="108.05" font-size="14" fill="#1e293b" text-anchor="middle" dominant-baseline="middle">anthropic.com</text><path d="M239.1379455737978,101.71379200066374 C288.7828090388981,103.18191477510697 331.91891183642474,102.31122663335212 372.13666219012896,101.88260897833577 M239.69704523660332,100.1245565148483 C287.27161285601863,101.88952888914213 334.9096537366646,100.87701742248933 371.1323562536807,98.90678352531617" stroke="#1e293b" stroke-width="1.3" fill="none" stroke-linecap="round" /><path d="M370,100 L360.9955289764732,104.3496553411123 M370,100 L360.9955289764732,95.6503446588877" stroke="#1e293b" stroke-width="1.3" fill="none" stroke-linecap="round"/><text x="305" y="85" font-size="14" fill="#475569" text-anchor="middle" dominant-baseline="middle">x-api-key: sk-ant-…</text><path d="M571.6946776795411,97.94092735052166 C608.3194772350322,100.47226123832823 650.345037928196,101.452447776063 697.6422111497302,101.15745915257348 M569.4485376061733,99.26866917276006 C605.2140008492039,102.46710089938954 638.4434647136833,101.3106387647795 700.3180113571656,100.50577060676737" stroke="#1e293b" stroke-width="1.3" fill="none" stroke-linecap="round" /><path d="M700,100 L690.9955289764732,104.3496553411123 M700,100 L690.9955289764732,95.6503446588877" stroke="#1e293b" stroke-width="1.3" fill="none" stroke-linecap="round"/><text x="635" y="85" font-size="14" fill="#475569" text-anchor="middle" dominant-baseline="middle">unchanged</text><path d="M80,250 L240,250 L240,310 L80,310 Z" fill="#eff6ff" /><path d="M79.96479596321507,248.76089959109606 C125.29910196049038,249.20632019763764 167.7841588706599,246.6139660390495 240.15633986445653,248.4380269043779 M80.70174611670679,249.72198074441653 C126.4071179529317,248.88219169854122 172.49420355276368,249.76114544394608 239.51626605757156,249.14212471744088 M238.8750737875153,249.5738899075938 C240.25558650744858,272.7434240689987 237.58731369409665,298.6307816677032 241.42283968030014,309.8751478871294 M239.45884132664716,250.10034519864564 C239.63671854081232,273.56514813521693 239.36715140229057,296.7784711161961 241.08672011294993,310.88378247345224 M238.08468120593514,310.56715122052157 C202.37995016088547,309.7907342623988 165.38070834901416,310.8775496909456 78.59863153829573,309.57786819920256 M240.2920843297477,309.28511475408015 C179.89671726399285,311.44311179540097 117.61590313491763,311.20922542989456 80.94315574191869,309.6902164262659 M78.48028617953626,310.3297686074295 C83.00055126090933,293.22958751682853 82.45796354567663,279.32067985097456 80.87683777929583,249.49666120726982 M78.877850531245,310.55222762678073 C80.18882395373643,289.3941703781583 81.2094625345037,269.7909000991108 80.80445799257294,250.77868762788486" stroke="#1e293b" stroke-width="1.4" fill="none" stroke-linecap="round" stroke-linejoin="round"/><text x="160" y="280" font-size="17" fill="#1e293b" text-anchor="middle" dominant-baseline="middle">Client</text><path d="M370,250 L570,250 L570,310 L370,310 Z" fill="#eff6ff" /><path d="M370.3126674718961,252.12617881468313 C435.392931365097,253.74231717928743 498.0755339387281,249.54493456119417 571.6424253702485,248.85279907129322 M369.63898958907663,250.97533838292705 C448.21752215080284,249.54854724874502 526.4434676127246,248.56178955109962 569.5782147019104,250.55163238370596 M570.8682713461127,249.68884354094385 C572.7037452086942,267.39254427681453 572.0880089053534,288.81556666439644 572.3817462349496,310.64196131637027 M568.9291594189941,248.90149036597728 C570.6708246913558,267.50957735918166 570.8447727849809,282.20954114726857 571.0611255572647,309.12950407147434 M569.2566897332937,311.4067680652358 C520.4877608870297,310.38917600461167 467.6648751029915,309.6506821656865 372.25653912842637,307.8733756553913 M568.9653673310974,309.37831852540086 C524.8605398919915,308.082048549939 480.9642176445774,308.5623976190863 369.32880301298775,309.0225494857584 M369.98692472428127,311.16820495074074 C369.67036461466967,294.2484924162779 370.430391148394,278.12562689855565 370.1417978296086,248.52500438359309 M370.1462027773013,310.967825546537 C369.70252187257,296.0411932619042 370.6430454388492,284.3921097268122 370.2920215865318,248.94558035881107" stroke="#1e293b" stroke-width="1.4" fill="none" stroke-linecap="round" stroke-linejoin="round"/><text x="470" y="280" font-size="17" fill="#1e293b" text-anchor="middle" dominant-baseline="middle">Proxy</text><path d="M700,250 L840,250 L840,310 L700,310 Z" fill="#eff6ff" /><path d="M700.6739859115526,249.6895081656287 C756.2019836844346,250.61851611576137 812.1908696601871,251.25058411798594 842.4160630036798,251.38603486447758 M698.8047256537342,250.89367981968473 C732.5913362508653,251.82836581195295 765.4310582529724,251.2403811406803 841.1675186490085,250.11610595093816 M840.7986964076518,251.84097321756747 C840.6887858401021,261.6297436554259 838.2280215098494,271.7479901499317 839.4161001475552,312.1983250940087 M839.059562342784,250.55648995337646 C839.1435068116016,265.94514350795737 840.5281524536684,281.7705095312935 839.1165556871438,309.1272319140126 M841.709437514915,310.6498089194067 C803.7264895275996,309.8478832370588 769.3308230869425,312.83088499650734 699.5214585609447,308.0734336069882 M839.5186931099832,309.94862120101715 C795.3031921657349,308.1746127078985 749.8480514754667,307.8370225436436 699.6070006498553,311.2462004143322 M699.7337996883357,311.9652706575992 C700.7332260889835,293.2695983524752 699.4554565402943,274.03716532168943 699.6027092148445,252.35630039367095 M699.4428307395344,308.98296276068214 C700.3701897300084,288.5624441628697 701.1981416647387,266.75660886806116 699.7482937294781,248.77038926546757" stroke="#1e293b" stroke-width="1.4" fill="none" stroke-linecap="round" stroke-linejoin="round"/><text x="770" y="271.95" font-size="14" fill="#1e293b" text-anchor="middle" dominant-baseline="middle">api.</text><text x="770" y="288.05" font-size="14" fill="#1e293b" text-anchor="middle" dominant-baseline="middle">anthropic.com</text><path d="M400,330 L540,330 L540,360 L400,360 Z" fill="#fefce8" /><path d="M399.0308165327755,330.94942903921213 C430.1053966538339,330.98457024846596 456.3008999556437,330.90525486891175 538.1509913792269,329.1065540722589 M398.852149224945,329.0828519651036 C451.27336036373873,327.7879695520887 502.97858112614244,328.9420417846047 539.3219598637581,331.1287220204961 M540.0071864433571,330.9076810818011 C538.3811279580458,338.24383946308325 541.8197116879105,348.10882338820585 540.5262166117632,360.09408294978795 M540.5161478832008,331.11682398461426 C539.4904839470377,337.61598064402216 539.0385261014226,348.3433887556181 540.6677220332307,360.8136700289834 M539.6727276118809,358.7849635625234 C497.1752442476754,362.6071769282627 456.0096164428529,361.8849390892927 401.716193924329,357.4916356725505 M538.7597214395416,360.0940516671528 C485.1140482970363,359.73355883486437 431.863010216388,361.0853912098347 400.54526264339984,360.2712537043876 M400.4376458435783,361.83599114511696 C402.1075883349576,355.61225349512404 397.49051478383933,346.97719704434724 399.2827104122189,332.4455326324011 M398.72904210276926,359.5732470080524 C400.61947741968055,350.1146165129369 399.3014290985703,337.8115139512078 400.3643698913843,330.3575314419493" stroke="#1e293b" stroke-width="1.4" fill="none" stroke-linecap="round" stroke-linejoin="round"/><text x="470" y="345" font-size="13" fill="#1e293b" text-anchor="middle" dominant-baseline="middle">macOS Keychain</text><path d="M241.39871292640257,278.6709074051511 C275.8935065154134,279.42378469313246 311.647343197782,277.2076716534066 371.0274256010331,282.2663875401611 M239.75257997621424,280.1729642009822 C273.69368569745694,280.34681464414547 307.46148643866337,280.11970858699726 369.4294414346595,280.9349967831615" stroke="#1e293b" stroke-width="1.3" fill="none" stroke-linecap="round" /><path d="M370,280 L360.9955289764732,284.3496553411123 M370,280 L360.9955289764732,275.6503446588877" stroke="#1e293b" stroke-width="1.3" fill="none" stroke-linecap="round"/><text x="305" y="265" font-size="14" fill="#475569" text-anchor="middle" dominant-baseline="middle">sk-ant-…</text><path d="M568.9406759030087,280.1224996978103 C597.519814993379,277.6967612532409 621.1903367488379,279.17791500059684 698.6769944253516,278.1926749038529 M569.4717336453351,280.8827498246592 C596.9600872214141,278.94215133488825 624.5299341941826,278.34539186241375 700.2172588100863,279.3899946812953" stroke="#1e293b" stroke-width="1.3" fill="none" stroke-linecap="round" /><path d="M700,280 L690.9955289764732,284.3496553411123 M700,280 L690.9955289764732,275.6503446588877" stroke="#1e293b" stroke-width="1.3" fill="none" stroke-linecap="round"/><text x="635" y="265" font-size="14" fill="#475569" text-anchor="middle" dominant-baseline="middle">oauth-…</text><path d="M468.5238132894782,331.604868246136 C468.4126961616491,323.9838426012835 470.4374511431265,319.3346483643527 471.3323229647661,314.5910354311645 M470.20155953472045,329.155367348025 C469.4150954793736,323.8706669730577 469.31571969481615,317.7676326657351 470.6873226896282,315.4594579350818" stroke="#1e293b" stroke-width="1.3" fill="none" stroke-linecap="round" stroke-dasharray="6,5"/><path d="M470,315 L474.3496553411123,324.0044710235268 M470,315 L465.6503446588877,324.0044710235268" stroke="#1e293b" stroke-width="1.3" fill="none" stroke-linecap="round"/></svg>