<svg xmlns="http://www.w3.org/2000/svg" viewBox="0 0 900 380" font-family="'Caveat', 'Kalam', 'Comic Sans MS', cursive"><rect width="900" height="380" fill="#fbf7ef"/><path d="M30,20 L870,20 L870,160 L30,160 Z" fill="#f1f5f9" /><path d="M30.929080556886824,21.01932995966243 C317.4928288510736,24.280401542626116 603.7872799558369,23.79900518437148 869.3512918690973,20.57295847923691 M30.042556649743712,20.45180612530361 C332.15216611528007,22.846922830891195 634.3540276392854,22.44795773698489 870.1711689119153,20.28907232695216 M872.2048359956663,21.052038716240496 C869.5953801846613,66.67079372249239 868.4360825741418,118.74976520995772 869.8373537887092,158.3305258352108 M869.3489101256789,19.60648885316161 C870.5000292404468,71.68015826615002 870.2267596384131,125.3189811883718 869.4815584209965,160.22982495150532 M869.5123381377443,160.13306407299672 C647.5455854257236,160.7725377595348 424.97310760178846,159.3939927398431 30.643639680079005,160.07096142491233 M870.1444103903863,159.5505293403546 C577.9320416913215,162.94300101351726 285.9498402534544,162.89050408005164 30.453331893061904,160.01502859308667 M27.818107827625138,161.16491517101323 C31.000200060980063,116.74617408667116 31.613882838005644,73.63732433838868 28.683189883499107,19.048671477822 M29.63099984021446,161.10619814530617 C28.655608507250246,118.10570728031219 30.87008635021899,76.21400887322844 28.999708173859094,19.06935985185706" stroke="#1e293b" stroke-width="1.4" fill="none" stroke-linecap="round" stroke-linejoin="round"/><text x="90" y="42" font-size="16" fill="#1e293b" text-anchor="middle" dominant-baseline="middle">Default</text><path d="M30,200 L870,200 L870,360 L30,360 Z" fill="#f1f5f9" /><path d="M29.901706688513336,199.78900334341827 C345.5916248858843,198.14574921273476 659.8923722716554,198.76528324142953 869.4875732798465,200.69536224157739 M30.144144503174143,199.5873918932572 C323.0257168353317,203.60900864030503 616.3708162332717,203.50631723760304 870.3828192276708,199.73002869500345 M868.8065603791372,200.66530990332132 C870.9337197741722,237.03334032705646 872.1077923743514,275.14703861192845 871.6726381078477,357.48514042371335 M869.3843491616844,199.70336118374033 C873.1617873742423,237.7879574518157 872.2188702204111,276.8604557537896 869.5035276854345,360.90934502194096 M869.3225286609795,360.7437827470084 C671.5766768412417,360.7620494483045 474.5955305410153,359.80514136791646 29.984017542067534,359.22909583201294 M870.4575399432774,360.41309859058293 C625.7561636065086,360.899676428278 380.72593935918184,360.40261110485767 29.712308941650925,359.8400066076319 M29.016902346676424,361.4060362249368 C27.81333374400738,312.64637122841947 28.465367665423777,263.1076019803985 32.09079791648612,201.4270026522339 M30.263742614882872,360.8085699586605 C30.69569431831207,305.2681993155648 31.360505197411378,250.76854928511716 29.07227437349993,200.56113700814245" stroke="#1e293b" stroke-width="1.4" fill="none" stroke-linecap="round" stroke-linejoin="round"/><text x="130" y="222" font-size="16" fill="#1e293b" text-anchor="middle" dominant-baseline="middle">--oauth-bridge</text><path d="M80,70 L240,70 L240,130 L80,130 Z" fill="#dbeafe" /><path d="M82.4703267234679,67.82632155422812 C127.66165339747302,71.28532159144814 178.0573308431232,69.06018999724047 239.30903872569692,72.32584432660164 M80.4992246127432,69.42596225848074 C130.52905134896497,71.47351516605326 179.29066380919593,70.36623164428424 239.16049595510339,70.56953317272297 M242.4261540516624,70.69461284364284 C241.0325791789596,88.04490681987832 237.159939391955,108.54413671736859 240.38354895704109,129.21135178886166 M240.91084163197672,69.35586170573794 C239.00932309953754,86.31327242420691 241.0044049416879,101.43868871739267 239.2488060581257,130.70537869492654 M241.6848707159857,130.26115151056274 C195.6351623363209,129.91575701009003 152.8969836588649,130.68185909132723 79.39695110704501,128.83490542738588 M238.78058828751335,129.1414536866113 C178.79329601121077,130.28790073560882 117.94478922104621,130.2593973221907 79.654368573161,130.22652104439126 M79.24881330000166,127.6489380850668 C77.86177508068873,106.9427430206157 78.99134603005486,87.2824485314521 79.58214594442754,70.68772301323523 M78.79959718308756,129.50408442913397 C79.73808143873177,113.47262601406274 79.98424000783601,98.18097398490016 79.234260125233,70.96334576296927" stroke="#1e293b" stroke-width="1.4" fill="none" stroke-linecap="round" stroke-linejoin="round"/><text x="160" y="100" font-size="17" fill="#1e293b" text-anchor="middle" dominant-baseline="middle">Client</text><path d="M370,70 L570,70 L570,130 L370,130 Z" fill="#dbeafe" /><path d="M371.98917761487746,67.76816969389324 C431.8525351741901,71.15794443989734 490.5433885414391,72.61442734386846 571.9518544581263,70.05302550814623 M370.8878980950915,70.45051559925676 C420.8898086334721,70.29111300709047 471.0694846117319,69.31857620878621 570.4709869192756,70.63093768699387 M571.2229938380864,70.2972279874381 C569.824527486016,86.77383628803206 570.4386239303489,105.40362220581343 569.711610702166,130.78875703270467 M570.2155491657993,69.05714303707197 C571.0943842398373,87.25357882867036 571.8993526388542,106.22275050467708 570.2866021336482,130.67902088594408 M571.931000386315,132.07975786946443 C495.1297710225673,133.77176659277285 425.84287748171766,132.90194023322476 368.3755024973756,129.69643105705362 M569.8159988853008,129.06023178113233 C498.1475026142436,130.49142816739334 428.7711518635345,130.45120449502656 369.6724595036989,130.85391664574945 M368.1748490499751,127.63647140620597 C370.81336329268595,114.47406423479897 369.1084564126695,94.77818696826917 369.856153942515,71.23618034230851 M369.25748270229997,129.45453324800877 C368.7643947352861,109.41586488011299 370.1212732742825,89.57726343657124 370.99725676113525,71.18469884290845" stroke="#1e293b" stroke-width="1.4" fill="none" stroke-linecap="round" stroke-linejoin="round"/><text x="470" y="100" font-size="17" fill="#1e293b" text-anchor="middle" dominant-baseline="middle">Proxy</text><path d="M700,70 L840,70 L840,130 L700,130 Z" fill="#dbeafe" /><path d="M700.5532621486147,71.93694541931875 C736.5955935651951,70.5373709058635 777.3242117409952,71.6421540774592 842.1009102751786,68.17772571316402 M699.3142867190373,69.15549436635011 C727.9314411141183,70.30483195085188 759.0579648846324,70.52251352799938 840.9702766421509,70.86667719393377 M840.8193594428973,71.90714630719079 C842.7704264767866,81.14296138447449 838.193366569835,93.84700255819358 839.3084899154276,130.56687083617118 M840.9786281039985,70.61886664884888 C841.2430407381048,86.1428292550017 840.5785500842472,103.02840002520729 839.6139833174872,130.69361219945657 M840.100222217599,128.06299246254923 C797.688760904899,132.42177386935788 755.3636677305815,130.99588373970371 698.0567688929085,131.9934681916361 M840.2751362623358,130.1366374636831 C795.2836245184886,130.41481848439474 750.2415020045152,130.28494911636903 699.1649936434715,131.10327206269213 M702.0416914343358,129.0531512998601 C697.6061303923411,108.64983602949253 698.8997286358131,93.02916881794789 698.2096584031233,72.50949408443948 M700.7505723397771,130.01213289786077 C699.2138812956293,113.63274549242324 699.2841251973737,98.45650947635207 699.1420935759702,70.63090732796984" stroke="#1e293b" stroke-width="1.4" fill="none" stroke-linecap="round" stroke-linejoin="round"/><text x="770" y="91.95" font-size="14" fill="#1e293b" text-anchor="middle" dominant-baseline="middle">api.</text><text x="770" y="108.05" font-size="14" fill="#1e293b" text-anchor="middle" dominant-baseline="middle">anthropic.com</text><path d="M239.34661462461168,99.03509860545927 C277.8402390536277,100.47583629931654 312.83496468128254,99.72318236956082 371.2351615808441,98.69653886303433 M239.94814277107773,100.82734273174833 C274.72900105538446,99.28890552205682 308.1346389321301,97.94578311467195 369.54249213893337,99.80669447039516" stroke="#1e293b" stroke-width="1.3" fill="none" stroke-linecap="round" /><path d="M370,100 L360.9955289764732,104.3496553411123 M370,100 L360.9955289764732,95.6503446588877" stroke="#1e293b" stroke-width="1.3" fill="none" stroke-linecap="round"/><text x="305" y="85" font-size="14" fill="#475569" text-anchor="middle" dominant-baseline="middle">x-api-key: sk-ant-…</text><path d="M571.2357386051661,98.3389295844748 C611.9643865131019,100.00762557009766 654.7779212453754,99.77663308810911 701.6043740559519,100.1640012159984 M570.1028845914103,100.56343370299619 C614.7494398663254,100.08186872876863 660.3216317209823,98.5082753059684 698.9536528109367,100.79547392779197" stroke="#1e293b" stroke-width="1.3" fill="none" stroke-linecap="round" /><path d="M700,100 L690.9955289764732,104.3496553411123 M700,100 L690.9955289764732,95.6503446588877" stroke="#1e293b" stroke-width="1.3" fill="none" stroke-linecap="round"/><text x="635" y="85" font-size="14" fill="#475569" text-anchor="middle" dominant-baseline="middle">unchanged</text><path d="M80,250 L240,250 L240,310 L80,310 Z" fill="#dbeafe" /><path d="M81.01141640081192,248.04765438203452 C138.28232982487,250.76159441895453 195.06624255289253,250.55767822229208 242.35879560655763,248.73416915611458 M78.79909958404596,251.10964635041935 C123.25295862606215,248.53968020657547 165.60477684292076,249.86893106402025 239.49610852791,249.18798590243452 M241.0289292062215,250.65043818451247 C240.22523832981966,271.75432440332435 239.5515590701299,289.0752594974517 237.7409265782681,308.0306435036581 M240.52216567892725,250.1848628117044 C240.64397097726913,269.5801897019989 239.61805879928923,289.65048247415456 239.09816926570699,310.38867946171695 M238.55469978367276,311.7750602663941 C192.15635527134813,308.1705317726852 138.46287382283018,309.39120176467407 78.96040521500886,308.9203716953409 M240.05762172411127,309.86621686391834 C184.0891928999763,309.23282266969414 126.50600953466977,310.2431395428318 78.93045112565412,308.707233780217 M79.70160376823937,310.79406734741093 C81.77687460358435,284.31667896671024 82.68095373219087,260.91510030940077 81.2956783229246,252.12368914827462 M79.84805255936325,309.3953908107942 C80.67842462334094,297.0456502168475 79.71245489902554,283.6928167280719 79.67559430211531,248.822462336226" stroke="#1e293b" stroke-width="1.4" fill="none" stroke-linecap="round" stroke-linejoin="round"/><text x="160" y="280" font-size="17" fill="#1e293b" text-anchor="middle" dominant-baseline="middle">Client</text><path d="M370,250 L570,250 L570,310 L370,310 Z" fill="#dbeafe" /><path d="M371.83491189545697,250.7072011884579 C421.8988197429066,250.27663921259236 471.2848758159292,249.25081968974635 569.4610843790583,251.6770063207606 M370.3557959452175,250.99796260145197 C413.95730438316946,248.00667940014392 456.1977966253898,247.2277828290397 569.0488664422782,250.31298722246285 M571.9332242093469,248.9813029342616 C568.1188057853282,269.9625717651099 568.8250076446975,287.43316470675296 571.6118537976594,310.7241637059849 M569.2879774090541,251.22443721854643 C569.6037186734525,266.0158734548528 570.8552435132631,279.33778680656616 568.7342279654886,308.8753140496651 M570.2758693469231,311.6672865096044 C515.9495144655202,308.27896723931883 460.8743443253271,310.6312069784219 369.1670325383737,308.7508230197171 M571.1454516934555,309.09403117133706 C500.3832944810787,307.92293600028296 431.19580807692097,307.04576059146723 370.8408466301379,310.4920780576341 M371.94607098895773,309.200564187673 C371.26043861419606,289.5172131705604 370.9109573386329,273.8762132345969 369.08899789592243,248.79428739043158 M370.2607596945707,310.3157749941964 C369.36266878443934,286.31457449025646 368.23731049849175,264.28369588646467 370.2014618118148,249.6100027586399" stroke="#1e293b" stroke-width="1.4" fill="none" stroke-linecap="round" stroke-linejoin="round"/><text x="470" y="280" font-size="17" fill="#1e293b" text-anchor="middle" dominant-baseline="middle">Proxy</text><path d="M700,250 L840,250 L840,310 L700,310 Z" fill="#dbeafe" /><path d="M697.6303890248855,251.8455934825309 C753.0758164190852,246.99859883527915 807.4489536252275,250.86398679294237 839.2310061196873,248.0596476858516 M700.0530839731518,250.7527312437101 C727.098734562569,249.26327959188433 755.5913610046996,249.30061405114918 840.7389544397943,249.20374064100142 M841.9589720873884,251.0590983712204 C839.3561221150565,270.5319283901598 840.6291625134323,293.1801189626866 838.5638870278256,307.41910379285605 M841.2603640195982,248.94700970733507 C841.0772053709585,269.039143522382 841.6076907200684,285.059799930905 839.0056368191043,308.9519536248194 M842.291373289417,309.2176357397519 C804.4792610629257,307.82680771283054 771.0507853392523,310.13535334550295 702.2588792677785,310.5522014195006 M840.3801799615179,309.16330904695394 C796.4195359830821,307.9451733675835 752.9935931344771,308.5120548831617 699.3252385789426,309.43264194045264 M699.5370069616758,311.9070615295016 C702.8171980413632,289.97227463946604 701.344224676906,263.33584178782763 699.1856854486593,250.2761819196897 M700.3048872296982,311.0514509771649 C700.2297257008407,296.1554693791972 699.9885145897775,283.706437036774 700.8650653822057,250.66497100770496" stroke="#1e293b" stroke-width="1.4" fill="none" stroke-linecap="round" stroke-linejoin="round"/><text x="770" y="271.95" font-size="14" fill="#1e293b" text-anchor="middle" dominant-baseline="middle">api.</text><text x="770" y="288.05" font-size="14" fill="#1e293b" text-anchor="middle" dominant-baseline="middle">anthropic.com</text><path d="M400,330 L540,330 L540,360 L400,360 Z" fill="#fef3c7" /><path d="M398.68524216575173,328.6889606578507 C449.01091925585035,331.5880292726286 500.2518291970235,329.5624452012148 539.6691748812951,329.37158533948707 M399.0014229158046,329.4490386346573 C434.1228386535523,330.7789343702295 467.3100368207023,331.7248177123795 539.6724827247567,330.48701811293273 M541.9849404493497,332.14080904714757 C537.6699725542949,339.95533508542684 542.1779639363496,347.5560360890703 541.5509028571983,359.0503033886384 M539.7542450778444,329.1457399144457 C540.5440209087471,341.51053005215994 540.1931539014151,351.2625317021582 540.6326757706332,359.42433904493834 M539.8521018525807,360.62713198703113 C509.2392605780041,360.8510592867071 480.81030544949,359.96678972345507 398.5845158119067,358.3019216126934 M540.4121409399579,359.78893465980144 C498.53850334952335,360.3566596289441 456.8681793514438,360.8794757359385 399.75960200121654,359.29199610819404 M399.4100234411781,360.5285574288771 C400.5319397562026,348.17476025805865 402.4265799318372,337.9849858397257 401.39112426975703,329.079062148237 M399.1390864579687,358.85378095533076 C398.53974010962264,350.4185760914604 400.80079214710156,340.3480813556203 399.61755206280077,331.0555221521981" stroke="#1e293b" stroke-width="1.4" fill="none" stroke-linecap="round" stroke-linejoin="round"/><text x="470" y="345" font-size="13" fill="#1e293b" text-anchor="middle" dominant-baseline="middle">macOS Keychain</text><path d="M239.87662915720176,278.1624782755122 C272.6829356904945,278.76545771083835 309.0046789072232,278.17741361923584 370.32651263880865,277.697181809693 M240.73001922714784,280.31180986750655 C289.7467044992832,280.4214549779859 340.61457618719356,280.63256297005154 370.7786392142466,280.1224338737146" stroke="#1e293b" stroke-width="1.3" fill="none" stroke-linecap="round" /><path d="M370,280 L360.9955289764732,284.3496553411123 M370,280 L360.9955289764732,275.6503446588877" stroke="#1e293b" stroke-width="1.3" fill="none" stroke-linecap="round"/><text x="305" y="265" font-size="14" fill="#475569" text-anchor="middle" dominant-baseline="middle">sk-ant-…</text><path d="M569.3726047844165,278.175148613501 C613.3713392766201,281.1250630327525 654.4842384276898,281.0559013740789 701.7025162274806,279.46033163885926 M570.3191978314367,281.136960879628 C615.2586989617296,280.2014724527143 660.8966693415824,280.33753966828914 699.1513172862803,279.24553482154533" stroke="#1e293b" stroke-width="1.3" fill="none" stroke-linecap="round" /><path d="M700,280 L690.9955289764732,284.3496553411123 M700,280 L690.9955289764732,275.6503446588877" stroke="#1e293b" stroke-width="1.3" fill="none" stroke-linecap="round"/><text x="635" y="265" font-size="14" fill="#475569" text-anchor="middle" dominant-baseline="middle">oauth-…</text><path d="M470.6974051206812,330.15042943417325 C470.9281390162322,328.51379726742454 471.3971929370202,323.3848813267173 471.295075840228,316.29423166343634 M470.6356670194559,330.55491865712526 C470.55461895572523,326.03187725467313 469.65446583145894,323.66442782722993 469.20273543944796,315.31347687792487" stroke="#1e293b" stroke-width="1.3" fill="none" stroke-linecap="round" stroke-dasharray="6,5"/><path d="M470,315 L474.3496553411123,324.0044710235268 M470,315 L465.6503446588877,324.0044710235268" stroke="#1e293b" stroke-width="1.3" fill="none" stroke-linecap="round"/></svg>