<svg xmlns="http://www.w3.org/2000/svg" viewBox="0 0 900 380" font-family="'Caveat', 'Kalam', 'Comic Sans MS', cursive"><path d="M30,20 L870,20 L870,160 L30,160 Z" fill="#f8fafc" /><path d="M29.137471207043514,19.725641583850397 C268.03803885031937,21.933367981660854 505.79852282179075,22.575120608616952 869.9380067947868,20.65423013092986 M30.306147538935818,20.194222201502374 C365.750089179552,18.965021851272443 701.2287676291676,18.719057495727203 869.5935914543121,19.676360195878367 M868.7556657485302,19.266116605585555 C870.7959015004093,61.83721762984865 869.9185295505333,104.01293599594347 872.5798627858011,161.96994738880466 M869.0030704912061,20.649878803065423 C868.3924379106242,58.98576605245755 870.4790534625116,97.39000764095026 869.5995056911477,159.43911869614655 M870.0566378625323,159.00476516804702 C692.3188360486153,157.29484945872085 515.0552453896421,157.84183659234284 29.754843488653687,161.09459033150165 M870.0542829142568,160.2027756361998 C578.6851507700757,164.77033648015382 287.64395545319434,163.86064563476572 29.517849294135363,159.477838403738 M27.8164907984527,161.68083745342616 C31.07435497220928,105.45659719403069 30.153928302519038,51.519719883581956 28.28136084635953,22.46156085351197 M30.047881349481358,159.96404573113855 C32.56152698642565,129.65776800346507 30.585430533821,100.56264238065411 29.503070025760735,21.043843062349858" stroke="#1e293b" stroke-width="1.5" fill="none" stroke-linecap="round" stroke-linejoin="round"/><text x="100" y="40" font-size="16" fill="#1e293b" text-anchor="middle" dominant-baseline="middle">Default</text><path d="M30,200 L870,200 L870,360 L30,360 Z" fill="#f8fafc" /><path d="M30.888057871606208,199.0349554157075 C292.32909146592027,203.41855459315465 553.3559875072938,203.02073610197286 870.6035064254013,199.6413395516115 M30.316277279340838,200.11012671656636 C265.1288071704299,200.47980880989235 499.73468567004943,200.88829016214407 870.2285101724774,200.35551682488813 M872.5009042479047,200.60527609822876 C870.9722704205608,248.9269800117729 868.8680423676856,293.18113802708416 868.8545799713252,360.43686360066056 M870.988063986477,200.48850317358787 C870.0445739518465,242.33887775825875 868.5939256749454,283.6316639812917 869.1907239179035,358.74562652675775 M869.3053803620803,361.1000029620639 C676.1656781527482,354.1201292726115 481.92766961695236,355.33334065835385 29.889439376542278,359.63942164695584 M870.08347132656,360.17606347721465 C603.6432996208737,359.7882029201229 338.1584563588687,359.70371507471685 29.96352614117176,359.4422178064002 M30.4149301398232,362.689294978 C33.720114412667066,310.5569937192103 31.762662149283482,264.47582362629583 28.505106232973326,200.67572599915658 M28.691439555914183,358.76657169663144 C27.409872087994568,314.85355391292563 29.074912735250706,272.6407137608035 28.8369288127603,199.78362577766922" stroke="#1e293b" stroke-width="1.5" fill="none" stroke-linecap="round" stroke-linejoin="round"/><text x="130" y="220" font-size="16" fill="#1e293b" text-anchor="middle" dominant-baseline="middle">--oauth-bridge</text><path d="M80,70 L240,70 L240,130 L80,130 Z" fill="#eff6ff" /><path d="M78.19000997513008,72.29602102942009 C128.82794185426172,73.4389858269865 184.57636830825408,70.46244978110273 237.3088722296388,67.39272748800296 M81.3887687112652,69.13734853060795 C138.81284289562376,68.25856380978549 196.98778507229466,69.70177996618607 239.13233744179095,71.20318919348891 M242.53733239884363,70.01280431837304 C237.61907433968014,87.89452677442111 241.19684134447238,105.8248796374119 240.05844334895946,130.16238788726812 M239.0118340297699,70.6848757736582 C240.96302621028303,89.8375476328132 239.99843280501912,106.50744904356638 240.8976543713553,129.40611008957134 M240.64370553495377,132.43385170960747 C204.2178882843023,125.77526846913592 170.66885666748206,125.7451664121009 78.98554063824291,129.85461685759 M240.2765908182101,131.15953170495192 C201.30917106709717,128.1353320501407 160.48332825282102,126.37737679789653 81.0556467909432,130.3381060034903 M79.69146748358976,128.66894758429336 C81.7901226774164,116.82423556514995 82.03918153384713,102.23343393920312 82.08109326570687,71.06842445197195 M80.77557885139107,129.85825757319114 C80.27215277843011,112.96104382264208 79.41631272592981,92.96281853754299 80.31470932804392,69.73796417588696" stroke="#1e293b" stroke-width="1.5" fill="none" stroke-linecap="round" stroke-linejoin="round"/><text x="160" y="100" font-size="18" fill="#1e293b" text-anchor="middle" dominant-baseline="middle">Client</text><path d="M370,70 L570,70 L570,130 L370,130 Z" fill="#eff6ff" /><path d="M369.77182069917745,68.19973384224701 C410.8423042007676,69.29210019696399 453.8606074829463,70.40260709019327 569.2605944911859,71.49384612674186 M369.6889573455785,69.66214456854057 C411.16725399852083,71.64451272289291 452.60118194420176,70.80387160428697 570.1242745090723,70.33121039009089 M569.513752057496,68.94277993384462 C569.3415443182175,88.31349492248975 572.4683397924933,107.65143812835562 568.0847382591014,129.34311919253153 M569.1357312852,68.78650297603913 C567.8447944061991,85.49255665375283 569.7968579387216,102.24568574059911 569.0603714128589,130.92476589132377 M570.3429093147372,128.00675797194856 C507.03529092689536,134.6882394839941 444.7012422479358,133.67573674401794 370.12747465298867,132.40440634340533 M569.202397034098,130.67767617169028 C516.3469322035215,132.64476809369202 463.5165474948264,133.37081858030308 371.06271379800637,129.1405635000559 M372.4681697385934,128.7634227495775 C369.7211315010835,110.19051588612864 371.3131406854103,84.98427113526772 372.21124642593077,70.30410071907775 M371.00493637685565,131.37244259609426 C371.35868075773504,106.44960657744352 370.08280072523155,84.97582424122733 371.3312414308499,68.65877185998171" stroke="#1e293b" stroke-width="1.5" fill="none" stroke-linecap="round" stroke-linejoin="round"/><text x="470" y="100" font-size="18" fill="#1e293b" text-anchor="middle" dominant-baseline="middle">Proxy</text><path d="M700,70 L840,70 L840,130 L700,130 Z" fill="#eff6ff" /><path d="M700.1512061729508,71.05389274653969 C743.6257918675427,74.02168067793221 784.7338713052515,73.54875063311121 837.7715900233342,67.57272394384923 M699.9643527142498,68.86793076872999 C739.735796389052,71.32690415521432 781.9964486686403,70.29862890946929 839.2764654178419,69.88556280786577 M838.1048529697782,68.95765810106963 C840.3265863856736,86.20670606958673 839.1391310359744,102.52995817092491 842.0403601661532,132.5927392904061 M839.924664033751,69.77993311146173 C839.2485877774554,83.03680484650341 838.9294428933389,97.72228792077446 839.3583370753086,130.37659607673558 M839.3468365602953,132.67947489650732 C787.7135243245035,129.8460227078195 730.913699340741,127.2935108089799 702.3341265323608,128.86560617245624 M840.389843950829,128.6295505889395 C797.7171295684168,128.49050258414098 752.5559641490637,128.77074831903775 699.8622423731242,129.01405318694503 M699.3872972386222,127.74702598444246 C699.4150208127456,114.02511470506798 698.0424954061957,97.4695392941685 702.0658576240343,71.45219212938949 M699.4392702014941,129.27692526422555 C701.4398559216204,117.17704536368998 699.9487542746126,104.5362859059989 699.5687874943595,70.2295343238331" stroke="#1e293b" stroke-width="1.5" fill="none" stroke-linecap="round" stroke-linejoin="round"/><text x="770" y="92" font-size="15" fill="#1e293b" text-anchor="middle" dominant-baseline="middle">api.</text><text x="770" y="112" font-size="15" fill="#1e293b" text-anchor="middle" dominant-baseline="middle">anthropic.com</text><path d="M241.91349257438475,102.30037998156176 C291.76091509051105,100.50495309742456 340.34315211655866,97.08725653406839 367.6984833416396,100.83171151687952 M238.88701379194754,98.70677378193326 C267.11890252565684,97.71889835894827 294.6214282592778,98.54854537680653 369.5098784239962,100.68747747581929" stroke="#1e293b" stroke-width="1.4" fill="none" stroke-linecap="round" /><path d="M370,100 L360.9955289764732,104.3496553411123 M370,100 L360.9955289764732,95.6503446588877" stroke="#1e293b" stroke-width="1.4" fill="none" stroke-linecap="round"/><text x="305" y="85" font-size="14" fill="#475569" text-anchor="middle" dominant-baseline="middle">x-api-key: sk-ant-…</text><path d="M570.8713282005205,98.16741560960602 C604.6953426115717,98.74872172657727 636.8612097246644,101.2506321167708 702.5731597807986,102.12245466112145 M569.4291248752628,100.0879728150409 C613.2132602212379,98.76454979440408 655.938758290936,98.30395179840153 699.1534210600189,101.12638317284045" stroke="#1e293b" stroke-width="1.4" fill="none" stroke-linecap="round" /><path d="M700,100 L690.9955289764732,104.3496553411123 M700,100 L690.9955289764732,95.6503446588877" stroke="#1e293b" stroke-width="1.4" fill="none" stroke-linecap="round"/><text x="635" y="85" font-size="14" fill="#475569" text-anchor="middle" dominant-baseline="middle">unchanged</text><path d="M80,250 L240,250 L240,310 L80,310 Z" fill="#eff6ff" /><path d="M78.41508533723197,250.16620326473455 C124.3666866893624,249.4244739482304 168.42469407111903,251.771930570966 237.23227603335792,248.8356519422993 M80.77483062189988,250.715569818556 C118.60314779521944,253.26837243595082 154.63074220610503,250.69167229185155 239.55639081284528,249.19372466364848 M237.3593457223237,248.35421410010932 C238.99519858504934,272.9744251499039 237.24131477549065,295.94361130938233 241.69228808972858,310.8799367875395 M241.1532538494481,249.03921679118326 C238.1110143537843,262.6632333524303 239.52796441560125,275.66214210083797 241.23683497301377,308.8170638375318 M242.33579392878846,310.38428427330757 C181.31201980313745,313.6710931980138 116.47751698137867,310.937684871074 81.58314283512958,308.64553497974106 M239.13843350015875,309.03650898535983 C189.89844892718148,312.3869540926943 139.16281255432506,313.20735548717556 81.15351298988313,311.30634825015386 M80.58883326539237,310.6672059127168 C79.70180181309868,288.2690416382703 82.35055850709007,270.62571036806975 81.37550233350592,250.1511332543416 M81.14256156278772,309.099038573615 C80.63908006165964,294.9519553707482 78.8001105756522,281.12930917695496 80.35543265147493,250.59235448487186" stroke="#1e293b" stroke-width="1.5" fill="none" stroke-linecap="round" stroke-linejoin="round"/><text x="160" y="280" font-size="18" fill="#1e293b" text-anchor="middle" dominant-baseline="middle">Client</text><path d="M370,250 L570,250 L570,310 L370,310 Z" fill="#eff6ff" /><path d="M368.4843978610024,249.97980251072292 C419.75676220529726,250.9522285058653 473.3326898606307,248.1912785183686 572.030382646185,251.15685055405393 M370.8690028052943,249.3281010360487 C416.17588780563716,249.95964642209233 460.77670040577397,249.0407297014816 570.8822488693748,249.81290287900367 M569.2221312368957,248.48054657348754 C569.8290974706032,264.4794070629669 570.8856707000281,280.6268670361385 568.1765597416228,312.5813510949123 M568.7362727062159,250.8895512380907 C572.2635881424517,265.4579145731909 570.2295580820605,281.19487100096654 570.5335285227711,311.2423792646171 M572.3046572718478,310.19362023002947 C493.366173804293,307.3881815439253 413.1814196953687,307.21926447164196 370.4669470086639,307.72669332165935 M570.579863959077,309.08239763482845 C507.63729178478036,311.1797739009532 444.6656993932015,312.2559855122791 370.6874930566145,310.95933442930215 M370.36309800466444,309.6113128360331 C369.93120683595413,287.9472936109146 371.54555861331437,262.46055811334304 368.9383614868879,252.66547555643575 M371.34965653962,311.21964113969005 C369.3267893698754,295.57385003859287 369.9653366437198,278.1674958932885 369.63724736714903,250.91326379831648" stroke="#1e293b" stroke-width="1.5" fill="none" stroke-linecap="round" stroke-linejoin="round"/><text x="470" y="280" font-size="18" fill="#1e293b" text-anchor="middle" dominant-baseline="middle">Proxy</text><path d="M700,250 L840,250 L840,310 L700,310 Z" fill="#eff6ff" /><path d="M701.8047097339788,247.3409038424016 C729.6530190548065,249.6247807048817 759.2925224585346,251.0900082564653 841.6242886311544,249.53643152199302 M698.6735861690722,249.35790983647126 C751.2244877656321,248.6418558764863 801.7162165113149,249.8246680814625 839.5831420003105,250.1305872646336 M840.8402132035516,247.41709908096874 C837.1510362940957,263.918160753253 842.2473910125301,272.9057920243635 841.6118981985653,309.9651692294012 M839.498098781626,250.92849634789212 C841.6664692600372,266.97488034283083 840.5741315151201,281.55709026087914 840.5953715883132,311.351971176082 M841.1503185368431,308.91357611378163 C811.062016148276,308.3598938460352 778.5709214755077,310.4198545701198 702.2994622434326,307.70027555569123 M840.185914369567,310.33841720050896 C805.9792053914671,310.76503806653824 772.2943064757764,310.1357749232576 700.836923979763,309.3746458156406 M702.6607834994787,312.20881355691944 C698.3020370351435,296.61494149281253 702.3918911037676,282.28228995595543 699.7227521474864,249.27303243650763 M699.9820081229715,310.3112245006904 C699.3242445415407,290.4520742470281 701.6239840379338,273.0148509981832 699.1369557084058,248.94335885531103" stroke="#1e293b" stroke-width="1.5" fill="none" stroke-linecap="round" stroke-linejoin="round"/><text x="770" y="272" font-size="15" fill="#1e293b" text-anchor="middle" dominant-baseline="middle">api.</text><text x="770" y="292" font-size="15" fill="#1e293b" text-anchor="middle" dominant-baseline="middle">anthropic.com</text><path d="M400,320 L540,320 L540,355 L400,355 Z" fill="#fefce8" /><path d="M399.78122333868805,321.0709088787968 C444.92158197364176,321.07207185696603 490.3599697777461,323.03169889258237 541.962543912999,317.8507187864803 M399.30615654717616,319.8790292361332 C455.06650957047395,319.4381391009348 510.47820479910337,319.18479769999226 539.3136632142807,320.1558460081697 M538.4267013962211,322.04485724712583 C538.5407755688894,329.13836231367 540.5429097658237,339.4486966674586 538.5302769471981,353.536214097748 M540.6221017030963,320.38725619839215 C540.8727879603006,329.8965132544041 539.1378820615802,342.49156843332787 540.9821807104591,355.7213125083727 M538.7263878709389,353.95972614333397 C503.8709669244555,354.2433109133133 474.39119790959364,352.1687784971091 397.3595990049391,352.78342530064174 M541.0230130696732,354.87533395491465 C502.43368073010976,357.0473053388643 463.2155406699101,354.71549015014693 400.0716858110815,353.96804535369847 M398.0600150951659,353.42013018578956 C402.6600112657042,349.6029547629721 398.8354405483003,337.9980987434109 397.8340281934205,320.8412007537417 M400.8025112346688,353.893654193676 C401.2738850524327,348.75615211902 399.13810156406356,340.868053674822 399.76706316401703,320.7740617227207" stroke="#1e293b" stroke-width="1.5" fill="none" stroke-linecap="round" stroke-linejoin="round"/><text x="470" y="337" font-size="13" fill="#1e293b" text-anchor="middle" dominant-baseline="middle">macOS Keychain</text><path d="M240.83623290656513,280.3974740473258 C289.989654563257,281.3528579524015 343.7589511401563,282.1677994356959 369.6055217850515,280.9761332431377 M240.57129417706875,280.3491309617901 C278.31839053098054,278.0817455587596 317.04951932522283,278.31772293028735 369.2306554621723,280.282067642503" stroke="#1e293b" stroke-width="1.4" fill="none" stroke-linecap="round" /><path d="M370,280 L360.9955289764732,284.3496553411123 M370,280 L360.9955289764732,275.6503446588877" stroke="#1e293b" stroke-width="1.4" fill="none" stroke-linecap="round"/><text x="305" y="265" font-size="14" fill="#475569" text-anchor="middle" dominant-baseline="middle">sk-ant-…</text><path d="M567.472530143945,282.27017925701654 C618.6285198864174,279.7332989431326 664.4066684708425,278.65593887034584 699.1297970469402,281.3101320034104 M569.6535898080465,279.7126933477693 C610.50372645967,280.06205330965537 648.7018081594478,280.9165438231773 698.8774182191974,280.3279745427458" stroke="#1e293b" stroke-width="1.4" fill="none" stroke-linecap="round" /><path d="M700,280 L690.9955289764732,284.3496553411123 M700,280 L690.9955289764732,275.6503446588877" stroke="#1e293b" stroke-width="1.4" fill="none" stroke-linecap="round"/><text x="635" y="265" font-size="14" fill="#475569" text-anchor="middle" dominant-baseline="middle">oauth-…</text><path d="M469.628779340445,319.0174488226337 C469.68747570082735,317.89304985968846 470.5242053014498,316.11209591277276 469.05312568171735,308.76704584072627 M469.95738072845245,319.6506018572859 C470.26122446588886,316.53676229494533 470.3779357888832,312.9680224006008 470.3189795597246,309.7890195536563" stroke="#1e293b" stroke-width="1.4" fill="none" stroke-linecap="round" stroke-dasharray="6,5"/><path d="M470,310 L474.3496553411123,319.0044710235268 M470,310 L465.6503446588877,319.0044710235268" stroke="#1e293b" stroke-width="1.4" fill="none" stroke-linecap="round"/></svg>