<svg xmlns="http://www.w3.org/2000/svg" viewBox="0 0 900 380" font-family="'Caveat', 'Kalam', 'Comic Sans MS', cursive"><rect width="900" height="380" fill="#fdfdfb"/><path d="M30,20 L870,20 L870,160 L30,160 Z" fill="#f8fafc" /><path d="M31.00843894449602,19.107814391880463 C292.78396438748615,17.18806870066437 554.1493924891017,18.415320966360433 870.2500884583853,20.54510386708243 M29.795813729701187,19.837368648110346 C334.83841813129817,18.450100791384994 640.2741381010259,19.084874840645032 869.9720543753863,20.20231237950936 M870.8425832178317,20.02369599413853 C869.0461506302445,59.19371635187256 869.1629101886019,94.01164178967716 871.7351683167282,158.89033275640122 M869.8077208237163,19.521881968745333 C869.7876007694615,64.00207403600926 868.6196845839277,106.9433140122398 870.2864883580182,159.1865176393873 M871.0127423767186,159.99750499906634 C603.4847724723821,158.0177916682919 337.6371518177219,157.279068839872 29.128086232214567,159.08416402581042 M869.7832028415132,159.87717126200502 C675.5635865850365,156.03875895688716 481.78291617243417,156.34737764454746 30.3538449569739,159.60316987207196 M29.956820953028224,160.18911763653784 C29.569554335972352,128.19769956028864 29.138546401892977,96.54468035269215 32.34028961130244,17.755592578932763 M29.784288919356875,161.24829227985146 C31.349830112754073,121.24144794275583 31.341030227623413,84.51141510711011 28.71306939028136,20.754641676686813" stroke="#1e293b" stroke-width="1.4" fill="none" stroke-linecap="round" stroke-linejoin="round"/><text x="90" y="42" font-size="16" fill="#1e293b" text-anchor="middle" dominant-baseline="middle">Default</text><path d="M30,200 L870,200 L870,360 L30,360 Z" fill="#f8fafc" /><path d="M30.716610556074045,200.32415471060824 C284.3000755527113,200.36276740016865 535.8840021371086,200.51391244779953 870.7534616413178,200.64878154229865 M30.35589336511025,199.99697641776856 C352.9883237076345,202.25201372288575 676.1403119044272,202.3190656297145 869.7296275097717,199.55915995939512 M869.9380789344501,200.2065667270017 C871.0252542080818,255.79892753734367 872.3822503800548,315.2290567545617 868.6878322678168,357.4033619721409 M869.2107087816622,198.8849079866037 C868.2375583859265,248.117275680444 870.0578244046712,297.5660076704454 869.0381646892812,359.8209929478265 M869.4397032774635,359.7942716459014 C643.0840060974126,363.5890578289166 417.2626745952765,363.9988560101697 30.629023370764063,360.7853569584516 M869.7928107173473,360.40846950434076 C542.04083624985,363.29630355648544 214.02913726641398,362.6525390541104 29.593448313518955,359.92096764364055 M28.663562380235668,358.55640548112945 C34.52021405831742,306.62081845484397 31.9446079873132,252.87227499895693 29.782052688057796,198.6191287375412 M30.700859256304984,360.8812089345065 C28.808864960908,314.33355365027273 27.879126210461603,270.2966094184887 31.154680978649417,200.94424255694176" stroke="#1e293b" stroke-width="1.4" fill="none" stroke-linecap="round" stroke-linejoin="round"/><text x="130" y="222" font-size="16" fill="#1e293b" text-anchor="middle" dominant-baseline="middle">--oauth-bridge</text><path d="M80,70 L240,70 L240,130 L80,130 Z" fill="#eff6ff" /><path d="M81.14791336055279,71.70040061635554 C122.96147998572587,67.30732550519765 168.00749214659743,68.8453423256823 239.87968509195102,72.13854334656332 M81.16508152209502,70.45442539459174 C136.68168260032198,68.25550140052337 190.11652155045823,68.29577554835666 240.27473851096462,69.53052934039282 M237.73756404975836,71.72263804148619 C243.08601227928028,92.25278016442715 242.93073937833628,109.73498097376361 241.6435019786196,127.77233513580468 M238.72255064376515,69.11002525817686 C240.81401188104815,82.95367773084115 239.2209239436155,96.77928086565733 239.34352814211027,129.34011872736534 M241.33559557460148,130.94418065387524 C192.7132574605328,126.13347403174652 147.59742502002302,128.45130966732395 78.35357050964254,128.30361650141518 M239.46059122033122,129.13775878858777 C183.32616407009445,133.0716868734379 126.24358934614581,132.76133083355236 79.32326843815329,129.85134569879173 M80.94769455425508,131.7993589887383 C79.09295641099766,114.3376852077278 80.9477105802312,91.16705784353941 77.52170796910791,67.63299868001656 M80.86394384007241,129.84760558155642 C81.23531431496846,108.72726358405542 81.40282458654906,85.417945564905 80.9234863666083,69.87756728905845" stroke="#1e293b" stroke-width="1.4" fill="none" stroke-linecap="round" stroke-linejoin="round"/><text x="160" y="100" font-size="17" fill="#1e293b" text-anchor="middle" dominant-baseline="middle">Client</text><path d="M370,70 L570,70 L570,130 L370,130 Z" fill="#eff6ff" /><path d="M368.9854126290734,70.76220049030927 C426.320503419846,69.49749503220784 486.1203359976871,70.60141386310438 570.9180444352918,70.71029310017603 M369.0073870621885,70.00415343645358 C442.63812428612846,70.38467552872186 514.355151231809,70.04563938707702 570.6330348941945,69.6316382041865 M572.1212663468525,68.97442907694933 C570.906351607867,91.02764341209037 572.6120056012321,108.24782321906159 568.1191550685733,130.37941068880355 M569.1056660797866,69.13893740879955 C569.7924264911957,86.66516139766405 569.2549172278846,105.26412645240366 570.6897834603325,130.90845816918565 M569.8874451002987,131.36349324617368 C510.24846421514684,130.03628891189715 449.93840089171704,131.03485322066211 370.33480536777193,129.64276072693454 M570.0270283714646,129.8154346012481 C512.1186030688615,127.09091052078554 452.59819765637604,128.57877598326192 369.7172626612475,130.82009052065663 M368.13811469551854,129.95921350037563 C371.8937507412046,118.53089227823553 372.17042544878245,107.3442521314367 369.046266074624,71.04996012414757 M369.18071412114574,129.344635531797 C370.904608425755,112.59085680450056 370.7266283967461,93.23725189138116 369.8820116101191,69.67585440950528" stroke="#1e293b" stroke-width="1.4" fill="none" stroke-linecap="round" stroke-linejoin="round"/><text x="470" y="100" font-size="17" fill="#1e293b" text-anchor="middle" dominant-baseline="middle">Proxy</text><path d="M700,70 L840,70 L840,130 L700,130 Z" fill="#eff6ff" /><path d="M701.0996307026361,68.26455052119347 C738.5993288545042,69.32498117673315 780.2166244124129,70.83644769516249 840.9797132205546,69.67751276916461 M699.9556844211255,69.71566150159438 C728.8177230313573,68.08110304510028 759.0472993236598,67.69482190440495 839.2253032628226,71.12205168815719 M842.4461278686251,68.96887233892865 C839.6285264703462,83.00721964348264 837.8964845847753,95.92548291622036 838.1271631780272,127.75150053181514 M840.8224626902837,69.5386422102982 C839.3800175833504,84.17316433261057 838.4396081351977,100.82195495885749 840.8800706955035,130.7805086847038 M841.2837382750948,128.99709978363921 C802.8877291776485,127.5965114662967 769.447119734273,130.9763417591621 699.676067272099,132.11015939093173 M840.4478130235726,130.09057317875852 C797.5299221220595,129.36965960382014 755.7918385716063,127.92137270762919 699.7141659712452,130.40303202155434 M700.8561290888752,130.84721501524152 C697.623089870978,117.90845948122785 700.1514735234932,103.43696185409918 698.3628258294968,68.32410598704139 M699.5150297624633,129.38998947248976 C699.9536357213601,117.16157538213588 701.043714580913,103.9587132038393 699.7007180578064,69.91071148292377" stroke="#1e293b" stroke-width="1.4" fill="none" stroke-linecap="round" stroke-linejoin="round"/><text x="770" y="91.95" font-size="14" fill="#1e293b" text-anchor="middle" dominant-baseline="middle">api.</text><text x="770" y="108.05" font-size="14" fill="#1e293b" text-anchor="middle" dominant-baseline="middle">anthropic.com</text><path d="M239.14003950658693,98.34155948901055 C275.49662355212376,99.791573974919 307.1106090599702,100.93948564873429 370.3354578880783,100.50787541323353 M240.5624213552948,101.04813888186467 C280.9265151958802,99.80776549195282 318.83581305139364,100.28685284944578 369.81874947870745,98.99439264389763" stroke="#1e293b" stroke-width="1.3" fill="none" stroke-linecap="round" /><path d="M370,100 L360.9955289764732,104.3496553411123 M370,100 L360.9955289764732,95.6503446588877" stroke="#1e293b" stroke-width="1.3" fill="none" stroke-linecap="round"/><text x="305" y="85" font-size="14" fill="#475569" text-anchor="middle" dominant-baseline="middle">x-api-key: sk-ant-…</text><path d="M568.2870747790007,97.85341948956182 C597.5828538715728,100.59741819291527 624.7720234515367,100.24283487569738 698.953975764526,101.32967129448379 M569.8173476141045,99.51938745862063 C609.7637546232244,100.7126153091628 649.6262400865903,101.5101607878974 700.4315231920394,100.13175010056615" stroke="#1e293b" stroke-width="1.3" fill="none" stroke-linecap="round" /><path d="M700,100 L690.9955289764732,104.3496553411123 M700,100 L690.9955289764732,95.6503446588877" stroke="#1e293b" stroke-width="1.3" fill="none" stroke-linecap="round"/><text x="635" y="85" font-size="14" fill="#475569" text-anchor="middle" dominant-baseline="middle">unchanged</text><path d="M80,250 L240,250 L240,310 L80,310 Z" fill="#eff6ff" /><path d="M80.30096747222181,251.48477199905724 C139.0028121583474,249.3345973470864 200.38041057904036,250.78338009325626 239.95869194876732,250.329249077792 M81.21356510552877,249.62967549666163 C132.20943143472525,251.23652827734873 184.14362199469218,251.9414961495405 240.7964452574499,249.5331454778875 M242.00234023207966,250.83568653400408 C240.6954298754687,266.7139546801404 239.23120265433417,286.54929765042255 240.05888497574344,308.8632648448912 M238.71743542156545,249.76123589442327 C239.95324494079992,267.57557634588386 241.08946836299356,286.5781171846158 241.18421190648087,310.74513628332164 M239.46950129997043,308.9779346650596 C182.67988050152576,311.314642407279 118.83272429559203,309.2077060562653 77.9044133302256,311.7207924018684 M240.38769989007503,311.18047083204164 C199.24482229574218,311.6814210810128 159.2857114157867,310.3718775732574 80.46359529366225,309.1745740036357 M80.9718011791754,311.9580546814704 C82.42901699834664,289.86872320514397 78.30230873795134,268.0439572627204 82.23524390474616,252.19068429757536 M81.24976628614075,311.2002182038837 C81.32010288831901,294.995327639854 81.47506930102904,278.90062203978334 81.27461810188443,249.97972459341415" stroke="#1e293b" stroke-width="1.4" fill="none" stroke-linecap="round" stroke-linejoin="round"/><text x="160" y="280" font-size="17" fill="#1e293b" text-anchor="middle" dominant-baseline="middle">Client</text><path d="M370,250 L570,250 L570,310 L370,310 Z" fill="#eff6ff" /><path d="M368.2464645831893,249.54073931829285 C417.6320825078918,249.68823707278142 461.19692876520253,251.2485236726247 568.1783912261293,247.95715698955945 M369.2569824211405,249.6304367299572 C428.50939774251196,247.2204020875215 486.8770584229843,247.86695361010902 569.3056755887493,250.9025334504454 M570.8518902836418,251.08858815391744 C569.9555606518103,265.6550909375879 571.0993553686374,285.05584692342893 570.1236631737953,311.38208049485144 M570.9902228421882,248.80095556539905 C568.537502046823,265.1791656248049 569.1726042472746,279.6500878663031 570.3683799413743,310.67339000101106 M570.6043790952789,311.2525550429622 C505.6097692486873,313.33545101794545 442.91972691949906,313.8739797743132 369.3294139181017,310.74050712538417 M570.8455048832787,310.2922472480818 C511.69764135511053,308.8248465758881 452.3177774223768,309.7677050819606 370.7114381923847,310.8193082310922 M371.4413116292933,307.8243194727437 C369.72765476091536,295.1730823326301 371.706802113159,279.4610920705905 370.8997008907771,250.40232155349577 M370.74915579142674,308.96842815196186 C370.0921603056071,287.2819387879638 371.2583239688086,266.54875092846856 371.29746246244383,249.5291121833348" stroke="#1e293b" stroke-width="1.4" fill="none" stroke-linecap="round" stroke-linejoin="round"/><text x="470" y="280" font-size="17" fill="#1e293b" text-anchor="middle" dominant-baseline="middle">Proxy</text><path d="M700,250 L840,250 L840,310 L700,310 Z" fill="#eff6ff" /><path d="M700.2608957586141,248.26126360164938 C746.4330065176124,248.8541757541825 786.5288309821922,250.77314615096935 842.2703430603093,252.01859909842028 M700.0848409084263,250.13125759370993 C736.0012582421925,247.86362868513532 774.6147857814619,249.53992529184583 840.6787456939699,251.29490013581596 M837.6351484668694,251.15312581990975 C841.4262498615706,267.17081976436424 841.2732491979248,285.56899258660815 842.3547745274881,308.8746858645637 M840.7596265121788,249.30961477875545 C840.2077065413507,266.79834140001964 838.8822989362458,280.5602335889004 839.9782206053208,308.72961404607537 M838.6204160107075,308.85759140687367 C803.5948706678796,305.85906082237886 766.5351226952503,305.9459609737552 699.6028369278337,310.7525857912757 M839.7616970086149,310.3628885028676 C793.4935738249479,309.39294124590543 744.8739067494229,309.01300878070157 700.6131115610663,311.2929031371801 M701.7532151946411,310.71835385918257 C701.4212258775739,297.96472082699046 700.1760198518359,280.8781039413717 700.966761639199,247.96061988800477 M699.7669759545466,309.6346275007069 C699.3491866787003,298.4481478727687 699.2663839892169,285.3763591813326 700.8224401932107,251.24697332268144" stroke="#1e293b" stroke-width="1.4" fill="none" stroke-linecap="round" stroke-linejoin="round"/><text x="770" y="271.95" font-size="14" fill="#1e293b" text-anchor="middle" dominant-baseline="middle">api.</text><text x="770" y="288.05" font-size="14" fill="#1e293b" text-anchor="middle" dominant-baseline="middle">anthropic.com</text><path d="M400,330 L540,330 L540,360 L400,360 Z" fill="#fefce8" /><path d="M400.5702186420229,329.2610742498823 C431.71328349744186,332.09210177585055 462.14591580650244,329.0554147785622 537.8325883553138,330.09326945115356 M399.5403910166572,329.1378055379857 C442.3983684267863,331.7909894196828 486.48033894810413,331.61395950731566 540.3999395269876,329.36645387913717 M542.2106270981767,330.8064416169452 C538.2774107276198,335.9628940714001 541.8480755132714,346.92750197401597 539.3457955284912,360.5396847761712 M541.0503587265538,328.89786646353156 C539.1599536515815,334.94648659617314 540.3104067862186,342.32773403523424 540.677006717349,358.8992010048303 M542.3360187563993,358.3182158622248 C487.1756476874189,359.84299723704595 432.77633788277836,360.79054210220943 401.2845949983236,358.8672921312417 M539.7759541344564,358.85679207698286 C492.99651908685047,359.0432259441433 443.7741943934294,359.75655158949826 399.7593003500877,359.84403967919457 M402.1588396865698,357.64374116708075 C400.0242426933387,354.1948402070012 402.11346620222776,343.60198290673804 398.7399968194529,330.58727774557 M400.21262561974976,360.71111660938647 C401.0361827311591,351.21014064194424 401.20713594177687,340.51056880743647 399.19405656975937,331.05498669635136" stroke="#1e293b" stroke-width="1.4" fill="none" stroke-linecap="round" stroke-linejoin="round"/><text x="470" y="345" font-size="13" fill="#1e293b" text-anchor="middle" dominant-baseline="middle">macOS Keychain</text><path d="M238.05425077984142,279.8826080028005 C270.5398619207871,276.2165047770267 300.395128330368,277.6435050859591 368.15492663862,281.9297254536621 M240.35187099332302,280.32825404622855 C289.3414532458925,280.8425379115438 338.03871553450824,282.3844313400081 369.1592345700614,280.6713421874791" stroke="#1e293b" stroke-width="1.3" fill="none" stroke-linecap="round" /><path d="M370,280 L360.9955289764732,284.3496553411123 M370,280 L360.9955289764732,275.6503446588877" stroke="#1e293b" stroke-width="1.3" fill="none" stroke-linecap="round"/><text x="305" y="265" font-size="14" fill="#475569" text-anchor="middle" dominant-baseline="middle">sk-ant-…</text><path d="M571.8739337498483,279.6703429035329 C597.4597279835451,279.27435584489285 624.761743776358,276.29674583814847 700.0501373999919,280.36813360077673 M569.7592112925676,279.7269172656585 C609.0228684788979,278.6052241766397 649.3081452354818,278.50313932900707 698.9977264334041,280.87706570299724" stroke="#1e293b" stroke-width="1.3" fill="none" stroke-linecap="round" /><path d="M700,280 L690.9955289764732,284.3496553411123 M700,280 L690.9955289764732,275.6503446588877" stroke="#1e293b" stroke-width="1.3" fill="none" stroke-linecap="round"/><text x="635" y="265" font-size="14" fill="#475569" text-anchor="middle" dominant-baseline="middle">oauth-…</text><path d="M470.51094875691683,330.3180673484782 C468.1328216862385,326.7592623840697 469.26013080132185,323.32322153014206 470.7768302037722,314.3994227515716 M469.3388895563415,329.8956791560251 C469.99013071064275,326.6043458248113 470.2152259444606,321.82626035455525 470.4665829002035,315.2979019976874" stroke="#1e293b" stroke-width="1.3" fill="none" stroke-linecap="round" stroke-dasharray="6,5"/><path d="M470,315 L474.3496553411123,324.0044710235268 M470,315 L465.6503446588877,324.0044710235268" stroke="#1e293b" stroke-width="1.3" fill="none" stroke-linecap="round"/></svg>