<svg xmlns="http://www.w3.org/2000/svg" viewBox="0 0 1100 1800" font-family="'Caveat', 'Kalam', 'Comic Sans MS', cursive"><rect width="1100" height="1800" fill="#fdfdfb"/><path d="M370,30 L730,30 L730,80 L370,80 Z" fill="#eff6ff" /><path d="M370.89266456399923,29.192865998649044 C456.7456216970977,28.09573882576137 541.4942389592768,28.24678695087695 729.3928228410408,29.441071445190666 M369.4907615160367,30.52503138265463 C476.55520408140137,27.744313631118672 582.5253400942752,27.71199295968648 729.9933985522451,30.141324150584126 M729.1932494804438,31.649638133326068 C728.044810098668,50.753470240813726 731.4528788141299,69.69029071899814 729.9780462320797,79.2881120444496 M730.6549438637348,29.732593136720546 C728.8474705511005,41.32775171898443 728.7226274890156,52.25659664459112 729.7627309479573,79.044315775509 M729.2100519087503,78.9959437651397 C616.4436393648751,82.12920019003624 499.6298995556544,79.30311545080777 370.241758972721,79.95540715197752 M730.6738149290228,80.24974048065087 C624.6224053699663,82.1408678369861 518.322626071602,82.59052732929517 369.42884702710165,79.68106695584578 M368.1049048344358,81.78286390132297 C370.015268155669,69.86076516173353 367.5824661020712,56.87792038280678 368.6401822474438,27.62770199453388 M370.0845626442249,79.0990338395035 C369.49599636805806,65.88179713092386 370.78848196498524,50.51900549189598 370.32801742533616,30.283194840068386" stroke="#1e293b" stroke-width="1.4" fill="none" stroke-linecap="round" stroke-linejoin="round"/><text x="550" y="55" font-size="17" fill="#1e293b" text-anchor="middle" dominant-baseline="middle">Client: POST /v1/messages</text><path d="M550,120 L680,160 L550,200 L420,160 Z" fill="#f8fafc" /><path d="M551.0030063772465,118.66343558884576 C585.6232811156548,133.67379176455756 617.1567805457827,144.8748842285359 679.8832942231033,161.3948455637899 M549.8694807376729,120.63978675736404 C577.5128238136724,126.63585990987262 603.6370226281382,136.0608730509595 680.2563513207915,160.56687167655636 M681.2420972960069,160.3586091208533 C629.6494181913143,174.05923711646065 581.846307851245,190.34807724216438 551.9287590585341,201.89389509799156 M681.1737383657843,159.43063309116516 C638.3044928109395,170.71545108414077 595.2418577921392,186.16325492234895 550.3230817657078,200.8223685357035 M548.6154755945544,200.051592739183 C506.8299970838522,186.7628268050322 468.86349145840774,172.59690869467278 419.55077540653826,159.48195440939153 M550.0399634831871,200.88544955570288 C516.3002714270724,191.12566612410882 480.99087768488016,179.82782213763997 419.3378173098449,159.75706302882443 M419.24173774605754,158.35570080438947 C459.8504414998373,149.30145123279524 500.31061540940556,132.52569992246436 549.7130137725335,122.2180679379715 M421.0742091272895,161.2283985626091 C462.9422041704541,147.3909117031456 506.9164919020655,134.3904397110352 549.1247056256618,120.03440839292546" stroke="#1e293b" stroke-width="1.4" fill="none" stroke-linecap="round" stroke-linejoin="round"/><text x="550" y="151.375" font-size="15" fill="#1e293b" text-anchor="middle" dominant-baseline="middle">anthropic-version</text><text x="550" y="168.625" font-size="15" fill="#1e293b" text-anchor="middle" dominant-baseline="middle">header present?</text><path d="M820,135 L980,135 L980,185 L820,185 Z" fill="#fef2f2" /><path d="M820.5818456278387,136.13133657114653 C853.7777106628198,134.15125004392667 884.0756360229284,138.05832740930958 979.0765560886884,135.66879538575853 M819.0401546286967,135.18760187183483 C854.1502080193413,133.40499141273003 887.9236931562768,133.70274537873843 979.1970369556394,136.08619601702054 M981.8281580520264,133.33042898908636 C980.4494942205306,145.82443733221436 978.0776260449849,153.9283582126786 977.6736078137073,183.816633226085 M980.8370607891327,135.78167733817583 C978.7453522625922,150.05149411406163 979.5318261761117,165.00433464087152 980.1537711130154,184.70738737178036 M977.9392867569067,184.10511035735232 C921.257696746875,187.94060152988774 865.6994392975824,186.8583892806787 819.4368872655526,184.79387146296702 M980.4280477613319,184.5085422668896 C935.2567774630598,182.82431486596286 890.918696567358,183.10201461011488 818.9990843393366,185.53842958499726 M820.5592736382862,183.83424908206942 C819.3674025686464,170.8679045847818 817.9214721989107,150.9504433746005 821.1265292078243,136.58005901047102 M818.7134959842218,185.88579000498666 C819.091077607809,175.83038154896116 819.016243785119,163.43991664406823 819.8492687200122,134.85384896185658" stroke="#1e293b" stroke-width="1.4" fill="none" stroke-linecap="round" stroke-linejoin="round"/><text x="900" y="160" font-size="16" fill="#1e293b" text-anchor="middle" dominant-baseline="middle">400 — reject</text><path d="M550,240 L680,280 L550,320 L420,280 Z" fill="#f8fafc" /><path d="M551.0917320536303,239.80442783296803 C597.4781544258916,252.49493830136004 646.1297638329099,267.6237164377101 677.9097816736497,278.7477606420694 M550.866376310399,239.78478257655325 C577.49586978252,248.98958489501038 602.8901535373229,256.1223651130935 679.9458758696409,281.0901427363693 M681.5565792104768,279.2501755851947 C648.3631638644393,287.50721291379523 619.8290808300516,296.25335117299926 549.5182495977707,320.0259137015719 M679.8447807571196,278.7877051536871 C645.2889746080515,291.87201444813564 610.88145405914,300.34698928303715 549.2844623533159,319.9537381512845 M550.9808501538198,322.44976727817334 C521.5100308265569,310.4399428367203 488.3372660778632,299.66928062629626 421.5431360309696,281.06264368076864 M550.4634422504496,319.847405207264 C522.6400093858539,313.0997605457771 494.2485862022007,304.42452885544236 420.4781584925507,280.3140642021206 M422.575258283195,278.4502983227809 C465.21426403630755,267.93375945201427 512.1281420451184,256.0926042669416 550.9228622570408,241.2683955846973 M419.52886056955566,279.2663633955729 C464.4857184282806,266.6607985822853 507.733575157697,251.55256297933826 549.7507473005758,238.729423735767" stroke="#1e293b" stroke-width="1.4" fill="none" stroke-linecap="round" stroke-linejoin="round"/><text x="550" y="280" font-size="15" fill="#1e293b" text-anchor="middle" dominant-baseline="middle">path starts with /v1/?</text><path d="M820,255 L980,255 L980,305 L820,305 Z" fill="#fef2f2" /><path d="M820.5476947823913,256.5071035681166 C870.9053042312368,257.3393178772188 923.8287568416051,253.68976749211518 980.5710981443585,252.94086846567944 M819.0642831982868,256.0853427313733 C855.5667088360067,255.65996472598917 893.6792709203515,255.32215489464767 980.3951936290323,254.57851289236925 M978.8906060827384,257.09886281738034 C982.7516566107702,266.98953944529666 982.2789300198891,283.81991104327983 982.027883270041,304.9259204489887 M979.6376392121745,254.8625502642075 C978.3219247285232,271.07405471968747 980.6543395367682,287.159760814389 979.8890697163669,304.32547326599126 M979.2825494412681,306.59952437255834 C921.9561948519452,304.1802061863744 859.9515582008527,304.8257487543284 819.8953068145507,307.4250576474227 M979.9556825067428,306.0566552876395 C917.0599514392812,303.5286392583659 854.216387600977,304.42546094187 819.7289382559895,304.04302254661224 M819.6810879254133,303.6469396946745 C820.6943407191839,285.3661351647366 818.3709843612829,271.92466403351455 820.8215549454274,257.43807384980073 M820.0872656374044,305.5171013673173 C821.3478024613158,287.5951555757103 821.5852999954502,271.754678570843 819.9125576330607,255.30427573353293" stroke="#1e293b" stroke-width="1.4" fill="none" stroke-linecap="round" stroke-linejoin="round"/><text x="900" y="280" font-size="15" fill="#1e293b" text-anchor="middle" dominant-baseline="middle">403 — forbidden</text><path d="M550,360 L680,400 L550,440 L420,400 Z" fill="#f8fafc" /><path d="M548.4925269431193,359.4849017799539 C589.7304119416834,372.01250732170826 628.8998286984838,384.0636895535735 678.3479677098582,401.89024363763144 M550.8773165102833,359.68582278832713 C577.7990813229344,369.1796087579523 607.0716547685404,378.0086982827182 678.7648910899677,400.77926273111115 M679.2007404617954,399.55936326211395 C648.2214834899388,410.7508871389029 623.7960849968426,417.0969873505662 551.0427583894572,440.0686744031707 M679.7076463402146,400.5899922332133 C642.5554592298188,411.7771184095446 607.288305402246,422.03380003514127 550.8009267110227,438.98999632117915 M550.1637144913708,441.3172180315547 C525.4726671367104,430.9806724722755 498.9080508631828,424.5059433779386 419.0606314274993,399.5199386559846 M551.0488508275589,439.53607177478926 C517.7914957975241,427.62352826554684 484.9015218632291,417.6106516117944 420.5961910593759,400.7446065169821 M421.8685177827398,400.2232536432431 C469.20686226832726,385.42850836549445 526.0586418102037,366.8864521414735 547.6669765205528,357.71057649221063 M420.87750615587044,400.3972652614067 C461.18059274694286,384.84187526333005 504.8143078735985,373.15364493928286 550.3396792851347,359.0177720332272" stroke="#1e293b" stroke-width="1.4" fill="none" stroke-linecap="round" stroke-linejoin="round"/><text x="550" y="391.375" font-size="15" fill="#1e293b" text-anchor="middle" dominant-baseline="middle">/v1/messages</text><text x="550" y="408.625" font-size="15" fill="#1e293b" text-anchor="middle" dominant-baseline="middle">or count_tokens?</text><path d="M100,375 L260,375 L260,425 L100,425 Z" fill="#f1f5f9" /><path d="M100.78694602733643,376.39815560189436 C160.2884511047613,374.79595528863706 220.23138396709714,376.34584569952847 258.41747375336405,376.53255997191025 M99.32506642878657,374.1072733688226 C147.96096397144674,374.1298548662989 195.63058205240802,374.01935677719695 259.3866064498048,376.14658416258794 M262.46667503257123,376.30980674482487 C258.7941782294192,393.75327183258077 260.07914014133894,411.56950009399105 260.26062706291543,427.08163979365406 M260.3312344138991,374.1028311585856 C259.882510212244,388.3310425644638 260.1222489826447,401.3605793398401 259.60218756180905,426.2437465265594 M260.82987012964463,423.5126110967502 C220.2073517058339,427.7381688256893 182.31542670291418,426.24667315042143 98.99537583541026,423.41820680674175 M259.99762798593673,424.10677626099135 C206.0728839825943,425.74385500226947 149.9323692068697,426.58544855775665 99.75672040805837,424.27540757712825 M98.99006183721468,422.8727383580822 C101.99764267162696,403.7072456434885 99.96866901999954,386.7544076473835 100.9995647550427,372.83123698181095 M99.09499016748092,426.1150400605745 C100.94550311973761,411.1875874615634 101.06781375140699,394.0257492062642 101.157653590118,374.45334178304626" stroke="#1e293b" stroke-width="1.4" fill="none" stroke-linecap="round" stroke-linejoin="round"/><text x="180" y="400" font-size="16" fill="#475569" text-anchor="middle" dominant-baseline="middle">passthrough</text><path d="M550,480 L680,520 L550,560 L420,520 Z" fill="#f8fafc" /><path d="M548.8493185767546,478.9037772631402 C590.2996797975926,493.10122038365404 631.6321510641325,503.6749173494015 679.7668313485367,519.0133443210768 M549.6306784903876,480.514895797754 C576.8871583777711,489.28119110569565 603.4122329892972,497.14931082274137 680.457665214534,520.1923535037947 M677.429785702747,519.0245152361533 C651.9229874845353,532.6112531747392 619.563229433442,539.8240242577125 548.1860364660877,561.1308071390006 M680.424591589257,520.3848541915257 C641.0462760472544,533.6401355986628 603.5907608512651,544.4602057142151 551.1467728843337,560.7455233511204 M547.4117703511725,561.1117611965465 C503.40040365331555,548.247442803031 450.50982721494654,531.1073787095177 421.3991260121755,518.2995610939677 M550.0936036506273,559.9204447427649 C508.85396676660184,545.8636047606528 467.4112857655891,533.1905885299097 418.8038503001661,520.5843331168692 M417.7680580089909,517.8928652550105 C455.69631479586536,506.86773310974627 496.2777684609574,500.17942340722 551.4181858305261,481.50425067953336 M419.65796383742895,520.9642879065448 C456.2015450277407,509.65027142069255 494.09979521091356,499.4075574059934 550.5576663202597,478.9891312332297" stroke="#1e293b" stroke-width="1.4" fill="none" stroke-linecap="round" stroke-linejoin="round"/><text x="550" y="520" font-size="15" fill="#1e293b" text-anchor="middle" dominant-baseline="middle">proxy paused?</text><path d="M100,495 L260,495 L260,545 L100,545 Z" fill="#f1f5f9" /><path d="M100.98258639208994,494.18630005337184 C157.55392554841978,495.5787093468468 213.87176450003892,492.07950506421975 257.7605772622923,492.96363283618496 M100.8060886712162,494.79292756524393 C155.80374030462852,494.4286725583243 213.10637782308504,493.8053725619674 258.90796777015566,495.2139860138821 M257.80345466390827,494.8019454772732 C261.17217149794345,507.2973296113446 260.56992772749743,513.4399572255903 257.41998312484105,542.5421577667584 M259.15571093343743,493.7597052446523 C260.55649587238736,508.93000657576664 260.8528132493425,523.1244668716353 261.11706002312854,544.5498392913917 M262.52037807380964,544.2212402604019 C202.0229216048524,545.399440192724 143.84248060738796,541.7147404747424 101.66274800165456,545.8293326900234 M260.97148170129867,544.4834960482458 C201.30803589772302,545.5177191396918 143.6703088940133,545.04214539247 100.45166855250453,545.84419575096 M97.63635205998808,545.0058376460797 C101.64108233758017,524.8517582064015 98.02167575955325,511.697552757014 102.11909871773834,493.72660334307955 M100.75937646290483,543.9992579959853 C99.76517474579742,532.3120059702944 99.49481660246865,520.066081215603 100.74382220176227,496.0736045319562" stroke="#1e293b" stroke-width="1.4" fill="none" stroke-linecap="round" stroke-linejoin="round"/><text x="180" y="520" font-size="16" fill="#475569" text-anchor="middle" dominant-baseline="middle">passthrough</text><path d="M550,600 L680,640 L550,680 L420,640 Z" fill="#f8fafc" /><path d="M549.0987176919954,597.402037508766 C582.8064111397385,607.7911786326677 616.9298212841766,618.8249470218939 680.9030562623835,641.3826796606368 M549.5839839017583,601.066188194967 C592.6538467409766,612.9203352770368 637.880164651563,624.7658050837925 679.7471211281285,640.0286007033882 M681.2168392101347,640.990608326809 C653.6806711417677,645.7231465863243 627.8753650967888,656.5616933250461 549.1529878251159,679.8049673321335 M680.5242252686458,638.8122949494094 C637.7877477920242,654.7874787008426 594.8048015487982,667.9220938842551 550.5421096248809,680.9449130479109 M547.5295407028665,677.6183520808866 C509.67669239905484,667.9097107111837 472.44263233758517,654.1629375367529 417.7205212858275,639.4216753346732 M551.0591208207863,681.1514220750545 C509.3036768982158,667.3023019345295 469.4386349769013,653.3313873405087 420.83327519339866,638.8108276470643 M419.73455897565157,638.0082235664801 C448.1310990877148,629.8267195192175 481.2965282710725,618.3702502759147 548.6314911995811,598.6693101086429 M419.11827066100244,638.9020771861817 C461.78746993554745,627.5050106824998 501.66722476804455,615.9868772547384 551.2026779185878,599.3896742181025" stroke="#1e293b" stroke-width="1.4" fill="none" stroke-linecap="round" stroke-linejoin="round"/><text x="550" y="631.375" font-size="15" fill="#1e293b" text-anchor="middle" dominant-baseline="middle">thinking-state</text><text x="550" y="648.625" font-size="15" fill="#1e293b" text-anchor="middle" dominant-baseline="middle">in request?</text><path d="M100,615 L260,615 L260,665 L100,665 Z" fill="#f1f5f9" /><path d="M100.05966736530993,613.068902201712 C157.95992665059993,615.1743152128031 216.46103304286353,617.6573062280038 260.3922257310595,614.8637220718601 M100.70479172221495,616.1814419388863 C156.49555814349714,615.0919758759021 212.78089657608012,615.872147143839 259.7372765418557,615.4380909249228 M258.5599399232316,613.2833276121418 C258.4319316638215,628.3347955375037 260.946191578048,644.7530814024672 259.9387602476981,667.0935365261385 M259.1736027974643,614.4448322430657 C259.4118101080655,633.8480291363962 260.9553285046259,652.2834044205073 259.3522500752799,663.7134761215941 M262.17953493599714,666.696044028797 C207.51395635204992,667.9183737109812 150.05283266703228,665.7756350058729 97.97208029015246,666.6765018798502 M260.0515883566816,665.7063213385243 C223.83149361646815,664.578996812289 185.9283821833829,663.7110441166872 100.8024192806448,664.123364369361 M97.88729979885042,663.0964879986925 C100.64243677657521,648.949265532718 99.37392699230514,632.768553879219 100.8247316449386,613.7874736502538 M99.96919252175856,665.7752032664489 C100.692665466319,647.1331354478726 98.66980357158891,629.0320443469639 100.612318831465,615.1139861177242" stroke="#1e293b" stroke-width="1.4" fill="none" stroke-linecap="round" stroke-linejoin="round"/><text x="180" y="640" font-size="16" fill="#475569" text-anchor="middle" dominant-baseline="middle">passthrough</text><path d="M550,720 L680,760 L550,800 L420,760 Z" fill="#f8fafc" /><path d="M551.4024067563754,720.149829727357 C589.8778871247873,733.2000633592929 629.8336517629224,745.0763985572306 677.7446322315651,760.2019676035285 M550.2310762878592,719.5966072124028 C578.836962078182,727.408671799288 606.8069931028268,735.9422885484296 680.4398840946882,760.2610095969274 M679.2567986451145,757.7000063292546 C650.649411341211,764.9391168346693 625.0548032632557,773.1500339369197 550.9105630809704,800.740584938429 M679.7684951296379,758.94206447287 C636.9850963753571,772.9389990447942 595.3376855236418,785.0863658474626 550.7432822878394,799.1888339795245 M552.4478786965824,798.8758885840509 C498.23168452654176,786.2169829082933 445.8874330637248,771.2945437687447 419.1407683226994,758.5827392829203 M549.3400029305714,799.0223607483587 C516.0959946499437,790.540620481949 483.1148159379025,779.4631348057045 420.14847104350673,759.3425113386908 M421.26721373478193,760.8561829770097 C472.3412723947881,745.8556267985895 520.558816579058,729.8384070765097 550.6561031722642,720.3056175083333 M420.0448911143737,760.360451988971 C466.8037675907555,743.9221861723668 510.74714896631707,730.8620084996767 549.4726447778897,720.5528301057499" stroke="#1e293b" stroke-width="1.4" fill="none" stroke-linecap="round" stroke-linejoin="round"/><text x="550" y="751.375" font-size="15" fill="#1e293b" text-anchor="middle" dominant-baseline="middle">token +</text><text x="550" y="768.625" font-size="15" fill="#1e293b" text-anchor="middle" dominant-baseline="middle">server reachable?</text><path d="M100,735 L260,735 L260,785 L100,785 Z" fill="#f1f5f9" /><path d="M102.289261714215,733.402121475853 C133.88310760954744,734.3335185718283 168.22457815938685,734.2943593854061 258.0535620927703,733.1697318831995 M99.45049681579383,735.8447197297028 C160.39230797032528,732.8940922519827 219.14842880212814,733.2525079115889 260.49091048461617,735.9244887580868 M261.0497620315096,734.8970935202539 C259.61713799695053,747.8431124088114 261.85804336218484,764.8879314083817 261.77346100980986,782.5185044723332 M259.29465942679855,734.2132120421005 C260.9848863478615,755.8315605311359 260.1167009735212,774.4779095435306 259.3882097783472,784.8048686808502 M261.067010608309,782.7715023996598 C206.98929686610063,785.2677639276325 152.0074688425525,783.8201611723906 100.79131077507212,784.4382434585204 M260.3989357915843,785.8790777959551 C209.8580137793359,786.9729715836326 162.34815684655518,786.163415677791 98.95726915218563,784.8514422155025 M102.28118506380005,785.500082232819 C98.22566506995099,762.9985571158971 101.85772051288143,744.0422619880086 100.18948218543126,736.4753343994375 M99.05357661777045,783.7694127823764 C100.95567686186267,766.0206801127173 100.60422775490906,743.8854760095127 99.96554373146188,733.9161400123954" stroke="#1e293b" stroke-width="1.4" fill="none" stroke-linecap="round" stroke-linejoin="round"/><text x="180" y="760" font-size="16" fill="#475569" text-anchor="middle" dominant-baseline="middle">passthrough</text><path d="M370,860 L730,860 L730,916 L370,916 Z" fill="#eff6ff" /><path d="M369.99564558515914,860.0318779169369 C472.5616200519631,862.0230248018914 575.9134036226454,860.5187361352024 729.5476557602849,859.0676286214601 M370.3802181699452,860.4141805606305 C470.46304849787384,860.7240717773395 569.0537556879217,861.321121072866 730.3392711145307,859.493726879817 M731.7756930157458,859.0472684979487 C729.7572016571155,881.6241432700865 730.4691586120581,902.1686053617656 728.1097729070145,914.697426144706 M730.0837921417179,860.8441400410446 C730.0465598490496,874.5350928723402 730.6991821970996,887.6066395536606 730.2843829678918,916.6251985484623 M728.7396406104068,916.0454471648051 C605.416772393818,917.0027406576122 480.8440014871695,917.1981121557906 369.709640056814,914.7089215680195 M729.4817724378343,916.2208820469733 C601.9930527060302,914.3727868110026 473.6114412588834,913.940701436714 369.968932649524,916.6667958655133 M371.0181439077402,916.4887642769468 C372.70278851697265,902.3853736371501 370.41145971730435,894.0078035079516 372.3787957902591,858.5108051306448 M370.9569065616427,915.340251966669 C370.75610742278604,898.9450821445533 370.2407760750419,880.491937837177 370.4734349981664,859.1471884688029" stroke="#1e293b" stroke-width="1.4" fill="none" stroke-linecap="round" stroke-linejoin="round"/><text x="550" y="879.375" font-size="15" fill="#1e293b" text-anchor="middle" dominant-baseline="middle">POST /api/cli/proxy/prepare</text><text x="550" y="896.625" font-size="15" fill="#1e293b" text-anchor="middle" dominant-baseline="middle">800ms budget</text><path d="M550,950 L680,990 L550,1030 L420,990 Z" fill="#f8fafc" /><path d="M552.3082157245163,952.140520815079 C588.9414123218048,962.8645466145738 626.4874714427918,973.5319836065661 677.8109735458398,991.8825664401327 M548.8575689891887,949.1588670588832 C602.3392155190306,965.72466089965 652.663282391432,982.8265356479019 679.8919451964024,989.1752149880675 M681.230497886303,992.2396540608937 C646.1855729723904,1001.1196810495193 616.1093364192345,1010.0609834159839 550.9186177092522,1028.7322783845093 M679.2173545597744,990.0521683542114 C650.7663577919733,999.112858934835 622.135091537899,1009.4443890928126 550.2834057201859,1029.3060511248866 M550.2671515930308,1030.0129888464635 C520.4929714482784,1019.3865403879693 492.2092774819633,1011.6569286258542 419.59268661204726,991.1902969413429 M549.4797541410288,1029.7299995505743 C505.67318149339684,1017.5440651392992 462.5912285298756,1004.4746411263078 419.56346079130736,991.0213136679004 M419.6650730233354,989.2965790724878 C451.70895627372073,982.0557537508623 482.22344715872663,969.6338125001377 552.394937189155,947.7122406634579 M420.6925121189694,990.0688967647997 C467.7474513869641,974.0026738451392 517.2393685713848,958.0549044584632 549.841367929183,950.8308043659251" stroke="#1e293b" stroke-width="1.4" fill="none" stroke-linecap="round" stroke-linejoin="round"/><text x="550" y="981.375" font-size="15" fill="#1e293b" text-anchor="middle" dominant-baseline="middle">server responded</text><text x="550" y="998.625" font-size="15" fill="#1e293b" text-anchor="middle" dominant-baseline="middle">in time?</text><path d="M100,965 L260,965 L260,1015 L100,1015 Z" fill="#f1f5f9" /><path d="M98.29470111359188,964.3713870382129 C139.9606253475049,965.9837099982295 185.14844027821582,964.4158394709126 258.8534141652898,965.1295423506131 M99.15189221705651,964.4953652855384 C136.68603873291323,965.4293743169022 174.98194764473448,963.7789617506244 258.87754621421186,964.6021228469062 M258.83268716512447,967.1680092873106 C261.4769251806526,980.0045902797691 260.9379213781789,995.8319821260335 258.09288260781665,1015.6827157283784 M260.6188345475755,964.3207394620408 C259.91756893055987,975.2973873818079 260.8053722886128,984.2896916027152 260.5124748067641,1016.0518678170499 M258.3371702059541,1015.9170069192293 C226.20173094591013,1016.4441735106103 193.68623619442278,1016.5898491480671 101.27865823889692,1017.1197463197412 M259.0990465056023,1014.7956312684247 C206.25406895948257,1015.5629895984633 151.06570318499308,1014.7137459426266 100.85624061864495,1016.1566686113085 M99.65113985122707,1015.9191889379516 C102.26547861873354,1001.835105902844 101.27200308720589,984.5013398946853 98.33792877163489,967.4363140452575 M99.69996693892087,1014.3873408239356 C100.46175502080007,1005.013271943213 99.78237250235763,993.7211621374587 100.71391300622291,964.5156738213958" stroke="#1e293b" stroke-width="1.4" fill="none" stroke-linecap="round" stroke-linejoin="round"/><text x="180" y="990" font-size="16" fill="#475569" text-anchor="middle" dominant-baseline="middle">passthrough</text><path d="M370,1090 L730,1090 L730,1146 L370,1146 Z" fill="#eff6ff" /><path d="M370.0382275439582,1090.2067907870414 C471.1477375396819,1091.096266607036 572.2046565829161,1093.3145705892998 730.2609928600568,1089.085540213449 M370.1822346328212,1089.4407342269426 C451.40497663511275,1089.2006078473446 534.8614272772539,1088.5596967515285 730.5706152765384,1089.711780379897 M730.091097492283,1088.5262449258114 C730.7798081911711,1104.6759255478873 727.8013876670092,1113.7463010078766 728.5471395620647,1146.6876091475413 M729.7121128989052,1088.751808836621 C730.2916971637306,1105.2618362326464 729.7380370363873,1119.3601715891286 729.2041846282826,1144.7507543458357 M730.4257235442407,1145.5273372061993 C612.797325240146,1143.9396013240996 498.127827889549,1144.0454884553228 368.7201095273038,1145.0999167972236 M729.7541882264079,1146.2658357670632 C641.9453398431982,1148.115875775064 553.3088986731076,1147.6813303036204 369.17962811687494,1145.9193372144346 M369.5403265473004,1147.9999421686543 C372.3859081755286,1126.808312140996 369.50949117674156,1107.854476647346 371.0363664893946,1091.4540704670749 M370.1466302739434,1147.1735869714535 C371.37582681163735,1132.7170152110054 369.3300437285996,1117.0116608880683 368.83082815178074,1090.8306170627945" stroke="#1e293b" stroke-width="1.4" fill="none" stroke-linecap="round" stroke-linejoin="round"/><text x="550" y="1109.375" font-size="15" fill="#1e293b" text-anchor="middle" dominant-baseline="middle">trim messages</text><text x="550" y="1126.625" font-size="15" fill="#1e293b" text-anchor="middle" dominant-baseline="middle">+ append system_fragment</text><path d="M370,1200 L730,1200 L730,1250 L370,1250 Z" fill="#eff6ff" /><path d="M369.23610369679807,1199.6309640531854 C458.11303315368525,1200.245504686071 546.5602462744921,1198.7123244369336 728.5976884797207,1199.1937063881833 M369.24063069072076,1200.6228035033355 C485.54400928980766,1201.2905056736488 601.1835119725899,1202.4068561682577 730.3645283760534,1199.650788525472 M728.9713648290476,1201.0760785433285 C730.9865574435096,1210.7351917269718 731.3144236513065,1228.0433231044683 730.8893214875806,1250.5555598935312 M729.1010753411923,1200.8736634116071 C731.0718231419995,1210.4673360860706 730.7508473517369,1220.9268710179854 729.1061154907827,1250.745665007521 M728.8440336199685,1251.436080451272 C605.3307337526151,1252.0799455479278 479.51443403488616,1251.0368763848346 369.7221129247783,1251.481976796144 M729.6462115985381,1249.2829945623896 C651.7395125999267,1250.6534760486973 573.666649373917,1250.3643240156598 369.84906489235306,1249.9092589198453 M367.4653116695065,1249.0737534191464 C368.43675684929116,1237.316185796521 368.36866364330945,1221.0626790423748 369.4129663123589,1199.4822628002862 M369.32411807581957,1249.3075304305114 C369.3131799129825,1239.6096303527945 369.80447068669815,1226.0327712766475 368.9743766548083,1200.8445518687322" stroke="#1e293b" stroke-width="1.4" fill="none" stroke-linecap="round" stroke-linejoin="round"/><text x="550" y="1225" font-size="16" fill="#1e293b" text-anchor="middle" dominant-baseline="middle">forward to api.anthropic.com</text><path d="M370,1300 L730,1300 L730,1356 L370,1356 Z" fill="#eff6ff" /><path d="M368.59197417757395,1301.2642561104064 C491.8850681421571,1299.9189407919278 617.3715164644964,1299.7060627643664 730.2920023899167,1299.5517732547132 M369.73033428625416,1299.24065147944 C511.2888670217455,1301.7082084202102 652.6848970695751,1301.6624748448107 729.2016033974319,1299.4574102517677 M730.7119947145336,1301.9222010859492 C731.1293246832662,1319.0135206893417 732.0645853001132,1339.913278188284 728.1623345189486,1354.5810537049317 M729.70224404034,1298.7256155971884 C730.0950507881232,1315.5819893939138 728.5432237857458,1329.912144344755 729.9144376021214,1355.135304963743 M730.0798440201427,1356.248872154865 C609.7647454267058,1358.0468665888832 488.6292700998638,1357.463673955403 370.19879333651596,1355.0309844054002 M730.3495190466762,1356.6099506141038 C648.8612218784941,1353.1473793532637 566.8934526418844,1353.8311631915697 370.03962411143135,1355.3617143042272 M372.49785925152923,1358.233381683072 C372.2293087352659,1336.3743386614492 372.7686021972658,1315.515745159737 367.8958948314728,1299.1074057897933 M370.66307918876487,1356.1317787745515 C369.96613264791455,1335.2554946624264 369.45003093994944,1315.294497371888 370.49134014859624,1300.1665971890452" stroke="#1e293b" stroke-width="1.4" fill="none" stroke-linecap="round" stroke-linejoin="round"/><text x="550" y="1319.375" font-size="15" fill="#1e293b" text-anchor="middle" dominant-baseline="middle">patch input_tokens</text><text x="550" y="1336.625" font-size="15" fill="#1e293b" text-anchor="middle" dominant-baseline="middle">in SSE message_start</text><path d="M370,1430 L730,1430 L730,1480 L370,1480 Z" fill="#eff6ff" /><path d="M370.00911369159087,1429.4210717998158 C478.7374882012035,1431.250645528684 586.8705096504947,1432.2100941685185 729.3520735065408,1430.74735596342 M369.4721671288325,1430.5457622249435 C447.5972767753631,1428.6352986085649 524.6663880255519,1429.4135720789975 730.3820517015255,1430.5121199449168 M731.5892344375337,1427.4085814888765 C730.4808270647492,1442.9742819148935 728.8077755775948,1457.367456098939 732.5383791757695,1481.1218795300103 M729.2770761300101,1429.1548979043473 C729.8824459677421,1443.1200877634542 731.280989447611,1458.0378352987614 731.1759004854792,1480.1006427967257 M730.1577734957967,1478.3977756514714 C605.2735096599853,1482.172648746324 477.4379687937085,1482.1905668429192 371.62537383945744,1481.3630291872628 M729.7864593825983,1479.6758407025513 C635.2784498267464,1478.0532544679222 538.7587923005093,1476.8099429134124 370.78298851778425,1479.548356219124 M369.3255761786894,1480.3745512989738 C371.97414567718084,1460.0104069410825 371.1645195141846,1441.5210409639 369.3118874487201,1428.8174790666922 M370.4332010462343,1480.5366413744127 C369.91990965572495,1464.3349992296382 371.81385587450984,1447.9524979538662 370.42540462563795,1429.9999614850785" stroke="#1e293b" stroke-width="1.4" fill="none" stroke-linecap="round" stroke-linejoin="round"/><text x="550" y="1455" font-size="16" fill="#1e293b" text-anchor="middle" dominant-baseline="middle">stream response to client</text><path d="M100,1200 L260,1200 L260,1256 L100,1256 Z" fill="#f1f5f9" /><path d="M100.39838294125262,1201.7421257261174 C149.22680713765473,1201.08297870642 196.43480155606875,1197.6172754132945 261.5899649356583,1197.646286276043 M99.7146353154961,1199.4579113832713 C155.12996665847118,1198.5137024590815 211.47787174604423,1197.725783124083 259.5577759123591,1200.158493323448 M260.8699092108912,1199.859264115755 C260.1613560159311,1217.614232572084 263.03402239900066,1238.4474053773909 257.43309686559854,1257.6619258243707 M261.2105663497545,1199.7043884156967 C258.9766958293419,1217.8695700721921 260.7500461162338,1233.876372540498 260.848520141602,1255.2029076764072 M261.9569713683737,1258.1330177129655 C204.33767387223415,1251.857682733184 156.08490481757676,1255.5390618629212 98.17294558657998,1258.2379275884732 M259.5422413958221,1256.045634539772 C220.76386311110286,1255.0980487958684 182.54301157452838,1254.7938064011792 100.05362066426386,1255.7018023789615 M99.32188304747808,1257.6002552454765 C100.45155644096248,1238.7607985788393 102.13327485731463,1222.6449788377456 102.00448413745833,1201.4892824560209 M99.16805888612386,1255.5360931353484 C100.65632025396215,1241.169753877147 99.78140682722677,1225.5388696986947 100.18532333687028,1199.4247153969195" stroke="#1e293b" stroke-width="1.4" fill="none" stroke-linecap="round" stroke-linejoin="round"/><text x="180" y="1219.95" font-size="14" fill="#475569" text-anchor="middle" dominant-baseline="middle">forward to</text><text x="180" y="1236.05" font-size="14" fill="#475569" text-anchor="middle" dominant-baseline="middle">api.anthropic.com</text><path d="M550.5713143826014,78.88628943477738 C551.8000730068642,89.38435461904346 549.9138021142451,98.12226449344563 551.8543953057759,118.99378649318272 M549.655055018764,80.52661896589765 C550.0474810956574,96.59939019295688 550.432327166417,112.42511416466425 549.9615584413073,119.81838510339149" stroke="#1e293b" stroke-width="1.3" fill="none" stroke-linecap="round" /><path d="M550,120 L545.6503446588877,110.99552897647322 M550,120 L554.3496553411123,110.99552897647322" stroke="#1e293b" stroke-width="1.3" fill="none" stroke-linecap="round"/><path d="M677.7056474269173,162.13545071095933 C707.7894474803267,160.9769495249763 738.4064472673479,159.4052163305053 821.491596193285,160.32610628472963 M680.835853378571,159.64238774919778 C713.2966484435715,160.74373003052267 744.6865363957647,161.06818620129823 819.2257474477527,160.13485030812672" stroke="#1e293b" stroke-width="1.3" fill="none" stroke-linecap="round" /><path d="M820,160 L810.9955289764732,164.3496553411123 M820,160 L810.9955289764732,155.6503446588877" stroke="#1e293b" stroke-width="1.3" fill="none" stroke-linecap="round"/><text x="750" y="150" font-size="14" fill="#475569" text-anchor="middle" dominant-baseline="middle">no</text><path d="M548.1181343923308,200.66441852398043 C550.5938093621882,207.17026005413368 550.6195591703093,215.70766528113546 552.3963868051975,238.47503926716107 M550.5644118754964,199.10659427696552 C550.9100516050659,212.3755879173658 549.6058102071511,225.44985260214452 548.8145826249562,240.64041454850147" stroke="#1e293b" stroke-width="1.3" fill="none" stroke-linecap="round" /><path d="M550,240 L545.6503446588877,230.99552897647322 M550,240 L554.3496553411123,230.99552897647322" stroke="#1e293b" stroke-width="1.3" fill="none" stroke-linecap="round"/><text x="520" y="220" font-size="14" fill="#475569" text-anchor="middle" dominant-baseline="middle">yes</text><path d="M681.6229911740579,281.5743965941446 C725.3248988929721,281.9083336917453 768.6142945322972,281.82954078415366 822.1721452989805,280.11721134134336 M680.1669358875401,279.5285916891042 C728.4948202436245,281.34273020629314 776.6838481849783,279.9180949308436 820.6138646774399,280.98731196136424" stroke="#1e293b" stroke-width="1.3" fill="none" stroke-linecap="round" /><path d="M820,280 L810.9955289764732,284.3496553411123 M820,280 L810.9955289764732,275.6503446588877" stroke="#1e293b" stroke-width="1.3" fill="none" stroke-linecap="round"/><text x="750" y="270" font-size="14" fill="#475569" text-anchor="middle" dominant-baseline="middle">no</text><path d="M550.1737929271043,320.5454456575437 C549.4778150420593,334.22936850504595 549.9145588867958,352.2624794611523 551.7401767689917,358.9118926028385 M550.2863139742251,319.93121205631564 C550.3166989281661,330.97919753700944 549.0749056334096,340.81234005944304 549.1892417140878,359.5710607023545" stroke="#1e293b" stroke-width="1.3" fill="none" stroke-linecap="round" /><path d="M550,360 L545.6503446588877,350.9955289764732 M550,360 L554.3496553411123,350.9955289764732" stroke="#1e293b" stroke-width="1.3" fill="none" stroke-linecap="round"/><text x="520" y="340" font-size="14" fill="#475569" text-anchor="middle" dominant-baseline="middle">yes</text><path d="M419.2155662761384,399.4777041431218 C364.10945545869134,403.84089580350906 310.16115786741784,400.1677291119856 261.01810636457424,402.1696598728834 M419.6682063449739,399.4632030660272 C378.865052108297,400.71844066862474 336.0523189790237,400.95888510381764 259.8842885604179,399.5738101173231" stroke="#1e293b" stroke-width="1.3" fill="none" stroke-linecap="round" /><path d="M260,400 L269.0044710235268,395.6503446588877 M260,400 L269.0044710235268,404.3496553411123" stroke="#1e293b" stroke-width="1.3" fill="none" stroke-linecap="round"/><text x="340" y="390" font-size="14" fill="#475569" text-anchor="middle" dominant-baseline="middle">no</text><path d="M549.9516020243747,441.83522526897355 C548.3893719877012,449.7887230653543 549.3143049730612,458.8667217250066 549.2567516925232,480.556551141848 M548.8825889332593,439.05792310303235 C550.1796724831535,450.1585817168062 550.8799770539962,456.982111865858 551.1361211221453,479.1239338287746" stroke="#1e293b" stroke-width="1.3" fill="none" stroke-linecap="round" /><path d="M550,480 L545.6503446588877,470.9955289764732 M550,480 L554.3496553411123,470.9955289764732" stroke="#1e293b" stroke-width="1.3" fill="none" stroke-linecap="round"/><text x="520" y="460" font-size="14" fill="#475569" text-anchor="middle" dominant-baseline="middle">yes</text><path d="M420.1203480978153,521.3922063916239 C377.42986545577907,519.7770845976987 337.83941365131443,520.796235139606 258.5299466397606,518.9675567577705 M420.60754689039635,518.8370300377151 C378.0687189391182,520.0446420609915 334.5892461648101,521.573818862358 259.48372442412983,520.0419881496105" stroke="#1e293b" stroke-width="1.3" fill="none" stroke-linecap="round" /><path d="M260,520 L269.0044710235268,515.6503446588877 M260,520 L269.0044710235268,524.3496553411123" stroke="#1e293b" stroke-width="1.3" fill="none" stroke-linecap="round"/><text x="340" y="510" font-size="14" fill="#475569" text-anchor="middle" dominant-baseline="middle">yes</text><path d="M551.3433686940037,560.4547032188618 C549.7712948618969,569.763760780166 548.113124340677,579.4830201167249 551.3972799326183,599.0780346843162 M550.2980913047421,560.3843272113021 C549.5884034397467,568.7306423987288 549.9927166065906,577.6000773719352 550.4357210575664,599.942619412518" stroke="#1e293b" stroke-width="1.3" fill="none" stroke-linecap="round" /><path d="M550,600 L545.6503446588877,590.9955289764732 M550,600 L554.3496553411123,590.9955289764732" stroke="#1e293b" stroke-width="1.3" fill="none" stroke-linecap="round"/><text x="520" y="580" font-size="14" fill="#475569" text-anchor="middle" dominant-baseline="middle">no</text><path d="M420.7024057365872,639.1621353925814 C358.4266213886423,642.5099085746846 302.1885483824102,639.2603037078019 259.8811387507441,637.6932837616326 M420.21617860365205,639.8224086288138 C367.93519118162214,640.1747223791676 315.58376967706715,641.1665106057086 260.10066243220984,641.1291264624414" stroke="#1e293b" stroke-width="1.3" fill="none" stroke-linecap="round" /><path d="M260,640 L269.0044710235268,635.6503446588877 M260,640 L269.0044710235268,644.3496553411123" stroke="#1e293b" stroke-width="1.3" fill="none" stroke-linecap="round"/><text x="340" y="630" font-size="14" fill="#475569" text-anchor="middle" dominant-baseline="middle">yes</text><path d="M550.4506471310002,680.469415476738 C551.4400063688787,689.442620272551 547.9064039530837,697.631503665531 550.7825318100089,719.3800651057715 M549.2396040752582,680.0487272983928 C549.4910081430249,691.0274288791667 550.5861727670377,703.5131180935773 550.6178346972683,719.0064952110848" stroke="#1e293b" stroke-width="1.3" fill="none" stroke-linecap="round" /><path d="M550,720 L545.6503446588877,710.9955289764732 M550,720 L554.3496553411123,710.9955289764732" stroke="#1e293b" stroke-width="1.3" fill="none" stroke-linecap="round"/><text x="520" y="700" font-size="14" fill="#475569" text-anchor="middle" dominant-baseline="middle">no</text><path d="M419.2589957007722,759.899596203128 C379.76890984442576,760.7089968632548 334.767230097996,758.7455327276253 259.3451238903752,758.972329790178 M418.822156440107,759.451132485501 C373.7042296030973,760.451345121384 327.02052559707266,759.7706402200222 260.02921689324893,759.2513869463177" stroke="#1e293b" stroke-width="1.3" fill="none" stroke-linecap="round" /><path d="M260,760 L269.0044710235268,755.6503446588877 M260,760 L269.0044710235268,764.3496553411123" stroke="#1e293b" stroke-width="1.3" fill="none" stroke-linecap="round"/><text x="340" y="750" font-size="14" fill="#475569" text-anchor="middle" dominant-baseline="middle">no</text><path d="M549.5926021547211,799.1190792866445 C547.8149214553987,814.134249132559 550.8834449291472,831.1671063444098 548.8108860640392,861.1802565620507 M549.3546983325135,800.3456989955946 C549.6307147982656,823.7662293613513 549.660131445368,845.1502889680058 551.0847268370899,860.1276571917798" stroke="#1e293b" stroke-width="1.3" fill="none" stroke-linecap="round" /><path d="M550,860 L545.6503446588877,850.9955289764732 M550,860 L554.3496553411123,850.9955289764732" stroke="#1e293b" stroke-width="1.3" fill="none" stroke-linecap="round"/><text x="520" y="830" font-size="14" fill="#475569" text-anchor="middle" dominant-baseline="middle">yes</text><path d="M552.3451941724397,918.3352764997293 C551.2858890270873,922.5298165582193 549.0101877178324,934.8254299435592 548.0896289634863,950.4956793260943 M549.4496441011873,915.3502575875378 C550.3122683566119,926.4803327849384 548.6923712305129,937.7728795654074 550.9419911111421,950.3783528789911" stroke="#1e293b" stroke-width="1.3" fill="none" stroke-linecap="round" /><path d="M550,950 L545.6503446588877,940.9955289764732 M550,950 L554.3496553411123,940.9955289764732" stroke="#1e293b" stroke-width="1.3" fill="none" stroke-linecap="round"/><path d="M422.06909415903675,991.9936449091852 C370.64986673121496,989.9381146857822 322.6573891361559,986.6739707212554 258.4047941588002,989.5115401252557 M420.7770885200228,990.6332180570788 C375.7070874696492,989.53619221699 329.98677606675915,990.8839270086916 260.22578232096805,989.9203509426089" stroke="#1e293b" stroke-width="1.3" fill="none" stroke-linecap="round" /><path d="M260,990 L269.0044710235268,985.6503446588877 M260,990 L269.0044710235268,994.3496553411123" stroke="#1e293b" stroke-width="1.3" fill="none" stroke-linecap="round"/><text x="340" y="980" font-size="14" fill="#475569" text-anchor="middle" dominant-baseline="middle">no</text><path d="M549.9898108544661,1028.9541517737566 C551.8637432082445,1048.1173195204651 548.4592760541428,1066.9762179255654 548.671561218654,1088.210371190272 M549.1831309739908,1030.4578529054954 C550.089573884975,1047.9416259694403 549.872839016126,1067.4634961346194 550.7527331961983,1090.3277716589107" stroke="#1e293b" stroke-width="1.3" fill="none" stroke-linecap="round" /><path d="M550,1090 L545.6503446588877,1080.9955289764732 M550,1090 L554.3496553411123,1080.9955289764732" stroke="#1e293b" stroke-width="1.3" fill="none" stroke-linecap="round"/><text x="520" y="1060" font-size="14" fill="#475569" text-anchor="middle" dominant-baseline="middle">yes</text><path d="M548.3797492609505,1145.6318736720434 C550.1631168516518,1162.9531650086349 548.0011727396875,1186.2021020605841 551.9877861401136,1198.8740268412982 M549.0158448865204,1144.9017621972985 C549.9935190767012,1159.7573486682436 550.2143349219537,1173.3235954055126 550.3202400592666,1200.0495573215246" stroke="#1e293b" stroke-width="1.3" fill="none" stroke-linecap="round" /><path d="M550,1200 L545.6503446588877,1190.9955289764732 M550,1200 L554.3496553411123,1190.9955289764732" stroke="#1e293b" stroke-width="1.3" fill="none" stroke-linecap="round"/><path d="M550.015629000981,1251.7529412108738 C551.2999745284208,1268.2258312466565 552.6550947720754,1286.8812192799548 551.6839000730104,1298.6890572176906 M549.6502062545542,1249.9301199811923 C549.8605646104426,1262.765895907749 549.7438216112572,1273.8217041871017 548.8914956173388,1299.46104454999" stroke="#1e293b" stroke-width="1.3" fill="none" stroke-linecap="round" /><path d="M550,1300 L545.6503446588877,1290.9955289764732 M550,1300 L554.3496553411123,1290.9955289764732" stroke="#1e293b" stroke-width="1.3" fill="none" stroke-linecap="round"/><path d="M550.6689085667831,1356.4504625400987 C552.6658832037006,1375.434968755817 550.2259522679822,1392.6590375633455 549.5505634795467,1429.061713191891 M551.0283858902684,1355.0450326528303 C550.0453028622467,1382.8837384150575 549.2608215907688,1408.3887334591755 550.9573363076615,1430.5146717510236" stroke="#1e293b" stroke-width="1.3" fill="none" stroke-linecap="round" /><path d="M550,1430 L545.6503446588877,1420.9955289764732 M550,1430 L554.3496553411123,1420.9955289764732" stroke="#1e293b" stroke-width="1.3" fill="none" stroke-linecap="round"/><path d="M181.19803975378653,426.16281448722094 C180.18397102309848,444.94131732700254 181.38319364161646,467.9260734853709 179.57814523409274,493.65763237047986 M178.92564944622538,424.92851831915146 C181.2611853798149,439.2761417668729 180.32942400677058,454.62028078718504 180.82959303189762,493.8903696239453" stroke="#1e293b" stroke-width="1.3" fill="none" stroke-linecap="round" stroke-dasharray="6,5"/><path d="M180,495 L175.6503446588877,485.9955289764732 M180,495 L184.3496553411123,485.9955289764732" stroke="#1e293b" stroke-width="1.3" fill="none" stroke-linecap="round"/><path d="M180.0968155418584,445.8198724094409 C179.4523666268728,620.2277193907626 179.1833292738753,793.5561971291559 180.17426681978867,1200.9301108306688 M179.8461578852437,445.4022356566793 C177.7383879352135,654.0234570605924 177.53476172573204,862.6787785516628 180.30637132187275,1199.9010277542318" stroke="#1e293b" stroke-width="1.3" fill="none" stroke-linecap="round" /><path d="M179.13202510285254,564.8236960327325 C180.29771671605556,723.9478817804548 181.18761306580996,884.3105468775263 179.59930319817875,1199.7889939382821 M180.07414087597758,564.9145798708722 C178.31529442722263,717.3653699483193 178.45739897935755,869.2539363765334 179.5646205889654,1200.3391734272757" stroke="#1e293b" stroke-width="1.3" fill="none" stroke-linecap="round" /><path d="M179.72322321438114,684.6305990064279 C182.57984171417792,886.6436467785077 182.01620874121716,1086.341538242313 179.81614144196655,1200.6757040249784 M179.61615958768374,684.7521526196447 C182.50875583906665,813.8360987144554 182.49243755039313,943.8642713948525 180.2960896238991,1199.7417707097325" stroke="#1e293b" stroke-width="1.3" fill="none" stroke-linecap="round" /><path d="M179.4888711084903,803.8755335116064 C178.13141572852453,885.0409103259213 179.98035556719225,962.5987727244127 180.86496942810857,1199.6183521860855 M179.99582087282465,804.9904186304134 C177.0016854698871,923.2182250656803 177.64172062187365,1042.2734310373876 179.63062834374088,1199.763757931346" stroke="#1e293b" stroke-width="1.3" fill="none" stroke-linecap="round" /><path d="M178.5446255445278,1036.0106350839947 C180.51400964235893,1086.592715429156 182.79154633735777,1139.14240224603 178.44175964337762,1198.0938168104135 M180.28356541765706,1034.762703100343 C180.3279021978881,1084.1987002567498 180.02395199771374,1132.7313662433908 180.26451490301375,1199.5952134780368" stroke="#1e293b" stroke-width="1.3" fill="none" stroke-linecap="round" /><path d="M180,1200 C180,1200 180,1200 180,1200 M180,1200 C180,1200 180,1200 180,1200" stroke="#1e293b" stroke-width="1.3" fill="none" stroke-linecap="round" /><path d="M180,1200 L170.99552897647322,1204.3496553411123 M180,1200 L170.99552897647322,1195.6503446588877" stroke="#1e293b" stroke-width="1.3" fill="none" stroke-linecap="round"/><path d="M261.0391009306554,1226.5444461681327 C288.20407565038903,1286.8799376331074 318.0775025242161,1347.1143516704317 371.21416663122056,1455.2139393970804 M259.69693413168176,1225.2702431729658 C301.42919207989655,1312.4728445655758 343.044692392841,1399.613037772721 370.1064467678718,1455.609102857049" stroke="#1e293b" stroke-width="1.3" fill="none" stroke-linecap="round" /><path d="M370,1455 L362.19099854104707,1448.7534412502505 M370,1455 L370.0389444121224,1445.0000758336494" stroke="#1e293b" stroke-width="1.3" fill="none" stroke-linecap="round"/></svg>