<svg xmlns="http://www.w3.org/2000/svg" viewBox="0 0 1100 1800" font-family="'Caveat', 'Kalam', 'Comic Sans MS', cursive"><rect width="1100" height="1800" fill="#fbf7ef"/><path d="M370,30 L730,30 L730,80 L370,80 Z" fill="#dbeafe" /><path d="M369.8278082580445,31.031099968381426 C478.8918628303446,32.5909969497118 590.5869856192915,32.48040680699223 729.7618307334973,28.66073238680996 M369.57482765747113,30.48373336981412 C480.92016252787596,28.495539923352226 592.2453402051991,29.765037392885883 730.427584285464,29.65933549011481 M731.481981247189,28.8380392982624 C730.0254497331139,46.85552353764224 729.0175317947214,59.276470704527824 731.643766404761,81.52986652766924 M729.1748083641717,28.844937971482164 C730.8981264661423,41.2053410151334 731.2218102846192,52.00007329997931 730.9088390747321,79.52661321108448 M730.9087123566787,80.982996716241 C648.7555213726328,79.52587313240926 569.8208508293245,80.3456990322797 370.3301935957368,80.0105838855442 M729.491986934677,79.59819915587246 C619.1244419955848,78.75938921250065 507.4205829506676,78.94765784648285 369.98262373660833,80.3106639243149 M370.73518593228437,82.30119142746274 C371.208103438635,70.40780755458343 372.68470323038827,56.026040750603066 370.719046374012,30.145693815184153 M370.09237824382393,80.49653890986808 C369.4562012252582,69.05448674040467 370.81968587303015,56.30683435928996 370.0580632837201,29.574917511351423" stroke="#1e293b" stroke-width="1.4" fill="none" stroke-linecap="round" stroke-linejoin="round"/><text x="550" y="55" font-size="17" fill="#1e293b" text-anchor="middle" dominant-baseline="middle">Client: POST /v1/messages</text><path d="M550,120 L680,160 L550,200 L420,160 Z" fill="#f1f5f9" /><path d="M551.3265219791089,121.2750392856999 C587.2708320878751,129.30220054893869 626.5705308758285,141.4307539459679 682.53772749533,162.59055072299353 M550.0504091730627,119.39078905245287 C586.3750437707873,131.3159265794523 621.8507047542737,142.10296229507293 680.8125010865976,159.99539604936825 M681.8065565169984,159.419490645682 C641.3361380680883,170.87401026747062 599.1535055382124,184.59445001313128 550.2996047082652,202.03764848555505 M679.6871455933582,161.10244816050974 C652.4050092980586,168.11651738272198 623.2019794450365,176.71015581310883 550.9217105674909,199.23978600179606 M549.1099386742931,201.72318037214944 C502.2607828069945,184.09114376100737 452.15112933824315,168.20927150837576 421.69747026628437,160.2329047108895 M549.1500685380228,200.4553153116662 C512.0560293916357,187.47320918503007 474.5312037125553,174.17962266611647 419.65863701743865,159.30914886411372 M418.6587600406058,159.6951103670144 C460.45163168286876,144.98041175455282 499.56684702915305,136.52750610159708 548.5044733363242,120.30544281350308 M420.1460974437468,159.42146018591404 C461.97461867141277,146.8950958436704 503.90852262451295,132.88178816693525 550.1265049243319,119.44655220889935" stroke="#1e293b" stroke-width="1.4" fill="none" stroke-linecap="round" stroke-linejoin="round"/><text x="550" y="151.375" font-size="15" fill="#1e293b" text-anchor="middle" dominant-baseline="middle">anthropic-version</text><text x="550" y="168.625" font-size="15" fill="#1e293b" text-anchor="middle" dominant-baseline="middle">header present?</text><path d="M820,135 L980,135 L980,185 L820,185 Z" fill="#fee2e2" /><path d="M821.8955066122239,134.777185379335 C852.7019372639145,134.70175995481344 890.3787685568894,134.27586980743732 978.0427025881143,137.07095162248788 M819.5230243585797,134.23857598477517 C875.7353438485069,134.93115801889044 933.861245145633,135.02240707666715 980.2813262566991,134.10425990401566 M979.6511234148842,133.14540882873948 C977.929430023342,150.90269688592034 982.7741312928208,164.93808426956292 978.0917214796149,187.40171623576745 M978.861505766637,133.77135655268515 C981.3843235460449,145.88787198401397 981.5972047969938,157.400819701113 980.438926104792,185.89071872523132 M982.3816463832678,184.90392658929326 C936.5813094360999,184.2441936116164 887.0988515620788,184.7741512618547 819.527619273354,186.75977907061258 M980.1334773151904,185.10145552695917 C939.8086244800152,185.56705199447228 898.657927040942,185.35042413544932 820.0680024675992,184.79244062885624 M821.3311967795532,186.85985933548628 C822.6247984451245,170.81116764933637 819.017338195387,156.45696872851363 818.0751621234397,132.45096136980723 M821.1748274957627,184.80338609690364 C819.7911449444476,174.33923131644966 820.8345674939303,163.1897999218679 818.8765306218412,135.20492960180263" stroke="#1e293b" stroke-width="1.4" fill="none" stroke-linecap="round" stroke-linejoin="round"/><text x="900" y="160" font-size="16" fill="#1e293b" text-anchor="middle" dominant-baseline="middle">400 — reject</text><path d="M550,240 L680,280 L550,320 L420,280 Z" fill="#f1f5f9" /><path d="M551.7171472193663,240.46959913857404 C591.1507952694839,255.98230963486864 637.8917893568046,268.6673007167554 680.342759556687,280.04566323474603 M548.8714368434302,239.6406711283535 C576.8704560203585,248.33394163075693 605.6066997991135,255.5451099689421 680.2303022340034,279.83261218036085 M678.3782223352946,279.3990101956083 C634.7700773296596,294.66317076563763 585.9867403813445,307.5329017533298 551.9497246400931,319.40871924703157 M679.4150594763485,280.7321470532077 C634.6112107440721,295.01093090897604 589.3110582499636,308.1538129200416 550.8628283105393,319.42212337002434 M551.2655131999873,318.13088006387665 C513.5244393726763,307.27020525174896 474.46723942877236,295.0657524798209 422.1202898548556,277.9476557649435 M550.9774359253057,320.57928497521254 C504.84924405176406,307.89216515222006 458.15426604286836,291.82142984402685 420.4875045201136,280.4318096163108 M420.00593044728106,282.40483768664944 C464.8415685415826,269.55872081092656 513.2106450035548,252.49766181336565 550.7154955526142,240.50852681335226 M420.0120545794062,279.39739454487875 C461.32019132669444,264.8776616217652 501.72773604392506,254.80808035293094 549.7943280275405,239.11466303114918" stroke="#1e293b" stroke-width="1.4" fill="none" stroke-linecap="round" stroke-linejoin="round"/><text x="550" y="280" font-size="15" fill="#1e293b" text-anchor="middle" dominant-baseline="middle">path starts with /v1/?</text><path d="M820,255 L980,255 L980,305 L820,305 Z" fill="#fee2e2" /><path d="M820.7640884374346,257.1705019456943 C860.1424119466819,254.56685515170088 895.1233352036055,256.7496186083292 981.1379508872219,257.3413856201147 M821.1775103543824,254.114004489508 C875.8017802292028,257.34105122716744 932.2824527642242,255.22512538805537 980.0673218034161,254.25775619191236 M982.3161802691201,256.95107840188274 C977.9456643067401,271.62181340753574 981.2558649614738,286.06401508280203 980.3734741736745,302.6226592585219 M978.9624799545726,254.95452929294 C979.170383131857,269.8633001505399 980.9961874911808,282.23700123742304 980.4513286517047,305.7932488172778 M978.646632723018,303.28190456899273 C925.5153552049344,304.8437131923844 876.2690249112454,304.2889019173186 818.9158550402343,306.2453700222261 M979.9782162159321,305.22747192424123 C943.189177908086,305.02842445875314 908.5792552846858,305.9305349263623 821.0853616112483,305.13922336408007 M820.6745255789939,302.5280400609163 C818.5099306081215,291.2099395773114 817.5263270098687,271.3295973383569 817.5293038742269,252.5881262505671 M821.0509370165,305.06834081147065 C819.5194684754457,289.07480771990964 820.9023109881202,272.0051850954596 820.5439348092308,254.45538640982596" stroke="#1e293b" stroke-width="1.4" fill="none" stroke-linecap="round" stroke-linejoin="round"/><text x="900" y="280" font-size="15" fill="#1e293b" text-anchor="middle" dominant-baseline="middle">403 — forbidden</text><path d="M550,360 L680,400 L550,440 L420,400 Z" fill="#f1f5f9" /><path d="M549.2806972649471,357.6588127124485 C594.1170331060937,376.0496358128193 636.3074338369337,386.9639754609739 677.564028158888,400.30449155427647 M550.9661472589625,359.6241538717051 C586.3181009053628,372.13611476198787 624.2521063715487,384.63043299338165 679.6079083752403,400.40533725876685 M682.448525136851,399.86626390614407 C641.0272366849623,412.7333475359148 608.9298817403698,422.54226760826486 548.685433512481,439.3670673559522 M681.2769871983128,400.6949268249935 C644.3502801969705,409.2999476439683 609.8781463689994,420.048745509502 549.0252009040579,439.83644228416097 M550.9577000755974,438.2969730046662 C515.4066921451699,431.8587115642997 482.6953697870104,419.94283619811176 417.75101326315695,401.243941110594 M550.1645757422141,440.3901474035419 C499.7423788929037,425.8346736257817 452.33687899386223,411.4268407443939 419.23291284881304,399.9966696222003 M422.07538783558056,401.4913826575229 C457.50366668598963,387.04491177293966 497.2902104050801,374.50084756956943 551.2235698041362,358.9210626828379 M420.619352876815,399.9557501677553 C452.70005068110544,389.7134356104697 485.41385802129855,381.516342983408 551.2011223726,358.8544566991121" stroke="#1e293b" stroke-width="1.4" fill="none" stroke-linecap="round" stroke-linejoin="round"/><text x="550" y="391.375" font-size="15" fill="#1e293b" text-anchor="middle" dominant-baseline="middle">/v1/messages</text><text x="550" y="408.625" font-size="15" fill="#1e293b" text-anchor="middle" dominant-baseline="middle">or count_tokens?</text><path d="M100,375 L260,375 L260,425 L100,425 Z" fill="#e2e8f0" /><path d="M100.94551026011301,376.4927149339363 C147.99341324892788,371.54067685229273 198.5592127974566,373.3305889189282 260.27563411869306,375.16626179647324 M99.34543915753773,374.0833441750044 C137.61187644029127,372.9133559696975 176.26348372576962,371.7692546703062 258.84524591637876,375.49798099169846 M261.7948118232332,376.24308747101685 C259.62854261653627,393.39884905135597 261.3215938743739,406.2039605181912 258.3198899439764,426.9262760846245 M260.42891510480496,375.0407629486456 C260.4776090540996,385.123556398012 260.4087183287841,396.3749237790566 258.8818234587529,424.5539482049675 M262.1085310926809,426.2176937914955 C196.60421827852986,425.10639120126496 136.175062830662,422.7440940245178 97.75586588278144,426.1800055699605 M259.51100369047845,424.1785862789067 C204.95624117078782,425.4014489881648 150.26441020997606,424.3171351385483 100.23268034909941,425.8111961853194 M100.34768044053487,427.49961902500394 C98.1138158714616,405.14901528742547 102.33737353018415,385.4257949671155 101.89384833173565,374.3244729639542 M99.41957544994347,424.4679584580827 C99.05435067273436,404.63120633542565 101.067260223904,387.2862170839663 99.7498534826763,376.2677668360314" stroke="#1e293b" stroke-width="1.4" fill="none" stroke-linecap="round" stroke-linejoin="round"/><text x="180" y="400" font-size="16" fill="#475569" text-anchor="middle" dominant-baseline="middle">passthrough</text><path d="M550,480 L680,520 L550,560 L420,520 Z" fill="#f1f5f9" /><path d="M550.6801686044865,479.00467452448635 C580.7525289894861,489.0336410170634 614.9232094430987,496.5028495952843 681.6112841063438,518.5695251801972 M550.1979394399292,478.98292804646803 C592.3162756216143,493.41408913352967 634.6402218944713,506.4538711907413 680.3107695792896,520.0943981878538 M681.2491429857456,517.8374399443167 C632.6171438984695,536.4797262016743 585.8783673047548,546.8411483661725 551.3923694657766,559.6392328708258 M681.1544448267261,518.9296813404972 C640.5082016490651,532.021082044268 603.3607953667762,545.3219118324537 550.7154682462491,559.6847555598805 M547.9323702848667,558.4832669880817 C499.0374687018515,543.9549706137822 449.3883538728544,526.6314444145704 420.6688222973005,518.7568957620131 M551.0865533012272,560.7957880694903 C509.3730734644708,547.8907813925233 468.9561771207877,535.6990628244624 420.1256082929882,518.7095158298791 M422.13392001139914,520.3847505171029 C454.87085879747895,510.70806158003535 493.1140373361332,501.63407593184417 547.6937161351321,479.7527312098743 M419.57672917469296,520.6451267192986 C468.7165274867952,507.62123481823284 517.4273073434676,490.92188780936425 550.0429812828836,481.0770263282353" stroke="#1e293b" stroke-width="1.4" fill="none" stroke-linecap="round" stroke-linejoin="round"/><text x="550" y="520" font-size="15" fill="#1e293b" text-anchor="middle" dominant-baseline="middle">proxy paused?</text><path d="M100,495 L260,495 L260,545 L100,545 Z" fill="#e2e8f0" /><path d="M100.67807265297138,493.8172218646417 C158.28725094677722,496.03840911210534 212.5836322202682,496.68049493715966 259.53630051705363,495.56375322111995 M101.23995029441834,495.7000716451153 C138.8684463330252,493.0437488194838 176.65192761636177,493.2237539408543 260.32385483010967,494.9054849483126 M259.01527378036246,492.8646314325967 C259.41796357886,509.23887794890703 257.77419797103664,518.4426490393346 261.5287827730498,546.2230814127474 M260.5869964485491,495.6327278318159 C259.6904713119569,511.5615557650213 261.65328026062826,530.0070328191765 261.00143865816403,544.6856375358767 M262.1756326322253,546.3625095578607 C212.1435711919154,544.2172888542071 167.37587257681153,542.3265080455577 98.81982063582657,547.5802800799272 M260.70009241258845,545.2774437600821 C194.8175360490655,543.2780604937474 133.13067307057378,543.6951239161772 98.86457703831323,544.9105392674097 M100.79626197109955,547.485745195576 C100.23473181962785,523.5532721093915 101.52204433269274,507.3747255282866 99.01178419108469,494.3921876840628 M98.78908959355174,545.3702784703253 C99.91662332075522,528.3181268493371 100.4242579346812,511.80946474923303 100.66168969698418,494.27315324776356" stroke="#1e293b" stroke-width="1.4" fill="none" stroke-linecap="round" stroke-linejoin="round"/><text x="180" y="520" font-size="16" fill="#475569" text-anchor="middle" dominant-baseline="middle">passthrough</text><path d="M550,600 L680,640 L550,680 L420,640 Z" fill="#f1f5f9" /><path d="M549.9826398509044,602.4218079040294 C577.1444100232235,610.9286224136874 606.2274310460083,620.0345019267727 681.1343083670972,640.1771228886281 M550.1687479044894,598.7733996963225 C595.126543367654,614.7052832158412 636.9074892904036,626.1833708787044 678.9982680763643,641.2712529455073 M679.4009526112025,637.873448609478 C646.7284849584463,647.5732839007579 614.3776313149447,658.0782776021289 549.4342830722992,677.9636408669655 M680.956523548935,640.0345315939816 C651.2996224938756,648.6463999612379 622.1926341584647,655.2511153129934 549.3530073844663,680.5427565096078 M548.8586719210765,678.928843180158 C517.0182828304015,667.9827159505334 486.9924875730199,661.638443664882 421.9251955126522,638.8984872245995 M550.675164858282,679.2734291051945 C515.867153345222,668.6035247952128 480.82597395355236,658.1948336364457 421.1754206231809,639.7669826848276 M417.99074968736164,637.7319496933733 C458.22196286827733,628.1250224836541 493.15145833085575,620.0378465465154 548.3362801901064,599.610458837185 M419.5840574117605,639.3641066584887 C471.48574048034027,624.7518039805674 520.337631878585,609.9305310465965 548.8628383088973,598.7482942563905" stroke="#1e293b" stroke-width="1.4" fill="none" stroke-linecap="round" stroke-linejoin="round"/><text x="550" y="631.375" font-size="15" fill="#1e293b" text-anchor="middle" dominant-baseline="middle">thinking-state</text><text x="550" y="648.625" font-size="15" fill="#1e293b" text-anchor="middle" dominant-baseline="middle">in request?</text><path d="M100,615 L260,615 L260,665 L100,665 Z" fill="#e2e8f0" /><path d="M100.29981757834658,613.1998248566266 C164.89929546224033,616.5732276289918 227.66296344533097,614.969264817403 259.9541503788806,616.0063085712691 M99.33876545074615,614.2624930564577 C136.3380267339523,614.2788623747097 174.24125754787576,614.679642194271 259.0429920867175,615.4964096676415 M261.43048044254124,612.5212295675852 C260.3651000636895,629.2800475446406 258.28457056462327,646.04561828291 258.05047259447167,664.942329970901 M260.9178780605591,614.4892644626023 C258.20752321240406,631.1683885010717 259.2080761474378,648.469367935979 261.2326237203466,665.459231473209 M258.12316680478443,662.5649113798424 C196.47319090286518,661.4371722440115 138.60607911648,664.6888771002436 98.52610047561515,666.3447034114565 M259.7741661298281,665.0058417137085 C228.45006195410596,664.0910122142205 195.99635878370609,664.195270280102 100.79198470991906,664.1847028791548 M100.44327419546595,662.761947609286 C99.07454164883782,651.5236253722603 101.56854605531234,632.0133279322541 101.1021279691173,617.2372569370566 M99.23441992680567,664.8780955184266 C99.09139460796798,648.6241251498012 101.54576453399336,629.681151105899 101.17046690000029,615.185788716124" stroke="#1e293b" stroke-width="1.4" fill="none" stroke-linecap="round" stroke-linejoin="round"/><text x="180" y="640" font-size="16" fill="#475569" text-anchor="middle" dominant-baseline="middle">passthrough</text><path d="M550,720 L680,760 L550,800 L420,760 Z" fill="#f1f5f9" /><path d="M548.9917800910896,720.3270630022051 C600.2517157387275,734.601080032965 645.6110622087606,747.0349101735917 681.3266078308538,761.2540496957208 M551.0313944301632,719.5673661368088 C581.3524972597404,729.1616421490065 613.0381621931512,738.5932669178338 680.7467164897048,759.1820444551817 M682.0273033728487,760.4823948718551 C634.4539923425309,774.437581157637 590.9749296280988,785.5479337672008 550.7762987764283,801.741599095888 M681.1539155682453,759.4260449595271 C640.5489362215387,771.7224207201473 599.1198028795769,784.7076239081531 548.959213687941,800.2952073800436 M551.9140769189129,798.8289750793982 C521.7575336411351,793.7385303880492 496.8066181284732,780.7293099572877 421.4273649180793,758.7083056247574 M549.3830043818878,800.3400317005089 C521.6134741149787,793.715421181713 496.72778438798525,784.7119967158709 420.7438496201111,759.9609860292651 M420.12603108491135,759.6734988531601 C463.2462984849451,746.9757535216165 503.40277905186963,733.2442969962907 552.3842740912258,721.314452514089 M419.202365625723,760.953901479942 C459.35850925764464,750.3359910644533 495.68386783667296,737.1526859248413 549.7623392707932,719.8771809574125" stroke="#1e293b" stroke-width="1.4" fill="none" stroke-linecap="round" stroke-linejoin="round"/><text x="550" y="751.375" font-size="15" fill="#1e293b" text-anchor="middle" dominant-baseline="middle">token +</text><text x="550" y="768.625" font-size="15" fill="#1e293b" text-anchor="middle" dominant-baseline="middle">server reachable?</text><path d="M100,735 L260,735 L260,785 L100,785 Z" fill="#e2e8f0" /><path d="M100.33471957000984,734.2885879028054 C151.10207007475273,732.0759513719111 201.26049729700568,734.3742561777553 257.4994519173973,734.8255175351269 M99.1823132727727,735.4391176261773 C149.99011044416207,735.959326061151 201.46239523357457,736.6228147733904 260.9738919361667,735.1793630754845 M262.5812854712285,736.7936543714935 C262.5211277629862,748.6946735212249 262.0587487845027,768.2892095627335 258.674339941691,786.9514136352143 M259.4194868210953,735.0372668285546 C260.7463851959073,750.5534163950102 259.20809237668914,765.287729354305 259.91191473777894,784.5270656923763 M261.6799101806465,785.5687481451571 C207.0343255843223,782.1093663739608 149.412688746858,783.0649584534546 102.10066895234964,786.0491715541115 M261.1750025905076,784.0230446144574 C200.4920420644346,785.4318864485573 138.63107573828873,787.4194609326782 99.52086376559559,784.314884131088 M100.35449515965966,784.6839769000642 C102.34405047996516,769.8771058425491 100.16762490421212,753.6837539312907 99.78929875392966,735.4449137480697 M100.59686700521044,786.2934515005443 C99.16038929869013,774.0176941446017 100.35177599909181,763.4202975533661 101.24224314810338,735.7424846980996" stroke="#1e293b" stroke-width="1.4" fill="none" stroke-linecap="round" stroke-linejoin="round"/><text x="180" y="760" font-size="16" fill="#475569" text-anchor="middle" dominant-baseline="middle">passthrough</text><path d="M370,860 L730,860 L730,916 L370,916 Z" fill="#dbeafe" /><path d="M371.07156715051525,858.4608356907571 C510.3260209680814,858.6006600238629 650.1546638454305,859.9259073467593 730.0644956607118,859.954573053304 M369.1978651520572,860.1939694935635 C461.4172364966824,860.7316130768806 553.2641253376817,860.1719069803156 730.1647528605515,859.2486316369917 M731.1981701324944,858.246257373837 C731.6698688673513,876.171117872873 728.4272302000666,890.4930259616074 727.7099777200607,917.911506708266 M731.2060382352488,860.0246755322478 C730.6483672390066,881.5046862088905 729.1266686424505,900.7208480179187 730.4512743435945,915.3918175690276 M730.6585558173809,917.1256868919719 C615.1506486756193,919.05042732492 502.14364320009906,920.4408046247104 368.9658116283779,916.4015855263881 M729.8532572985526,916.1076223871452 C633.1496523974487,916.8258197097983 536.1339005267487,917.5847460445286 370.4314700608413,915.4525170293738 M371.90888099563927,913.8618737986634 C367.2230146716694,899.6130265822406 368.99130875700575,880.7556268765942 372.53239670752833,862.5712237188219 M369.44704817507295,914.8630598610566 C370.96915119957805,900.5576856234943 370.57208717970144,886.3588286633548 369.8412574903246,860.6147857705872" stroke="#1e293b" stroke-width="1.4" fill="none" stroke-linecap="round" stroke-linejoin="round"/><text x="550" y="879.375" font-size="15" fill="#1e293b" text-anchor="middle" dominant-baseline="middle">POST /api/cli/proxy/prepare</text><text x="550" y="896.625" font-size="15" fill="#1e293b" text-anchor="middle" dominant-baseline="middle">800ms budget</text><path d="M550,950 L680,990 L550,1030 L420,990 Z" fill="#f1f5f9" /><path d="M549.5245970906549,947.6052214350093 C586.0195247415977,962.452013392631 622.85264111912,971.4490473614013 677.8953127877197,991.1138418615845 M549.6646160884321,951.190418419081 C580.8813827615777,956.6801414611929 611.6323015051408,967.1130201601418 679.3053926446717,989.343565665259 M679.9887440640096,987.4791825474638 C631.4701035640807,1004.7944926094808 586.602603407202,1018.7991218134326 548.2819542443125,1032.3270214637287 M678.9936726374104,988.7653878450557 C649.9613331529642,999.7684193741887 620.8192875274965,1007.2994156693984 550.9642608649112,1030.146314157885 M548.7388679433267,1032.1178008700056 C500.6769599337557,1015.0142085339476 454.84722946895164,1003.7679312198551 418.98512783242717,991.2325686003196 M550.6717705649662,1029.5452381017776 C519.6709934894361,1019.7622165833425 487.12263653347026,1009.5606377775146 419.036277721217,989.1946805402758 M418.2330431586647,990.6787821175174 C457.1614264422958,974.9635196876928 497.20575588440266,967.6892005381858 550.376378268387,951.4807927277672 M419.3750286745357,990.6156030041881 C471.3065705639405,975.2032946119093 522.6851657688686,960.1257260084913 550.77292106931,949.4116813933344" stroke="#1e293b" stroke-width="1.4" fill="none" stroke-linecap="round" stroke-linejoin="round"/><text x="550" y="981.375" font-size="15" fill="#1e293b" text-anchor="middle" dominant-baseline="middle">server responded</text><text x="550" y="998.625" font-size="15" fill="#1e293b" text-anchor="middle" dominant-baseline="middle">in time?</text><path d="M100,965 L260,965 L260,1015 L100,1015 Z" fill="#e2e8f0" /><path d="M98.84556456496418,964.0358262029958 C140.10577813040337,961.4986162721564 182.46763024370833,963.3508214350105 257.81737783373,966.6042800209736 M100.46488419006427,964.8096558715066 C142.69223331825222,962.8564163507724 184.86629080237634,963.5752854453807 259.6024140520072,964.6601314877142 M260.52173374586164,964.2486464055294 C260.58897351822696,979.7066629332236 259.74585797685563,995.5008691283592 258.49876045878045,1014.9792112456555 M261.0904361779088,963.9396606221682 C261.70954672202987,978.6792588432097 260.6351255937415,991.005836865907 260.72332518955943,1014.3657968315365 M258.49537080996845,1015.480977029052 C207.18301079474168,1013.5120469490257 147.73460298651932,1016.652705160475 102.04127918475048,1013.818752870981 M261.2755172729149,1014.4554867802333 C211.6631928727608,1014.9911648613938 165.10027082877238,1015.2419582611658 101.29281695859348,1016.2766483526 M101.54346771499,1012.9471310108714 C98.3454093151574,1000.6059390529367 97.95445959704126,984.0897663221992 102.40683260522648,963.9466436110336 M100.97332267143912,1014.6967796680718 C100.95509476519622,1001.8391445321633 99.47395243162816,988.7454065701628 101.12624590244468,965.0824709300473" stroke="#1e293b" stroke-width="1.4" fill="none" stroke-linecap="round" stroke-linejoin="round"/><text x="180" y="990" font-size="16" fill="#475569" text-anchor="middle" dominant-baseline="middle">passthrough</text><path d="M370,1090 L730,1090 L730,1146 L370,1146 Z" fill="#dbeafe" /><path d="M368.433675794177,1091.5784653746205 C501.6925282915967,1091.3463698170442 636.542592936703,1089.8521619407486 730.3132795401984,1090.1728160575344 M369.43945368793607,1090.314648677389 C480.26189728946076,1087.269240621127 589.0724782439812,1086.800021380838 729.7948084717196,1089.3895682662894 M727.6557208001254,1088.037889281457 C729.9649674527101,1107.2008192235228 731.3878386068702,1127.7227532469183 730.200373225923,1144.0705376052072 M729.5208855474981,1090.6524077534827 C729.6347188964945,1106.8851294339868 729.2873129168788,1126.613860659023 730.681595129015,1145.5888700429796 M731.5126836935995,1145.0862935984064 C648.4531988568034,1146.0644628086181 570.3529160154891,1146.8516544819352 369.6486935990287,1144.7488353991534 M730.7206750987883,1146.6712646100273 C592.158012458981,1146.1666935019825 454.2071499331249,1146.6061196179485 370.28058123947966,1146.3775777729818 M367.81533588071034,1148.5733908671773 C370.618777206505,1127.4018241474685 367.71728722802874,1105.912079095802 371.43945061710644,1089.2487583183636 M369.4130540089699,1144.8614812789924 C370.49406265925506,1124.2287062130563 369.0890300822784,1102.5392528821026 370.2430946207038,1088.8825237462027" stroke="#1e293b" stroke-width="1.4" fill="none" stroke-linecap="round" stroke-linejoin="round"/><text x="550" y="1109.375" font-size="15" fill="#1e293b" text-anchor="middle" dominant-baseline="middle">trim messages</text><text x="550" y="1126.625" font-size="15" fill="#1e293b" text-anchor="middle" dominant-baseline="middle">+ append system_fragment</text><path d="M370,1200 L730,1200 L730,1250 L370,1250 Z" fill="#dbeafe" /><path d="M370.4961616377286,1199.2274848387358 C490.116879090984,1199.4537401449086 610.1914040146527,1200.1509904468262 729.6074338670697,1200.0669997359291 M370.55176411404096,1199.5435257739603 C469.1584134131649,1198.4044190321913 568.5615101268222,1197.6082985106439 729.3305403812961,1200.8027697420503 M730.025757957527,1198.061441309177 C728.2961282417276,1210.4292776805273 731.1906033634095,1218.8210721194118 728.9333413376111,1250.0204159505338 M730.7345217264142,1200.9675747713034 C729.6567455375648,1211.5703681634436 730.6082960170677,1223.561787869379 731.0051595864243,1249.0016823711317 M728.5242507093236,1249.186921640146 C624.2609984409514,1247.9041557228925 520.3224908752946,1250.71153774695 370.4840985385282,1249.9506748824629 M729.6722206986467,1249.2986876242658 C605.3179582441459,1252.030892217175 479.0284132112253,1251.0858252247479 369.973163455573,1250.4361514795394 M369.6038521221833,1251.3036235637885 C370.5032486137772,1241.7480194686534 371.24434582427665,1230.40869989796 368.21203762633746,1199.5548486973898 M370.2580392030161,1249.3042932694018 C369.21498494108073,1231.4167455880574 370.72099347818863,1211.02932753416 369.63266056892803,1199.752919972509" stroke="#1e293b" stroke-width="1.4" fill="none" stroke-linecap="round" stroke-linejoin="round"/><text x="550" y="1225" font-size="16" fill="#1e293b" text-anchor="middle" dominant-baseline="middle">forward to api.anthropic.com</text><path d="M370,1300 L730,1300 L730,1356 L370,1356 Z" fill="#dbeafe" /><path d="M368.62398445831315,1300.1732889608113 C456.8628220847843,1300.8234274074014 545.3723157940052,1301.3819612995317 729.7274467747332,1300.6923680938448 M370.07683630308316,1299.930783071789 C509.8130162871401,1296.9667448473338 649.040977180248,1298.3519302575978 730.3254254406668,1300.0221748615038 M730.090546083822,1301.386595682454 C730.104859958278,1315.9815331112009 731.84753683017,1337.4768107439018 730.0561860379504,1355.085726902843 M729.9345091111082,1299.3613460968443 C731.2068570401851,1321.0378435421 730.9429627851443,1340.2518771036268 730.4694263516686,1356.7183716321133 M730.8508905031133,1356.548693376387 C615.9157014776277,1356.5538325581156 502.6032745065207,1355.452772262824 369.0688777626615,1354.464935955787 M730.5163368142181,1355.2634165315053 C655.2535463476751,1358.1044051295632 580.7251894920682,1358.5720009132303 370.0887550475033,1356.2704200323644 M367.8486478114843,1354.2024125477578 C371.3114974213054,1339.960944566326 370.5033955835206,1324.4875501631611 369.84560717950274,1302.4648428700223 M368.9991205947278,1354.9739033220715 C369.0000230605208,1345.4222942683323 369.8391257513318,1332.2137003977757 370.8965790270535,1299.2825666625417" stroke="#1e293b" stroke-width="1.4" fill="none" stroke-linecap="round" stroke-linejoin="round"/><text x="550" y="1319.375" font-size="15" fill="#1e293b" text-anchor="middle" dominant-baseline="middle">patch input_tokens</text><text x="550" y="1336.625" font-size="15" fill="#1e293b" text-anchor="middle" dominant-baseline="middle">in SSE message_start</text><path d="M370,1430 L730,1430 L730,1480 L370,1480 Z" fill="#dbeafe" /><path d="M369.18187866795324,1430.1222836886593 C490.1628565205775,1431.6490905251856 610.8805056719158,1429.9642353232146 731.1194164876969,1428.7484489686508 M370.19548961744937,1430.6896052161926 C451.17588671364,1429.1374795011682 533.5340699729973,1429.1235728242575 729.5562633259025,1429.4866415375209 M727.7134337178128,1430.0050950665677 C728.9323667147356,1445.7499513919072 730.6195779495006,1464.4907466324898 732.5700827523505,1479.9106811048634 M731.1785002340227,1429.4507562922263 C729.9721376264403,1444.4898424454493 729.1187206290745,1456.312668111371 729.755613186766,1479.6411371965776 M728.7695755731859,1479.9116938000318 C601.3168276572604,1478.0013195686543 474.55220190136333,1480.8567752538156 370.2446215429468,1478.649599364972 M729.4907728863781,1479.2601918678242 C605.7312417719593,1479.015524444265 481.4327513992915,1479.0071322320161 369.2563919427705,1480.714677574642 M367.64367766645097,1479.067879980508 C372.0925852761942,1464.6430176881722 368.7009887497087,1445.483340825933 368.7457367264932,1427.9211514998988 M368.7986318414021,1480.8331302216648 C370.7675922145143,1460.7318180305142 371.21531608808147,1441.2502975340099 369.72291631121305,1429.1841282464939" stroke="#1e293b" stroke-width="1.4" fill="none" stroke-linecap="round" stroke-linejoin="round"/><text x="550" y="1455" font-size="16" fill="#1e293b" text-anchor="middle" dominant-baseline="middle">stream response to client</text><path d="M100,1200 L260,1200 L260,1256 L100,1256 Z" fill="#e2e8f0" /><path d="M101.6929472184095,1200.2238352900777 C147.23450816095988,1197.2859079154102 194.6782985817015,1199.6112037051237 262.3331948209358,1198.7678985078946 M101.24100803915306,1200.6333514503006 C142.02554808077144,1202.602395472634 186.08036695887955,1200.584527357606 260.9559376427721,1200.1984406172178 M261.69358534561206,1198.6372113060502 C260.41148480216964,1213.4354023045144 261.12194523001693,1227.9032920519717 259.63977476643277,1255.5949935516821 M259.4368602247418,1201.1514081267435 C259.29561577975494,1220.8389227391172 259.505525395667,1239.9353257168318 259.8146385594633,1254.7499296379 M260.8745982142913,1254.937918795103 C224.81216784731618,1258.5129204185823 189.39919942455523,1258.387073342794 98.72939306521062,1258.0462633210109 M260.49274525217083,1255.3713436850553 C220.45392656691024,1258.1601778055463 181.630991617661,1258.5526809861726 99.54679433201292,1255.6206561907197 M99.12719774712072,1256.646763947389 C97.69432492139552,1236.8252420912759 98.51556207362171,1213.1586835078183 98.19702098615777,1202.3815835332691 M98.78376121886511,1255.6165260575735 C99.33254745027558,1234.3086084077627 100.0890337715055,1214.4513522522786 99.60713267695772,1199.9756714053335" stroke="#1e293b" stroke-width="1.4" fill="none" stroke-linecap="round" stroke-linejoin="round"/><text x="180" y="1219.95" font-size="14" fill="#475569" text-anchor="middle" dominant-baseline="middle">forward to</text><text x="180" y="1236.05" font-size="14" fill="#475569" text-anchor="middle" dominant-baseline="middle">api.anthropic.com</text><path d="M547.8161519703219,79.30807126857951 C549.5591730684691,93.83119532312399 550.9056264037825,110.5049042720408 549.6833670251094,117.94490278172158 M549.3750195758723,80.67402845711274 C551.5171131711603,89.58748582165433 551.3449748704811,101.45954656012941 550.7434656252597,120.44215593047254" stroke="#1e293b" stroke-width="1.3" fill="none" stroke-linecap="round" /><path d="M550,120 L545.6503446588877,110.99552897647322 M550,120 L554.3496553411123,110.99552897647322" stroke="#1e293b" stroke-width="1.3" fill="none" stroke-linecap="round"/><path d="M678.0518201836085,160.45943465558767 C712.115865000066,157.70756746837282 744.8762682723581,158.46697652046745 818.1463378319133,159.69967280343275 M680.6653351678503,160.86066279875268 C732.101677371423,160.5830495910219 786.9223700178969,159.00035121498365 819.4548002592708,160.19054725089808" stroke="#1e293b" stroke-width="1.3" fill="none" stroke-linecap="round" /><path d="M820,160 L810.9955289764732,164.3496553411123 M820,160 L810.9955289764732,155.6503446588877" stroke="#1e293b" stroke-width="1.3" fill="none" stroke-linecap="round"/><text x="750" y="150" font-size="14" fill="#475569" text-anchor="middle" dominant-baseline="middle">no</text><path d="M552.0715390646087,201.07796810784595 C550.7657284063997,208.0574383978188 548.2852060196224,217.02330517138893 552.0948396429868,239.81610086397188 M549.3975019088836,199.89641438972254 C551.4788998635306,211.4853568461327 550.8054115945923,220.65557305735734 550.2525883098075,238.9151503149239" stroke="#1e293b" stroke-width="1.3" fill="none" stroke-linecap="round" /><path d="M550,240 L545.6503446588877,230.99552897647322 M550,240 L554.3496553411123,230.99552897647322" stroke="#1e293b" stroke-width="1.3" fill="none" stroke-linecap="round"/><text x="520" y="220" font-size="14" fill="#475569" text-anchor="middle" dominant-baseline="middle">yes</text><path d="M680.8730487145217,278.8156183462606 C734.8083382865327,280.18861131936274 793.933736527058,280.29371678463843 817.62235954832,282.3329972150713 M680.7462250415933,280.23960722015386 C724.273317108675,279.97060873994593 770.7266763623169,279.93903196006926 821.1026785080476,280.4358283724203" stroke="#1e293b" stroke-width="1.3" fill="none" stroke-linecap="round" /><path d="M820,280 L810.9955289764732,284.3496553411123 M820,280 L810.9955289764732,275.6503446588877" stroke="#1e293b" stroke-width="1.3" fill="none" stroke-linecap="round"/><text x="750" y="270" font-size="14" fill="#475569" text-anchor="middle" dominant-baseline="middle">no</text><path d="M549.7081985536852,317.6193434443614 C550.6530066263372,332.4805409617258 549.5583253445881,345.93491433724995 550.7286508547497,359.34612324328094 M550.570294129792,320.244846100739 C551.1778125391331,332.99049119567815 551.1342658101838,345.0791880736224 550.3960167137134,358.9569458377651" stroke="#1e293b" stroke-width="1.3" fill="none" stroke-linecap="round" /><path d="M550,360 L545.6503446588877,350.9955289764732 M550,360 L554.3496553411123,350.9955289764732" stroke="#1e293b" stroke-width="1.3" fill="none" stroke-linecap="round"/><text x="520" y="340" font-size="14" fill="#475569" text-anchor="middle" dominant-baseline="middle">yes</text><path d="M418.8111677770283,399.74541994667635 C361.99615816314724,397.1689483518583 305.2628625029764,399.89667170192917 259.52169443575275,402.2390618319348 M420.51026112301895,400.0335519876713 C375.521429104656,400.5109326656473 333.77803569074354,399.63069634845164 261.1675771834747,399.62913729316284" stroke="#1e293b" stroke-width="1.3" fill="none" stroke-linecap="round" /><path d="M260,400 L269.0044710235268,395.6503446588877 M260,400 L269.0044710235268,404.3496553411123" stroke="#1e293b" stroke-width="1.3" fill="none" stroke-linecap="round"/><text x="340" y="390" font-size="14" fill="#475569" text-anchor="middle" dominant-baseline="middle">no</text><path d="M551.9171031951855,440.0274751857565 C549.7636756752449,449.06641922415827 550.8553358121684,457.695183921355 551.5333261550888,478.2580782693157 M549.7223686433929,440.733813994791 C548.7368038761407,453.1629984552614 549.8282195769979,465.89073558049637 550.5712702182716,479.4312875661632" stroke="#1e293b" stroke-width="1.3" fill="none" stroke-linecap="round" /><path d="M550,480 L545.6503446588877,470.9955289764732 M550,480 L554.3496553411123,470.9955289764732" stroke="#1e293b" stroke-width="1.3" fill="none" stroke-linecap="round"/><text x="520" y="460" font-size="14" fill="#475569" text-anchor="middle" dominant-baseline="middle">yes</text><path d="M418.4277182884883,519.4435714894515 C387.37746992824333,523.2948353098107 349.6413023644139,520.9613800565425 258.7866134633827,517.6306229209964 M420.44279230153836,518.8140518219516 C375.08729229679517,516.9546308353375 330.5969918740666,518.3593969752577 261.1626765476861,520.75420390315" stroke="#1e293b" stroke-width="1.3" fill="none" stroke-linecap="round" /><path d="M260,520 L269.0044710235268,515.6503446588877 M260,520 L269.0044710235268,524.3496553411123" stroke="#1e293b" stroke-width="1.3" fill="none" stroke-linecap="round"/><text x="340" y="510" font-size="14" fill="#475569" text-anchor="middle" dominant-baseline="middle">yes</text><path d="M552.3291349559937,560.6183037275866 C551.8580760406907,570.3864360928867 552.7718443162553,580.8460394458517 552.2136891446285,598.6457061147953 M550.4032304190412,561.0024310151443 C549.4930123186289,572.3560398757543 549.6962494339232,583.1432982572193 549.3209446232663,600.8491956611034" stroke="#1e293b" stroke-width="1.3" fill="none" stroke-linecap="round" /><path d="M550,600 L545.6503446588877,590.9955289764732 M550,600 L554.3496553411123,590.9955289764732" stroke="#1e293b" stroke-width="1.3" fill="none" stroke-linecap="round"/><text x="520" y="580" font-size="14" fill="#475569" text-anchor="middle" dominant-baseline="middle">no</text><path d="M420.62624176121676,640.4065887383196 C369.32380582840455,639.609238485148 322.20049627195226,640.2646202039615 257.6395010620241,640.3820559732201 M419.71079203653204,639.1167731850813 C389.04421068971465,642.1333658775915 354.75436050963515,641.9032761122706 260.1689039981183,639.5848776137664" stroke="#1e293b" stroke-width="1.3" fill="none" stroke-linecap="round" /><path d="M260,640 L269.0044710235268,635.6503446588877 M260,640 L269.0044710235268,644.3496553411123" stroke="#1e293b" stroke-width="1.3" fill="none" stroke-linecap="round"/><text x="340" y="630" font-size="14" fill="#475569" text-anchor="middle" dominant-baseline="middle">yes</text><path d="M552.1015937120956,680.746575565624 C552.6477337321833,692.532172236038 550.8242711756338,707.0655248684266 550.4515105708213,718.026886018158 M550.9603465776428,680.6169260919376 C550.1688319125504,693.9313211401478 550.2654730733884,705.3747278205851 549.421770286184,719.2059837463416" stroke="#1e293b" stroke-width="1.3" fill="none" stroke-linecap="round" /><path d="M550,720 L545.6503446588877,710.9955289764732 M550,720 L554.3496553411123,710.9955289764732" stroke="#1e293b" stroke-width="1.3" fill="none" stroke-linecap="round"/><text x="520" y="700" font-size="14" fill="#475569" text-anchor="middle" dominant-baseline="middle">no</text><path d="M419.4070354231004,760.7190363749052 C368.14410709631693,759.2521153194276 317.72199910587005,763.3865252481841 259.4045051655961,761.0933663840922 M420.46815327943864,759.4724920244666 C378.63073469815964,758.3041361311979 336.1996097290052,758.6381926296303 260.03147748201104,759.1337712393022" stroke="#1e293b" stroke-width="1.3" fill="none" stroke-linecap="round" /><path d="M260,760 L269.0044710235268,755.6503446588877 M260,760 L269.0044710235268,764.3496553411123" stroke="#1e293b" stroke-width="1.3" fill="none" stroke-linecap="round"/><text x="340" y="750" font-size="14" fill="#475569" text-anchor="middle" dominant-baseline="middle">no</text><path d="M550.1508956067918,798.1722079313556 C551.3017533805418,810.7099770966223 550.439740734869,825.7003418273592 552.178139318388,858.5164921253177 M550.9814513487196,799.3262539469068 C551.0508730216495,819.1442190890755 550.3831253507874,836.7252245692064 549.25845572383,858.810040394595" stroke="#1e293b" stroke-width="1.3" fill="none" stroke-linecap="round" /><path d="M550,860 L545.6503446588877,850.9955289764732 M550,860 L554.3496553411123,850.9955289764732" stroke="#1e293b" stroke-width="1.3" fill="none" stroke-linecap="round"/><text x="520" y="830" font-size="14" fill="#475569" text-anchor="middle" dominant-baseline="middle">yes</text><path d="M548.0256558887979,914.8118559933462 C547.5806942635371,923.4563023022438 550.8699919702727,930.4218742875288 550.2593706759568,947.8277836728605 M550.387964672478,915.8158253535399 C548.8486169880265,926.8180978635834 550.7602673271979,936.3786133124055 549.092753899257,950.5584846447283" stroke="#1e293b" stroke-width="1.3" fill="none" stroke-linecap="round" /><path d="M550,950 L545.6503446588877,940.9955289764732 M550,950 L554.3496553411123,940.9955289764732" stroke="#1e293b" stroke-width="1.3" fill="none" stroke-linecap="round"/><path d="M417.96898251305646,990.6451441283989 C375.86855948087344,992.8224048557329 335.13830104577517,989.5317217263322 258.54069902092755,991.1497236884983 M421.16483196100876,989.3236931555296 C359.38997227627664,988.7326601400651 296.1790501819481,989.6105322164246 259.02669020216666,990.0884008032339" stroke="#1e293b" stroke-width="1.3" fill="none" stroke-linecap="round" /><path d="M260,990 L269.0044710235268,985.6503446588877 M260,990 L269.0044710235268,994.3496553411123" stroke="#1e293b" stroke-width="1.3" fill="none" stroke-linecap="round"/><text x="340" y="980" font-size="14" fill="#475569" text-anchor="middle" dominant-baseline="middle">no</text><path d="M550.3888090691469,1027.9280171272167 C549.9585305396753,1043.8770574897535 549.9450576734329,1059.4557062770457 552.1346942672357,1090.419602612401 M549.64892548929,1029.56058265975 C549.8906382244616,1042.3798673953318 551.0525618520228,1055.4065116444863 551.1113538685386,1090.9553802537791" stroke="#1e293b" stroke-width="1.3" fill="none" stroke-linecap="round" /><path d="M550,1090 L545.6503446588877,1080.9955289764732 M550,1090 L554.3496553411123,1080.9955289764732" stroke="#1e293b" stroke-width="1.3" fill="none" stroke-linecap="round"/><text x="520" y="1060" font-size="14" fill="#475569" text-anchor="middle" dominant-baseline="middle">yes</text><path d="M548.7851531528645,1144.273754525706 C547.2314190074234,1166.5614779982416 547.3644939923811,1190.1058659571822 549.469114050098,1200.1953129211827 M549.0294640302793,1145.4946779082736 C549.8646058623588,1165.8122979673215 549.8354618032397,1186.4833873223815 550.9819932669027,1200.137367588151" stroke="#1e293b" stroke-width="1.3" fill="none" stroke-linecap="round" /><path d="M550,1200 L545.6503446588877,1190.9955289764732 M550,1200 L554.3496553411123,1190.9955289764732" stroke="#1e293b" stroke-width="1.3" fill="none" stroke-linecap="round"/><path d="M552.084370868724,1250.3009120681488 C550.6920666369275,1270.005439435735 549.1151472279072,1289.226686864898 549.5526449548055,1298.2397345054821 M550.1026494614772,1249.282191119193 C550.9104779536228,1268.4675986183292 549.905229558621,1285.3167769241386 550.9886978990245,1300.553382249998" stroke="#1e293b" stroke-width="1.3" fill="none" stroke-linecap="round" /><path d="M550,1300 L545.6503446588877,1290.9955289764732 M550,1300 L554.3496553411123,1290.9955289764732" stroke="#1e293b" stroke-width="1.3" fill="none" stroke-linecap="round"/><path d="M549.9360934380429,1356.8686193288218 C550.237515736755,1373.2103750447757 551.26817386752,1387.831807245981 549.2272701490762,1430.0061469443688 M549.3065940271089,1355.553162663148 C549.0205128305847,1377.245064710153 549.2323591503476,1397.6139657108795 549.1321643830472,1430.299361146902" stroke="#1e293b" stroke-width="1.3" fill="none" stroke-linecap="round" /><path d="M550,1430 L545.6503446588877,1420.9955289764732 M550,1430 L554.3496553411123,1420.9955289764732" stroke="#1e293b" stroke-width="1.3" fill="none" stroke-linecap="round"/><path d="M177.800406576231,425.6511017469562 C178.96212473325866,448.8684548112953 180.22027092813565,476.77228067987306 181.09871427718946,494.077193414377 M181.03452710605524,424.2098385582753 C180.51909415192114,449.9227670935865 181.8525135032149,473.4305377040589 180.19066784112528,494.70551660877067" stroke="#1e293b" stroke-width="1.3" fill="none" stroke-linecap="round" stroke-dasharray="6,5"/><path d="M180,495 L175.6503446588877,485.9955289764732 M180,495 L184.3496553411123,485.9955289764732" stroke="#1e293b" stroke-width="1.3" fill="none" stroke-linecap="round"/><path d="M180.867939307136,444.247764382138 C181.31995326525347,689.6887500403573 182.11472252938444,936.8059589856305 180.87560454986507,1199.8074074939702 M179.65752418121969,445.33281465638606 C181.23167884450802,702.4387117706777 181.4146995022382,960.0658577089333 179.70937411258046,1200.4717230986018" stroke="#1e293b" stroke-width="1.3" fill="none" stroke-linecap="round" /><path d="M180.3520756630345,564.9047282611746 C176.82942754646416,777.2058829102003 176.6208292907245,991.289728225005 180.75434631911412,1200.6922578209767 M179.64752715167526,564.9721456512117 C181.49623411165894,711.4973755526986 181.9107556701937,858.7370226015736 179.8947355481646,1200.0923811089815" stroke="#1e293b" stroke-width="1.3" fill="none" stroke-linecap="round" /><path d="M180.26333807899002,684.8123640441453 C178.0918714629341,847.1455628233316 177.44604020515658,1010.3931364244107 180.28335850980469,1199.7409483348974 M180.4737174228538,684.7359033018947 C182.29038951364268,879.9741319878192 182.4296975037899,1075.5005292180908 179.9779886812508,1200.0249228746054" stroke="#1e293b" stroke-width="1.3" fill="none" stroke-linecap="round" /><path d="M178.97030889004415,806.3062850895208 C181.48562880776916,955.9779243914364 182.67984200805455,1108.2639382688074 180.00109552197898,1200.1352280249353 M179.8521785268821,805.0519326329992 C178.71862255539418,888.6028276795239 177.83324444714884,972.2011816655172 179.77505778226558,1200.434021764733" stroke="#1e293b" stroke-width="1.3" fill="none" stroke-linecap="round" /><path d="M179.03651216806557,1032.8924548692005 C180.67150929285134,1068.0064308209774 177.90732917104654,1101.4973959806673 181.6839322559281,1199.523498878912 M181.11362483937575,1035.120404653437 C181.26003271316955,1088.9537603416616 179.47704816280142,1141.6896187383954 180.90089190393041,1199.073081631754" stroke="#1e293b" stroke-width="1.3" fill="none" stroke-linecap="round" /><path d="M180,1200 C180,1200 180,1200 180,1200 M180,1200 C180,1200 180,1200 180,1200" stroke="#1e293b" stroke-width="1.3" fill="none" stroke-linecap="round" /><path d="M180,1200 L170.99552897647322,1204.3496553411123 M180,1200 L170.99552897647322,1195.6503446588877" stroke="#1e293b" stroke-width="1.3" fill="none" stroke-linecap="round"/><path d="M258.6098869645152,1226.544523925602 C288.881038434325,1289.8872475012772 321.8079449596053,1356.7329241714813 369.8864292357783,1454.2911232829574 M259.84475478668674,1225.5535107197488 C298.7097128365801,1309.3759900488815 338.81203050818993,1394.0865030222667 369.2863218006388,1454.8423296643641" stroke="#1e293b" stroke-width="1.3" fill="none" stroke-linecap="round" /><path d="M370,1455 L362.19099854104707,1448.7534412502505 M370,1455 L370.0389444121224,1445.0000758336494" stroke="#1e293b" stroke-width="1.3" fill="none" stroke-linecap="round"/></svg>