<svg xmlns="http://www.w3.org/2000/svg" viewBox="0 0 1100 1800" font-family="'Caveat', 'Kalam', 'Comic Sans MS', cursive"><path d="M370,30 L730,30 L730,80 L370,80 Z" fill="#eff6ff" /><path d="M369.5178909553303,29.428248356219605 C494.8614568527303,27.016775522878493 621.1376440026356,26.479733888132778 729.0797758487934,29.787973252374535 M370.1842385281448,30.509582018604675 C483.75028056729434,29.899023861216506 598.5370558659733,29.49688885795151 729.8939708952798,29.800404297119638 M728.4020006617698,31.785515126303494 C728.7728252844952,39.80119743009729 730.1760508745366,56.9160928378591 728.5688287293291,78.84164359782739 M728.7682450202952,28.86440735299241 C729.2894627316363,49.55325963523229 728.3817057643525,66.93328461205463 730.3527120663861,78.80380985756419 M729.9724589599072,79.96261148947043 C601.4827010356955,81.6994660133388 473.4857454861004,82.53713344997621 368.87063088115605,79.07365264314754 M729.4550405622824,80.02412367787396 C604.3811287887785,80.62924310279402 478.7284706453979,80.6977222806255 370.610160896175,80.81153943753255 M370.1865125021493,79.30295018147011 C368.4133868159492,65.8065732837669 368.6820370360026,49.03680823680305 368.7872004871421,31.13009720720389 M369.51147706433795,80.89975414012827 C370.47363767784105,68.95098909429045 370.6104543957513,60.38023489603552 370.4352401894899,29.162047787549884" stroke="#1e293b" stroke-width="1.4" fill="none" stroke-linecap="round" stroke-linejoin="round"/><text x="550" y="55" font-size="17" fill="#1e293b" text-anchor="middle" dominant-baseline="middle">Client: POST /v1/messages</text><path d="M550,120 L680,160 L550,200 L420,160 Z" fill="#f8fafc" /><path d="M548.7320007644996,121.38590293519273 C581.4404086307084,126.99608296682611 609.0714828007892,137.86222766794373 680.9139675845288,159.0030333386034 M549.9497193149717,120.06355732906275 C596.6439904067087,135.13764815759924 645.1621707929743,150.9232418747394 679.8599647432661,160.8845701653077 M678.3576251994732,158.0000802350178 C655.3301492442832,167.87381767359815 627.3047227198931,178.8785472481242 550.7957324101521,202.52662227527065 M679.6419690898671,158.89093450871275 C629.3850413873453,176.38325034232926 577.7612601962433,193.38790095481934 548.9452581948492,201.14842133665528 M548.6874444856401,200.50952835504125 C508.6432790585118,188.48359508081973 461.2977465408793,174.40621339919903 419.45374546145376,161.8189655505668 M549.7204159173665,201.12266452228283 C499.145791907635,185.3680089527735 449.69273178883066,168.6941593667249 419.1585511447262,159.01516620174667 M418.26832094850647,161.44856810085747 C461.73843466278953,144.9532149922112 497.9095737729252,133.6614167952776 550.3466021922568,121.59126570818995 M419.47480075526306,161.08209416371764 C467.8606484043788,144.66964583741282 516.6106859212751,130.5694305184606 548.8624178686276,119.58996330417835" stroke="#1e293b" stroke-width="1.4" fill="none" stroke-linecap="round" stroke-linejoin="round"/><text x="550" y="151.375" font-size="15" fill="#1e293b" text-anchor="middle" dominant-baseline="middle">anthropic-version</text><text x="550" y="168.625" font-size="15" fill="#1e293b" text-anchor="middle" dominant-baseline="middle">header present?</text><path d="M820,135 L980,135 L980,185 L820,185 Z" fill="#fef2f2" /><path d="M819.3387619052668,134.61029997709215 C859.1078547868697,134.8271948015517 903.9939080356114,134.31218891381243 982.295633275583,132.95281234491648 M820.2033516304242,135.15247360009485 C872.7133529969291,132.96378530353604 924.6031820435704,133.75223491475654 979.5887213771521,134.99968215925387 M980.5408495883859,134.61182490068728 C978.1503693580449,147.45582849599975 979.0328493715389,163.11645789022742 981.187464053002,184.08377319767501 M979.7745104480538,134.32704496867586 C981.1246536998768,147.34221828662518 980.0059752475037,161.5120292150204 981.2860927788391,184.9997849074359 M977.816786311317,183.81588393055628 C943.8855737769925,185.56659889505602 905.5173413908364,186.79723737663514 822.0888770146639,182.64738692163027 M980.0508795675348,184.3027999326889 C939.7053802697641,187.71650855368105 898.8444850945556,187.09613199917015 818.7008244256571,185.74734054912153 M818.7691177503987,186.97546889892268 C819.036457094368,175.8077839908567 820.0956163677758,161.59972185084897 819.8194141911008,137.52841937843425 M820.8054816796174,184.33821898468977 C818.2199037818297,174.2112460860065 818.5317932981771,163.29191997559877 819.4505831576644,134.4849354742911" stroke="#1e293b" stroke-width="1.4" fill="none" stroke-linecap="round" stroke-linejoin="round"/><text x="900" y="160" font-size="16" fill="#1e293b" text-anchor="middle" dominant-baseline="middle">400 — reject</text><path d="M550,240 L680,280 L550,320 L420,280 Z" fill="#f8fafc" /><path d="M550.1156476427167,238.1833047680843 C601.5444871406769,254.25198705320358 651.0150570408078,269.8238335946153 678.4815729312699,281.8935576946011 M549.7788798989997,241.17055696649624 C591.143161565315,253.76426564544158 632.5511953465881,267.12147529355997 679.3876153634135,280.7799834803621 M679.0016337400265,280.8928495110241 C639.6230090004054,294.17503715391774 595.5991293395416,305.20359538595324 551.7153298534953,320.08239310383806 M681.1943099736695,280.7933561271803 C633.8468521823088,292.5443252624005 589.8646684216258,307.2962282979555 550.6824396480116,319.507571633494 M550.202316003653,318.55132967275307 C505.2133123047605,304.164646446766 459.0848063696918,289.8517345576547 421.3128111385245,279.47692940315346 M550.7986702062211,318.8543090203205 C507.52000386647677,307.65137197052525 466.27540303639796,292.74986369291673 419.70812486520015,280.58503415166683 M419.64041289408016,279.988626365809 C449.83872778205694,270.42925839111894 479.83285641870737,263.34960565175305 552.4576465972617,241.38743441113368 M420.288889837697,280.14375672284626 C445.7664079896469,270.98002887789227 471.41835293527004,262.1629572436503 550.7563056659815,240.73206996717752" stroke="#1e293b" stroke-width="1.4" fill="none" stroke-linecap="round" stroke-linejoin="round"/><text x="550" y="280" font-size="15" fill="#1e293b" text-anchor="middle" dominant-baseline="middle">path starts with /v1/?</text><path d="M820,255 L980,255 L980,305 L820,305 Z" fill="#fef2f2" /><path d="M820.4860085362724,252.8971093391435 C861.6731765613386,258.1740114522717 898.8927765177481,257.4957654828491 977.5284465489992,256.9444832427466 M818.9873853954666,253.90689518182185 C868.3197013624336,257.12599016891335 917.9635369830983,256.60967936164906 979.9699916453303,255.73917738301316 M979.9400276183777,253.75201364157581 C982.4741939088427,274.40206089785255 978.6220474730998,290.5505776242837 977.7482358728396,305.7025029471676 M981.2896668938303,253.70875967938235 C980.3827390629754,269.20532419160395 980.333802720116,281.4004618721712 979.98146409587,305.65042977582203 M978.8854128257595,305.4672924394723 C920.6593641464558,305.1907133990382 858.9508784795395,304.5273384656081 820.4036774476556,304.60896867084267 M980.5463112156605,305.2552336220633 C932.5898919454418,305.5251921274664 888.5794817417226,307.03012086024887 820.1759563983841,305.4301853627123 M818.4442157135115,306.6198513235566 C820.1580662008431,286.8614515633563 821.9284593582086,266.8183403091403 822.3292622593677,257.23331160370066 M820.7908765697405,304.90818433510157 C821.8442177226517,294.24328754555535 819.6138722996485,282.21598022577666 820.4678747845431,253.96359865542343" stroke="#1e293b" stroke-width="1.4" fill="none" stroke-linecap="round" stroke-linejoin="round"/><text x="900" y="280" font-size="15" fill="#1e293b" text-anchor="middle" dominant-baseline="middle">403 — forbidden</text><path d="M550,360 L680,400 L550,440 L420,400 Z" fill="#f8fafc" /><path d="M549.2736481843502,358.5572416674333 C587.5448540030673,373.2543438862966 630.7202021476595,383.83838686028554 681.1042715488671,397.43317205721763 M549.5638597003529,359.37548207255594 C578.2430680072295,371.24052643539443 605.9224278283286,380.11281621062994 680.647082890427,400.6252208677724 M680.7159609823259,398.0567611102724 C645.700475298867,410.2561404670397 616.5795295615617,417.9066752137014 550.5971789300725,437.9872652146125 M680.355697379504,400.56422562798815 C652.9884422294793,408.43259025669477 626.9213333420677,417.27735045288887 551.1011447086086,439.40020147647925 M550.2943901863067,441.53328749287203 C499.8425352134103,423.1540677310048 450.44704038937226,412.0447870024326 418.2248246207465,399.1580295851483 M549.2442469608703,441.29120107267875 C505.63403043658997,429.21563695380354 463.20846914879934,415.6037299172041 420.7019058847074,400.17990631817315 M421.54226939401,397.52541893510767 C451.5274624251249,390.62076254448016 475.74263033977763,383.28690447527794 551.1234938266074,360.1571056234707 M419.87076916059624,399.6112560302422 C451.9941575158929,392.82185353714283 480.3440702415059,382.25609107395866 551.0977194726562,360.6070052304403" stroke="#1e293b" stroke-width="1.4" fill="none" stroke-linecap="round" stroke-linejoin="round"/><text x="550" y="391.375" font-size="15" fill="#1e293b" text-anchor="middle" dominant-baseline="middle">/v1/messages</text><text x="550" y="408.625" font-size="15" fill="#1e293b" text-anchor="middle" dominant-baseline="middle">or count_tokens?</text><path d="M100,375 L260,375 L260,425 L100,425 Z" fill="#f1f5f9" /><path d="M102.34171953513354,373.10206684775926 C146.2160342862707,374.22013264088673 194.26497131989518,376.0531352450065 257.52144222061406,375.47934036686064 M100.79941430491321,374.23103639547844 C152.9027868581023,373.16570754274227 205.13065813556935,374.8829135062791 260.90109501744826,375.78468463315534 M261.60831199409876,375.71006499667925 C262.5092945692654,383.14107593817636 259.69987528586785,394.2525520770681 262.09239884473925,422.93218879589585 M259.47834777920366,375.94783349091404 C258.7904300073437,386.3244868591061 260.20080681717593,395.43016363455996 260.985177122138,426.08482934886416 M257.6972808724302,422.83805456607195 C216.6627144046753,425.67222050082626 173.29754273411754,424.41053654551297 99.46847730303882,422.57758523409944 M259.6804740737954,425.14859829060816 C203.401154961724,425.51020784824476 146.69070434323248,425.0125165505357 98.75827917218578,424.25246818009816 M99.26619201403555,426.5506023138254 C97.32808558387188,413.3862372860217 97.38362641965377,399.5753290096115 101.18476105816947,374.2312947524927 M101.00596475503777,425.4835439275235 C100.18107489599907,405.70764409278235 99.92848942881855,387.83898990959364 99.96793790638914,375.2604034449898" stroke="#1e293b" stroke-width="1.4" fill="none" stroke-linecap="round" stroke-linejoin="round"/><text x="180" y="400" font-size="16" fill="#475569" text-anchor="middle" dominant-baseline="middle">passthrough</text><path d="M550,480 L680,520 L550,560 L420,520 Z" fill="#f8fafc" /><path d="M549.3286885539294,481.15879914655017 C582.4795840571642,490.22977612593706 614.4398581059377,498.33880119492136 680.4574031514319,520.1737311853215 M550.7034733329727,480.2138801405222 C587.5497879648672,493.3628561567704 623.56747166387,504.95088686972997 678.7217958063635,520.5916679174292 M679.6435941850036,517.5952789109666 C637.081750744092,535.0469689659817 591.4691679974168,550.1317917198062 548.6921505712386,558.8712166921472 M680.0370453751228,519.9013401444366 C649.139755445271,531.4684623672216 620.4662651756989,541.3535623272331 551.1263255320282,561.1890012498561 M547.6460692680896,558.1235442986821 C522.4745699312368,548.5602422525147 490.91706062165656,541.2561829453678 417.64545851416545,519.2730018000686 M550.5337584970582,559.6414238358958 C500.10941238958804,544.7860661546064 450.9416158436321,530.9175928946212 420.8621582543675,521.0666262645535 M418.9734016445536,517.5940801458519 C459.33426034477526,509.46999986887965 493.12719986230576,498.892903756951 547.4703411703267,480.7244655387546 M420.5137334742275,518.7497623177442 C456.900734669958,509.3274387597446 492.8354752899768,497.9833936051063 549.0932456148504,479.54403535183167" stroke="#1e293b" stroke-width="1.4" fill="none" stroke-linecap="round" stroke-linejoin="round"/><text x="550" y="520" font-size="15" fill="#1e293b" text-anchor="middle" dominant-baseline="middle">proxy paused?</text><path d="M100,495 L260,495 L260,545 L100,545 Z" fill="#f1f5f9" /><path d="M100.68317492439103,495.9651835180605 C141.9128790671333,498.2678887185187 187.84251731820348,498.9182857105657 259.7407180871752,497.1126409912965 M99.70413020641317,494.3675122935463 C135.1103792878624,496.3896682428436 170.53588418055716,494.64002046820036 260.2493062454495,496.2313038083742 M258.21169503416155,497.3960297135118 C262.51954430962746,507.15542600530574 261.1424625155793,520.1946298199761 260.72383906983316,542.63632445948 M260.94221217798025,494.6914978927253 C260.094930649245,513.5301193759477 259.8337163577368,531.4193098016212 259.52355522733194,543.901137619916 M262.35155943468516,545.6523525575041 C198.58867366477406,545.1874245798165 131.68199663235447,544.8332067902846 97.88112415328442,543.5361570955745 M259.02264431355053,545.230086719948 C213.48838522308253,542.6830211027248 163.81199334177876,543.4567648069363 100.57389657916208,545.5427690585956 M101.1273609892281,544.3248756247642 C101.59046020825892,529.3305771380592 102.36336113810104,519.8708527041284 99.48346720003838,496.8239360806431 M99.37933673449517,544.503793329937 C100.0003325976864,527.4677553566282 101.52365807674956,511.1835880435809 100.05387298408594,494.7393043032977" stroke="#1e293b" stroke-width="1.4" fill="none" stroke-linecap="round" stroke-linejoin="round"/><text x="180" y="520" font-size="16" fill="#475569" text-anchor="middle" dominant-baseline="middle">passthrough</text><path d="M550,600 L680,640 L550,680 L420,640 Z" fill="#f8fafc" /><path d="M547.7997601975039,602.0950676464903 C587.648227257762,609.6819787677163 625.9123223433895,621.8731170488105 679.9344848147082,637.9013813011537 M549.1155695961527,599.4485429235523 C576.5696688228887,607.1718991403469 604.2387428853383,616.0187389206715 680.5008953838652,638.8764949168747 M680.578216104834,639.5492500554545 C649.6118375415998,645.2688702411368 625.5934552679141,653.6200751870904 550.7162210123946,679.3272630582995 M679.3460552738219,639.558196324314 C640.0626633905257,650.4717611083498 601.0148886514127,663.914121018044 550.9759091102612,680.6154811582462 M548.2664333856862,680.8036707969654 C506.9675303008151,666.1423253833041 470.202240716486,654.410853296968 420.3902871756243,641.4370249847258 M550.3136730780648,679.3988323078544 C512.3420807192224,668.0906684794245 473.355571121749,654.0363883247715 418.75580817840074,639.0218943675527 M418.727328534265,638.1854839329396 C462.61737018083795,623.0145632758669 511.58045524221177,611.0143084229574 549.0818133354572,598.6205433496139 M419.6918037897086,639.2382903706535 C463.7092831709743,628.9565107852322 505.8900068534372,615.5623903750641 549.122068406955,600.4010997775634" stroke="#1e293b" stroke-width="1.4" fill="none" stroke-linecap="round" stroke-linejoin="round"/><text x="550" y="631.375" font-size="15" fill="#1e293b" text-anchor="middle" dominant-baseline="middle">thinking-state</text><text x="550" y="648.625" font-size="15" fill="#1e293b" text-anchor="middle" dominant-baseline="middle">in request?</text><path d="M100,615 L260,615 L260,665 L100,665 Z" fill="#f1f5f9" /><path d="M102.47300320678937,614.0548907118904 C150.47649372592258,613.9742095922732 196.664067814148,617.7633756459679 259.9896649248821,614.3301564969618 M100.27628464742303,614.8418997950615 C158.6712461242875,614.5423363873995 219.58190614125942,614.3874177795842 260.9644365047162,613.8392903713748 M259.09724737246216,612.8364532826519 C262.37348459955734,632.4073961752647 259.2386827099001,652.5457266822323 258.1619258549476,663.1247259583644 M259.04073931962324,616.0068754626382 C259.17173739490164,624.1740416361331 260.7127772442477,635.7450112000162 259.23918333000404,664.1956092479531 M258.3596103433817,662.4344328999401 C203.69877978602636,665.4926411970229 148.79194546833313,667.9115511404563 99.12272317522103,667.0712987846473 M259.9209942752015,664.8283202561391 C214.96147699418952,665.3930850597425 168.40092526817097,664.7444145029033 99.99183072361078,666.1768926337609 M98.60500458754579,664.2924196547425 C99.45045713533,648.7396411874595 100.00670365057984,628.9330707219224 99.01131166475531,614.9460647822175 M100.47476729999121,665.5620791034166 C99.7827338000151,646.2509573915061 99.11830728266173,625.1577440082291 99.860809838456,614.1230036764479" stroke="#1e293b" stroke-width="1.4" fill="none" stroke-linecap="round" stroke-linejoin="round"/><text x="180" y="640" font-size="16" fill="#475569" text-anchor="middle" dominant-baseline="middle">passthrough</text><path d="M550,720 L680,760 L550,800 L420,760 Z" fill="#f8fafc" /><path d="M552.5145248615559,719.0372034806925 C599.3922790558368,737.2356124598637 645.3265791821484,748.6477578473725 679.0645022866171,760.0974789938643 M551.2879305171984,719.4891814017541 C595.5257686003013,733.956912839704 641.5339154798337,747.9405770807238 680.3793824636733,759.9544581247274 M681.5373918470552,757.859342285815 C633.5987257551508,778.2931339272873 582.2554782012096,791.889159892921 549.5310098561902,798.2002100399328 M680.2397917187915,761.1688224824601 C631.0206894602475,774.3917321354304 582.188596020441,789.2771612248237 550.7008343242567,800.557624776563 M551.5857437945689,798.4424508977613 C524.3919966901916,790.4109002864998 495.1585732904429,782.3610950475563 417.75873340612105,761.6296377621665 M549.0150668157326,799.2852726649057 C510.3720730870413,787.4950123429348 469.3792905637441,776.5990357636315 418.9802010925017,759.6431646234981 M422.10857006508814,758.4522378082075 C463.8791140240961,745.4184864913499 504.1137543139495,732.8762223345884 551.097462612706,721.0519902499896 M420.6221057294884,758.9091901282825 C446.9971010990673,751.2737140568566 474.5260040267245,740.8685412041901 549.329104573493,720.8928313034612" stroke="#1e293b" stroke-width="1.4" fill="none" stroke-linecap="round" stroke-linejoin="round"/><text x="550" y="751.375" font-size="15" fill="#1e293b" text-anchor="middle" dominant-baseline="middle">token +</text><text x="550" y="768.625" font-size="15" fill="#1e293b" text-anchor="middle" dominant-baseline="middle">server reachable?</text><path d="M100,735 L260,735 L260,785 L100,785 Z" fill="#f1f5f9" /><path d="M99.4209400071041,735.3505191673461 C134.0913178414027,732.8178348048344 170.21882765564777,733.6382029409198 260.06966746594935,735.318190794368 M99.68469514424064,735.3415633289276 C144.92641688552885,734.4451665524449 188.56740334411145,735.6434839472211 260.92594869302934,734.2441895153838 M259.90698613585806,733.934401752585 C262.70065664527965,753.521440655743 261.44792694003803,765.7889722724018 258.64588717532826,785.4145017299041 M261.2703253827904,734.7485249841786 C260.23538113960285,754.7678497243623 258.6231895652407,773.3258101620306 260.2196715310533,783.838490027433 M262.0774866354206,783.8395758915578 C206.73266048334003,782.6321742771928 155.8178782206545,786.8754605223324 102.47802869569027,784.0749136005486 M259.08907072620934,786.0216494632816 C198.69584477756447,784.7865681417518 135.32711366471918,784.9287001466054 100.72016017186968,786.2073577736868 M101.6716591923664,787.4956146394424 C100.30918492786573,770.8770610156238 99.26586315990578,751.7718883385097 98.50314480788386,735.8361993331488 M100.72793214574543,785.8586136293839 C98.55504521460843,770.0263053619616 100.1346707704003,755.2994218808129 98.7763012883851,734.5133861520594" stroke="#1e293b" stroke-width="1.4" fill="none" stroke-linecap="round" stroke-linejoin="round"/><text x="180" y="760" font-size="16" fill="#475569" text-anchor="middle" dominant-baseline="middle">passthrough</text><path d="M370,860 L730,860 L730,916 L370,916 Z" fill="#eff6ff" /><path d="M371.4062051199961,860.7099945774162 C505.0827062227951,859.7207722105917 638.1798882970611,857.298387112127 728.768725187856,859.4474732389764 M369.55392702238646,859.5198166334176 C444.0733584671747,857.7425413346164 517.0757111395964,858.8685205289537 729.7191739048055,860.4769578672508 M727.5550811391752,860.9739035613112 C731.5973258511259,881.1716435396792 730.4531924418751,899.9685108222106 727.6588754109966,917.7427995065862 M728.8015123632335,859.0474269686114 C729.0554402011484,880.2894343089367 730.1608349262933,900.7194749009824 730.0650008537353,915.9066204336522 M730.0145716451127,916.4097670088207 C644.98668744143,913.6252827509694 562.0478150502823,916.4846528721087 370.6298785315107,915.1163379133887 M729.593425274584,916.8207228140265 C654.6670124161897,912.788616647909 578.4753583509973,913.0832517043975 370.42493211669625,916.8194523745948 M369.47540023921516,914.5165286669765 C368.76228368557076,896.1802666615557 368.92862643692916,876.503893642682 369.8823769221456,857.554923893869 M369.84163219244175,915.9103050388364 C370.9360429832053,902.0234175963407 370.9924229233949,888.7760007548942 369.9011482626266,860.4422933839653" stroke="#1e293b" stroke-width="1.4" fill="none" stroke-linecap="round" stroke-linejoin="round"/><text x="550" y="879.375" font-size="15" fill="#1e293b" text-anchor="middle" dominant-baseline="middle">POST /api/cli/proxy/prepare</text><text x="550" y="896.625" font-size="15" fill="#1e293b" text-anchor="middle" dominant-baseline="middle">800ms budget</text><path d="M550,950 L680,990 L550,1030 L420,990 Z" fill="#f8fafc" /><path d="M550.546597002745,947.8759414132214 C602.1196366464859,967.805424423552 651.93897590613,982.4093405669578 680.170197763247,989.6943035247161 M549.0298826036297,950.1267552149938 C596.18615809122,963.7130472983526 641.6617655072113,977.4270060167119 680.1237984127946,989.4517963480135 M678.9379955454061,987.7436372635885 C632.7996672554872,1005.3783617432649 590.2277846530028,1017.8704636870311 547.4447726005976,1031.977325194821 M680.347660483248,988.9493595793598 C637.6314995837746,1001.7845081234151 594.3501241088167,1015.1126944447435 549.4612971117932,1030.032034075603 M549.9099841976724,1032.2454768789812 C525.0766292938991,1025.4544315802402 495.48940028325933,1017.1257958793268 422.4400102587475,991.2387015605825 M551.1692139460788,1029.4129311237778 C504.51741159978843,1016.731061794762 458.30870899524643,1001.9995829162139 419.1190973528729,990.4681309757364 M421.2289862864945,991.2423131923942 C449.8294968154905,979.7932197161178 474.4669288524043,969.9005856700077 551.1721814430151,947.5634122398862 M420.1392182853644,989.1086322617175 C470.03444058571074,974.8087959781624 520.3919457750106,959.5344420039788 550.8043492863021,950.1842170827605" stroke="#1e293b" stroke-width="1.4" fill="none" stroke-linecap="round" stroke-linejoin="round"/><text x="550" y="981.375" font-size="15" fill="#1e293b" text-anchor="middle" dominant-baseline="middle">server responded</text><text x="550" y="998.625" font-size="15" fill="#1e293b" text-anchor="middle" dominant-baseline="middle">in time?</text><path d="M100,965 L260,965 L260,1015 L100,1015 Z" fill="#f1f5f9" /><path d="M101.74433133260973,965.110717793645 C138.9266965523986,968.1331000646962 174.09601903971748,967.7907186146842 258.9056060808346,967.1625095341942 M100.83719190495597,965.134293249361 C160.22071882110743,966.43959250973 219.29811527185225,966.8268593063749 258.985320846624,964.8886375956819 M257.83115340216386,963.4495778558507 C259.11665867924415,979.4233395176896 260.6138663281087,995.765876928367 258.9576241258777,1012.908744311503 M260.16789497536746,964.9110279028816 C260.90633533962557,975.2226118332748 260.2473971412398,984.7876061974603 261.18040735879856,1016.2984565590041 M261.22621416492694,1017.3956548394619 C198.02082808153952,1018.60874900158 135.76600276874416,1014.3928289032515 100.49210792749298,1012.6456968331322 M261.03272557181555,1014.8075377424095 C206.629185890852,1016.6729232419569 153.80964590940442,1015.3022805873286 100.34336553177485,1015.998130538515 M100.47727972917559,1016.6252303716456 C102.0632775779751,1004.1107424955204 101.73219937364654,994.8412887311689 102.14283654114934,964.6137948333413 M99.94369805509876,1015.1747299387297 C101.11168392315174,1004.4829091550448 100.3647328665793,992.9363948518442 99.11628779958558,965.4411884802812" stroke="#1e293b" stroke-width="1.4" fill="none" stroke-linecap="round" stroke-linejoin="round"/><text x="180" y="990" font-size="16" fill="#475569" text-anchor="middle" dominant-baseline="middle">passthrough</text><path d="M370,1090 L730,1090 L730,1146 L370,1146 Z" fill="#eff6ff" /><path d="M371.10738781759085,1088.370049207863 C447.93715384132776,1090.0218349115999 525.5355732940875,1089.3193919838045 729.0258151976902,1088.7535468178028 M370.80884452486777,1090.371566622051 C464.04564171295743,1088.8138093992131 556.7428129110349,1089.5444158219057 730.4300839936101,1089.3271387438251 M728.6355828026258,1092.0190463693405 C727.659157810252,1100.1844876719865 727.9914620919509,1112.2776311318169 730.9937998632098,1147.993338928779 M730.6892085645735,1089.413540989231 C730.9248622721041,1102.628392479678 729.087608029024,1117.039158587214 728.9537845376487,1145.854758669894 M729.0118334193706,1146.769179378975 C594.0955511540179,1148.2572382206959 457.5164060438662,1147.8068126721437 370.7391424416519,1147.3582198395513 M729.6299501888218,1145.4109196583618 C626.6317763759862,1148.6786570010752 521.6771149064921,1148.4883843308921 370.46266704777776,1145.349587528327 M367.7066687395221,1146.2715218549051 C367.62005133008563,1127.0643539420187 370.0820287796679,1112.4189489824275 370.44965598707597,1087.531031294164 M369.12558504366103,1146.9938321988745 C371.03137604520487,1132.5374485232417 369.95770705593696,1119.3575912988858 370.2861571268825,1089.3794260394336" stroke="#1e293b" stroke-width="1.4" fill="none" stroke-linecap="round" stroke-linejoin="round"/><text x="550" y="1109.375" font-size="15" fill="#1e293b" text-anchor="middle" dominant-baseline="middle">trim messages</text><text x="550" y="1126.625" font-size="15" fill="#1e293b" text-anchor="middle" dominant-baseline="middle">+ append system_fragment</text><path d="M370,1200 L730,1200 L730,1250 L370,1250 Z" fill="#eff6ff" /><path d="M368.71233381224056,1199.760258470853 C465.4561101992088,1200.7340434004673 558.295766219617,1202.0561590588113 729.4019812697646,1201.0454987911648 M369.3668188288632,1199.5162815657975 C494.3657541778883,1198.1876597635182 619.6010948384653,1197.2223221966665 729.8652546801243,1200.7490621536235 M731.8913288618329,1199.7063920945993 C730.8949662036583,1217.7754970238839 732.0247381453036,1236.3219319087418 731.4438686919026,1250.4424733551723 M730.402918617593,1200.7168715997605 C730.4925309439318,1212.5167689326693 729.4262878143477,1224.3205321589453 730.7196601009365,1249.39136921564 M730.0801861494697,1249.967414342446 C639.5585779106913,1252.1279001272812 547.5264316896757,1251.3017144205667 371.472145882434,1249.1497036428793 M729.8444335806793,1250.2175080066288 C603.346907268581,1251.6139425719848 477.56205878947765,1252.0846192892955 370.1163454329823,1250.2587992694198 M368.4526474597841,1248.3968829275716 C368.7822314975306,1233.1148148522252 372.7096398835969,1213.3246501958251 370.18924047916835,1201.660752493876 M368.73354359163517,1251.2296862200453 C369.5005465188308,1238.5107267769977 370.67737592664025,1227.2123045303447 368.70171488343755,1199.8621210430113" stroke="#1e293b" stroke-width="1.4" fill="none" stroke-linecap="round" stroke-linejoin="round"/><text x="550" y="1225" font-size="16" fill="#1e293b" text-anchor="middle" dominant-baseline="middle">forward to api.anthropic.com</text><path d="M370,1300 L730,1300 L730,1356 L370,1356 Z" fill="#eff6ff" /><path d="M370.7396915627482,1300.7670910936347 C450.80294769334455,1299.425139084183 529.4376865221395,1297.936356682417 730.8104815192722,1299.0654034102383 M370.61794140811446,1300.5670502642622 C494.9002500205482,1302.3252108271358 621.347571080007,1301.124779447172 729.9489234989377,1300.0822877988392 M730.5580900627043,1298.8405306163772 C728.5672660535741,1316.829871202461 726.9263073584918,1333.4132851680824 729.1513210154171,1356.103880753194 M730.0997597834869,1298.8619133092595 C730.8464126241878,1317.9347545211822 731.51242922484,1335.166721474194 729.9203967940136,1355.7889586088065 M730.2148114588933,1355.7535172923226 C597.7715962134512,1356.8167164362353 462.8662679557279,1359.8693405146073 370.6252892445373,1356.2483630825163 M730.7199948129074,1355.238440542566 C652.6515580111685,1356.3157962991077 576.382371708588,1356.1596732444266 369.5678930781516,1355.5577995212864 M369.1033837833596,1354.041045359806 C372.436768739838,1345.4119992794995 371.6607319986935,1332.3303677293686 370.29219997528173,1300.009034132132 M369.0458875484771,1356.8446764496277 C371.5418876440116,1338.4845340848283 370.61482261340973,1320.0299879135644 370.08647078732054,1299.5392805793535" stroke="#1e293b" stroke-width="1.4" fill="none" stroke-linecap="round" stroke-linejoin="round"/><text x="550" y="1319.375" font-size="15" fill="#1e293b" text-anchor="middle" dominant-baseline="middle">patch input_tokens</text><text x="550" y="1336.625" font-size="15" fill="#1e293b" text-anchor="middle" dominant-baseline="middle">in SSE message_start</text><path d="M370,1430 L730,1430 L730,1480 L370,1480 Z" fill="#eff6ff" /><path d="M371.14297492836704,1431.545973114617 C467.5689187616262,1428.435782380668 568.2940692328561,1428.9371272815831 731.5671818594273,1430.8317730499277 M370.64418145628895,1429.4249094487923 C501.08704170981446,1429.9951556065578 629.9376283987784,1429.145032950884 730.6294355017862,1430.733267936237 M730.1727010909806,1429.7969915463589 C731.6468160030579,1448.7876891099202 729.0352620110194,1462.6437581827072 732.0214276452742,1480.1558276851947 M730.9609486327893,1428.9981792746573 C730.3069893786845,1448.4475870842275 728.4237435998427,1465.0451201214528 729.4711100879435,1480.6050536478228 M728.4057001355719,1481.2259312179117 C593.2877138292084,1477.3969107582047 455.06935425998967,1477.220520220651 368.7853700786446,1479.5206141647313 M729.9527558898175,1480.8089302012768 C640.8200136014025,1480.5808246483848 553.0526268987508,1481.1956295833224 369.31474685612113,1479.2735069969708 M369.54367447237024,1478.5897970452706 C372.4802158906363,1467.6870506293758 371.19919417498033,1456.7584836843046 369.0666859330493,1429.3531394257243 M369.4322656592535,1480.3342819884645 C371.44787136899726,1462.1981261206267 369.4323520306362,1443.9378006572338 370.1092212947541,1429.0446359183738" stroke="#1e293b" stroke-width="1.4" fill="none" stroke-linecap="round" stroke-linejoin="round"/><text x="550" y="1455" font-size="16" fill="#1e293b" text-anchor="middle" dominant-baseline="middle">stream response to client</text><path d="M100,1200 L260,1200 L260,1256 L100,1256 Z" fill="#f1f5f9" /><path d="M100.07598195946572,1200.7766899853652 C139.14598127992844,1201.4356083217988 172.8148906559083,1199.5200101783528 257.4608609774648,1201.846858871334 M100.76640528567368,1198.8386161434453 C139.60259505041344,1198.4235045732116 178.13368623980898,1199.0368695403688 259.47931572666045,1198.7487852512024 M259.95242000758276,1198.6312655575348 C259.1920873768768,1217.0907917655331 261.97881200817164,1240.6354379771103 259.9281372385179,1258.3557381421597 M260.8344802407765,1199.633682067726 C260.89038124208867,1220.5584292620763 261.2452402217363,1238.8477542471192 259.1668942775987,1254.947436234826 M258.76948760926126,1257.9540495796273 C223.96349608428494,1255.1837304956773 185.4542629654971,1256.8270169652087 99.77985459445354,1254.2333174670475 M258.8275604822897,1257.1634964809953 C218.0929723373042,1254.1667954551801 179.49445842403918,1255.3964695961429 100.6276217127024,1255.5941620653261 M100.31401316158598,1257.860819703932 C101.20326264154085,1245.3203797967444 103.06175635702908,1233.1557301300772 98.04299536675664,1199.5929830362181 M98.79820624549241,1254.7225320614152 C100.29793878240844,1235.5466146445065 100.62424497898073,1217.102706943749 101.27635547877341,1199.3263693124472" stroke="#1e293b" stroke-width="1.4" fill="none" stroke-linecap="round" stroke-linejoin="round"/><text x="180" y="1219.95" font-size="14" fill="#475569" text-anchor="middle" dominant-baseline="middle">forward to</text><text x="180" y="1236.05" font-size="14" fill="#475569" text-anchor="middle" dominant-baseline="middle">api.anthropic.com</text><path d="M550.2908535421135,79.3311873908395 C547.4139489550715,95.88455069312651 547.8228103245833,108.01306028582657 550.9207789618667,121.85408369819706 M549.3937055740257,80.54901876684319 C550.7964180488594,88.40166803722656 550.1092575881953,98.49155378198289 550.2492665138833,119.42605399487005" stroke="#1e293b" stroke-width="1.3" fill="none" stroke-linecap="round" /><path d="M550,120 L545.6503446588877,110.99552897647322 M550,120 L554.3496553411123,110.99552897647322" stroke="#1e293b" stroke-width="1.3" fill="none" stroke-linecap="round"/><path d="M680.7571957120373,157.7434160942786 C711.7729033498064,162.40279614961227 738.360474820956,160.45266921081765 820.55771714174,161.3302874779921 M681.195763316386,161.0916981002517 C709.851077451876,159.29942224398414 742.3957789608231,159.34505761510624 819.4691302327095,159.2461409081115" stroke="#1e293b" stroke-width="1.3" fill="none" stroke-linecap="round" /><path d="M820,160 L810.9955289764732,164.3496553411123 M820,160 L810.9955289764732,155.6503446588877" stroke="#1e293b" stroke-width="1.3" fill="none" stroke-linecap="round"/><text x="750" y="150" font-size="14" fill="#475569" text-anchor="middle" dominant-baseline="middle">no</text><path d="M547.8269328977862,198.19293376058252 C547.6613880727308,209.25317670660058 549.3510920771876,218.45336942292965 550.0505806258984,239.89789644971125 M548.9607572671413,199.21292009387915 C548.5748420062183,209.16932446520028 550.3518240183683,220.34171504485664 550.7802455218226,240.99949804676336" stroke="#1e293b" stroke-width="1.3" fill="none" stroke-linecap="round" /><path d="M550,240 L545.6503446588877,230.99552897647322 M550,240 L554.3496553411123,230.99552897647322" stroke="#1e293b" stroke-width="1.3" fill="none" stroke-linecap="round"/><text x="520" y="220" font-size="14" fill="#475569" text-anchor="middle" dominant-baseline="middle">yes</text><path d="M681.7963229571483,278.97054408805127 C735.7879326212048,279.5042984279239 789.4296815021328,279.6741792117253 819.4468513301834,280.00033666612126 M678.9038883292269,280.9212652443737 C707.4905380689795,280.409799258996 736.7358461735398,280.402566347879 819.280100511586,279.4398574195189" stroke="#1e293b" stroke-width="1.3" fill="none" stroke-linecap="round" /><path d="M820,280 L810.9955289764732,284.3496553411123 M820,280 L810.9955289764732,275.6503446588877" stroke="#1e293b" stroke-width="1.3" fill="none" stroke-linecap="round"/><text x="750" y="270" font-size="14" fill="#475569" text-anchor="middle" dominant-baseline="middle">no</text><path d="M548.3732987458243,322.2776057019561 C551.7298572373038,336.1627247855741 549.5497235782811,346.8766020897373 549.7867194011521,357.70230122373493 M549.4300446911747,321.1624367799597 C548.5657013053626,332.08729427007466 548.8563841360286,342.5529041078571 550.4967563740707,359.90226260814893" stroke="#1e293b" stroke-width="1.3" fill="none" stroke-linecap="round" /><path d="M550,360 L545.6503446588877,350.9955289764732 M550,360 L554.3496553411123,350.9955289764732" stroke="#1e293b" stroke-width="1.3" fill="none" stroke-linecap="round"/><text x="520" y="340" font-size="14" fill="#475569" text-anchor="middle" dominant-baseline="middle">yes</text><path d="M419.2371160348313,400.33058388420625 C356.3439200318313,404.0330663174703 295.47404148423595,402.73569009329185 258.5565036222396,398.8666308084274 M421.15880296021953,400.3347402203511 C387.11646887397023,400.0688044617082 354.54955635668944,399.0114296172488 259.4444996912964,399.43770039198296" stroke="#1e293b" stroke-width="1.3" fill="none" stroke-linecap="round" /><path d="M260,400 L269.0044710235268,395.6503446588877 M260,400 L269.0044710235268,404.3496553411123" stroke="#1e293b" stroke-width="1.3" fill="none" stroke-linecap="round"/><text x="340" y="390" font-size="14" fill="#475569" text-anchor="middle" dominant-baseline="middle">no</text><path d="M551.2786463786247,442.2143066696443 C551.526430813674,453.62877231933805 549.874276971736,462.4062944212964 550.6945042824924,477.9896076297419 M549.441381409312,439.33050428720185 C548.6744991380559,451.6160874544058 549.5930632060542,460.3345366735034 550.8743188773791,479.33260649827236" stroke="#1e293b" stroke-width="1.3" fill="none" stroke-linecap="round" /><path d="M550,480 L545.6503446588877,470.9955289764732 M550,480 L554.3496553411123,470.9955289764732" stroke="#1e293b" stroke-width="1.3" fill="none" stroke-linecap="round"/><text x="520" y="460" font-size="14" fill="#475569" text-anchor="middle" dominant-baseline="middle">yes</text><path d="M419.47562722216304,518.0263913494617 C359.82060781150483,519.7436928216274 301.545114488468,521.6466805911481 262.19291355227705,518.4450049159414 M419.1493455253462,520.1049537503819 C370.74822171123094,518.7483832367873 319.28671478681696,520.3494675006451 261.00305396652993,519.0933556093414" stroke="#1e293b" stroke-width="1.3" fill="none" stroke-linecap="round" /><path d="M260,520 L269.0044710235268,515.6503446588877 M260,520 L269.0044710235268,524.3496553411123" stroke="#1e293b" stroke-width="1.3" fill="none" stroke-linecap="round"/><text x="340" y="510" font-size="14" fill="#475569" text-anchor="middle" dominant-baseline="middle">yes</text><path d="M550.5303439832082,561.4220607479928 C549.0741344607441,573.8868648424524 549.924782619475,587.4003368307292 551.1369336863553,600.0690818628734 M550.0694589705403,559.065481783207 C549.0857406747033,572.2639100081409 549.7361753687738,586.1992826570672 551.1041241312778,598.9791554900153" stroke="#1e293b" stroke-width="1.3" fill="none" stroke-linecap="round" /><path d="M550,600 L545.6503446588877,590.9955289764732 M550,600 L554.3496553411123,590.9955289764732" stroke="#1e293b" stroke-width="1.3" fill="none" stroke-linecap="round"/><text x="520" y="580" font-size="14" fill="#475569" text-anchor="middle" dominant-baseline="middle">no</text><path d="M418.5435937019449,642.0987168608981 C357.5288943933797,640.0484574463392 295.5154830575888,639.9489351480529 259.9963710416942,639.2282462386928 M420.1727772053519,639.7297136466068 C359.1690742609907,638.1615253121262 295.4875954201171,639.2282957606081 259.29299650154155,640.4004725755018" stroke="#1e293b" stroke-width="1.3" fill="none" stroke-linecap="round" /><path d="M260,640 L269.0044710235268,635.6503446588877 M260,640 L269.0044710235268,644.3496553411123" stroke="#1e293b" stroke-width="1.3" fill="none" stroke-linecap="round"/><text x="340" y="630" font-size="14" fill="#475569" text-anchor="middle" dominant-baseline="middle">yes</text><path d="M548.5272526169921,682.3880282129353 C548.4604594223738,694.7237808248625 549.1056868783509,707.5495813119171 550.14787956354,718.621300031249 M549.3644249189496,681.189433889042 C549.0091463356855,690.0831939199738 550.6618243612727,700.8720574043384 550.8268516038167,719.6727774818899" stroke="#1e293b" stroke-width="1.3" fill="none" stroke-linecap="round" /><path d="M550,720 L545.6503446588877,710.9955289764732 M550,720 L554.3496553411123,710.9955289764732" stroke="#1e293b" stroke-width="1.3" fill="none" stroke-linecap="round"/><text x="520" y="700" font-size="14" fill="#475569" text-anchor="middle" dominant-baseline="middle">no</text><path d="M419.4751429541983,757.6086107509277 C385.80552745888593,757.0742156873641 357.05789763134106,759.3407202331482 260.080942860598,761.2151662734988 M420.28546549310187,759.8035742383797 C362.9613678946873,760.8322839769685 306.06595710431577,761.8982493943499 259.4288272425339,760.5674138501003" stroke="#1e293b" stroke-width="1.3" fill="none" stroke-linecap="round" /><path d="M260,760 L269.0044710235268,755.6503446588877 M260,760 L269.0044710235268,764.3496553411123" stroke="#1e293b" stroke-width="1.3" fill="none" stroke-linecap="round"/><text x="340" y="750" font-size="14" fill="#475569" text-anchor="middle" dominant-baseline="middle">no</text><path d="M549.6838836267468,797.7299508128777 C549.628988261936,812.9211413854986 547.2188065219999,824.1498752307086 550.3774832188725,859.6666592744446 M551.0840585382432,798.8381675418816 C550.5076025362562,821.5050619814275 549.3421254412382,843.9975842648657 550.9570059890066,860.4824778834727" stroke="#1e293b" stroke-width="1.3" fill="none" stroke-linecap="round" /><path d="M550,860 L545.6503446588877,850.9955289764732 M550,860 L554.3496553411123,850.9955289764732" stroke="#1e293b" stroke-width="1.3" fill="none" stroke-linecap="round"/><text x="520" y="830" font-size="14" fill="#475569" text-anchor="middle" dominant-baseline="middle">yes</text><path d="M548.4018054552071,916.3793174325994 C551.7238239713835,923.1477975661651 548.9774733881058,930.570085253737 550.4996316629652,949.207087861627 M549.0872725022668,916.4637607580098 C549.6237028793688,926.8945368198305 550.8452120818187,939.3152845139022 550.6938189671333,949.1575353410763" stroke="#1e293b" stroke-width="1.3" fill="none" stroke-linecap="round" /><path d="M550,950 L545.6503446588877,940.9955289764732 M550,950 L554.3496553411123,940.9955289764732" stroke="#1e293b" stroke-width="1.3" fill="none" stroke-linecap="round"/><path d="M418.84379512343696,988.9805061569397 C362.99900477587204,991.5495198793429 302.32650031025713,987.964619919188 258.50099070370067,990.1163517961596 M419.79650398255626,988.9388196096464 C378.1269019624009,992.1642068368818 334.39638766448286,992.2726286474121 260.47587368904016,990.3736664308879" stroke="#1e293b" stroke-width="1.3" fill="none" stroke-linecap="round" /><path d="M260,990 L269.0044710235268,985.6503446588877 M260,990 L269.0044710235268,994.3496553411123" stroke="#1e293b" stroke-width="1.3" fill="none" stroke-linecap="round"/><text x="340" y="980" font-size="14" fill="#475569" text-anchor="middle" dominant-baseline="middle">no</text><path d="M548.7382435201833,1027.7144384597518 C549.0282681351208,1053.4074018566725 547.565391431172,1075.6147192594797 548.9106849306842,1088.4985923089196 M549.4835922695569,1029.6327903126441 C549.1459718864203,1051.665139978341 548.8615601967301,1074.0134435005086 549.1020063436418,1089.8162870824942" stroke="#1e293b" stroke-width="1.3" fill="none" stroke-linecap="round" /><path d="M550,1090 L545.6503446588877,1080.9955289764732 M550,1090 L554.3496553411123,1080.9955289764732" stroke="#1e293b" stroke-width="1.3" fill="none" stroke-linecap="round"/><text x="520" y="1060" font-size="14" fill="#475569" text-anchor="middle" dominant-baseline="middle">yes</text><path d="M548.3603189544899,1145.9034499267182 C548.776706152683,1159.1460668591249 547.4019897331061,1171.8636979956673 550.0563635979246,1199.600023802278 M550.3661276818544,1145.366283124104 C551.4398901834365,1159.8425196778521 551.3811945946918,1174.1046843961306 549.2624558484366,1200.4833603930035" stroke="#1e293b" stroke-width="1.3" fill="none" stroke-linecap="round" /><path d="M550,1200 L545.6503446588877,1190.9955289764732 M550,1200 L554.3496553411123,1190.9955289764732" stroke="#1e293b" stroke-width="1.3" fill="none" stroke-linecap="round"/><path d="M548.9066463932462,1249.7632836495377 C548.1293917247475,1268.7555970250855 550.2265100507943,1290.1401600181214 548.2233265850265,1300.6891163480725 M551.1105629521776,1250.0668253840993 C549.8223001858237,1262.4104246926865 551.4163845272544,1276.1864392267237 551.1714705195293,1300.8536932545496" stroke="#1e293b" stroke-width="1.3" fill="none" stroke-linecap="round" /><path d="M550,1300 L545.6503446588877,1290.9955289764732 M550,1300 L554.3496553411123,1290.9955289764732" stroke="#1e293b" stroke-width="1.3" fill="none" stroke-linecap="round"/><path d="M550.3828702081254,1358.028194132756 C548.4803203466197,1380.931227211164 550.1267205264653,1411.2569830929888 548.504967147855,1431.0189158065211 M549.4802199100646,1356.2005740664865 C550.6514761074825,1370.8569760881937 548.6830943851736,1384.6247163102366 551.1917141615445,1431.1881819883972" stroke="#1e293b" stroke-width="1.3" fill="none" stroke-linecap="round" /><path d="M550,1430 L545.6503446588877,1420.9955289764732 M550,1430 L554.3496553411123,1420.9955289764732" stroke="#1e293b" stroke-width="1.3" fill="none" stroke-linecap="round"/><path d="M178.72344458099215,424.34888943584065 C178.92487720855897,450.305618427238 179.67470504924535,474.3356630849429 181.12591351409435,493.9142073037691 M179.70643886195847,424.7064326110997 C179.80701690853405,448.77566622434045 180.45879700587457,473.5090860141389 180.45842235425482,494.12327807807253" stroke="#1e293b" stroke-width="1.3" fill="none" stroke-linecap="round" stroke-dasharray="6,5"/><path d="M180,495 L175.6503446588877,485.9955289764732 M180,495 L184.3496553411123,485.9955289764732" stroke="#1e293b" stroke-width="1.3" fill="none" stroke-linecap="round"/><path d="M179.34836667634002,444.65644179097177 C180.91273266953178,683.0532407594056 180.27870715929706,920.5741744929264 180.60408626010405,1200.1392931400676 M179.57390029245312,444.9450815269967 C180.6032755282635,673.1184952150539 180.7084207493634,900.582225817835 180.22410626158668,1200.4722858041066" stroke="#1e293b" stroke-width="1.3" fill="none" stroke-linecap="round" /><path d="M179.2819230456207,564.31764665862 C176.89542398311968,716.6545688158731 176.60061472435294,867.2808609678827 179.3370852162681,1199.0743755892752 M179.68050987685768,565.0382779745626 C178.61612271822227,801.6371271701315 178.36546153854363,1039.2077445337688 180.30346201781987,1200.0044925732357" stroke="#1e293b" stroke-width="1.3" fill="none" stroke-linecap="round" /><path d="M179.20434799650778,684.5222282947042 C180.96253501865456,825.0898497156136 179.6105624744661,966.9694431913717 180.76925909020255,1200.1324659352751 M180.04629136806176,684.5504675037749 C178.33253439620438,866.0134026816727 178.41566241065436,1046.209683257146 180.13281108102942,1200.4445468290373" stroke="#1e293b" stroke-width="1.3" fill="none" stroke-linecap="round" /><path d="M178.9684902213669,805.5679147271768 C182.28566706996574,901.6058540289755 182.60112035187512,995.557769096183 180.95492871244753,1199.9865136493556 M180.2834887927519,805.6144849042452 C179.58556662637955,962.0067755629685 179.66339854288032,1119.2672895248113 180.49799434728158,1200.3470047782885" stroke="#1e293b" stroke-width="1.3" fill="none" stroke-linecap="round" /><path d="M178.39413086404195,1034.439408663936 C178.95698158863203,1101.4030965867698 182.17796769854093,1161.9945043035918 181.80713776552687,1201.7223902161395 M180.18766855009915,1034.943562099812 C178.49495245668822,1092.311166607427 178.8488334999421,1146.5440767372843 180.40405131780375,1199.5095942911228" stroke="#1e293b" stroke-width="1.3" fill="none" stroke-linecap="round" /><path d="M180,1200 C180,1200 180,1200 180,1200 M180,1200 C180,1200 180,1200 180,1200" stroke="#1e293b" stroke-width="1.3" fill="none" stroke-linecap="round" /><path d="M180,1200 L170.99552897647322,1204.3496553411123 M180,1200 L170.99552897647322,1195.6503446588877" stroke="#1e293b" stroke-width="1.3" fill="none" stroke-linecap="round"/><path d="M259.2017902685253,1226.0688214043832 C302.31186744009705,1309.5700294785793 342.2014838999997,1394.121169269844 371.575085619853,1454.5145628600546 M260.378754029964,1225.0461547769212 C289.8001059700381,1290.2956648586498 321.41485441211546,1356.7425840422768 369.1424542896,1454.6943405713732" stroke="#1e293b" stroke-width="1.3" fill="none" stroke-linecap="round" /><path d="M370,1455 L362.19099854104707,1448.7534412502505 M370,1455 L370.0389444121224,1445.0000758336494" stroke="#1e293b" stroke-width="1.3" fill="none" stroke-linecap="round"/></svg>