<svg xmlns="http://www.w3.org/2000/svg" viewBox="0 0 1100 1800" font-family="'Caveat', 'Kalam', 'Comic Sans MS', cursive"><rect width="1100" height="1800" fill="#fbf7ef"/><path d="M370,30 L730,30 L730,80 L370,80 Z" fill="#dbeafe" /><path d="M369.86601243385746,30.311610916973642 C475.54211477245656,29.210483500108776 580.3956198107409,31.54424865071686 729.5580538617978,28.753539298419984 M370.12371450197503,29.691341890703647 C503.92034186494044,30.790629922864458 638.0608541426751,30.680031591763164 729.193357134045,30.664344260806114 M728.406741104514,28.514884061249592 C732.1239291996881,44.16831063881348 727.7815218315404,54.31257667668609 731.0399111314624,81.9034804333986 M729.6711416767095,29.36196746456423 C731.1277355173547,44.38680046495524 729.141262517128,61.17091551979608 730.6534159954242,79.86084533647589 M730.5543258968887,79.48973196483752 C645.8268311583774,79.18681594761478 563.8546919262049,80.8630501262636 370.15140137516175,80.15103559251031 M730.2898857484017,79.95382036683644 C602.7309458374413,82.10658395337455 475.5785318455709,82.13933315915835 370.19934509872064,80.62298155112347 M368.7031002984623,78.29011243318084 C368.8711948117688,67.54322903649785 371.7478485165195,48.355606675628344 369.5024377232972,29.861500837497324 M371.1416476761811,79.82946649191543 C370.6446157640258,67.09453622631307 370.6972328116719,55.31632947679151 370.86245262184343,30.4312538084977" stroke="#1e293b" stroke-width="1.4" fill="none" stroke-linecap="round" stroke-linejoin="round"/><text x="550" y="55" font-size="17" fill="#1e293b" text-anchor="middle" dominant-baseline="middle">Client: POST /v1/messages</text><path d="M550,120 L680,160 L550,200 L420,160 Z" fill="#f1f5f9" /><path d="M550.623042738955,118.04835258424328 C599.6791241364464,133.80601613460388 647.9484525371829,150.28837493590396 682.1102540456384,160.1319671243489 M549.5003204654498,120.38512046965987 C597.6680071165329,135.23888490375077 644.3791575935817,150.79069581302184 680.2922246199165,160.80141760305708 M679.4291992447461,161.0508532069566 C650.3888908979701,170.4723984311962 621.7459611546071,175.9075477518607 548.1379385086639,199.8107149167079 M681.1783144252553,160.38113788034835 C628.8661823653331,175.04621442021516 577.9168468027021,192.21315724146518 549.9792866859034,198.94002346548038 M547.9862012087891,199.69921148991511 C521.1854092989672,193.73050549659877 489.8650403125608,180.78090359515568 419.8903057787616,160.80297141961253 M551.0281950412897,200.04051329327493 C504.5948713674269,186.41373298391065 459.38451149375487,172.94253988809635 420.9258773937974,160.12181716673874 M419.43299266432257,157.6566026268536 C462.99357745792776,144.40466828014456 510.01851903418117,131.52140553966544 549.748156366709,120.87952706767675 M420.4895139071392,160.12415418450163 C454.79380250501407,147.84767450034383 491.45254363366473,136.47692052369345 549.3217750041329,119.09915022362992" stroke="#1e293b" stroke-width="1.4" fill="none" stroke-linecap="round" stroke-linejoin="round"/><text x="550" y="151.375" font-size="15" fill="#1e293b" text-anchor="middle" dominant-baseline="middle">anthropic-version</text><text x="550" y="168.625" font-size="15" fill="#1e293b" text-anchor="middle" dominant-baseline="middle">header present?</text><path d="M820,135 L980,135 L980,185 L820,185 Z" fill="#fee2e2" /><path d="M821.2907668430045,135.65991632604258 C882.5713561143273,135.44394951413983 946.3446782429157,133.8424796900017 979.8422647360424,134.44330981226776 M820.1481393714151,134.798965663696 C881.4159251199479,134.78958624342022 944.2376060739786,134.9023918523726 979.9645530197957,136.1481051216473 M979.4377505326502,133.40893615104076 C981.1160634088419,150.9851962071197 980.6205226424083,168.98336761568734 977.7276518336239,184.6305975329479 M980.7124155215644,133.70332534600217 C981.1765961165975,153.01063105258424 978.7788336491923,172.64737650773947 979.9774388978802,184.03076559637447 M981.4344914575464,183.89246756614375 C927.5416995145829,186.35846325097782 870.194575598384,186.78969269819436 822.4707743025075,187.58587862420538 M979.2066193112988,185.58721656406684 C939.5746231176618,187.20943894032624 897.9318145439805,186.9604640106983 819.5754172881858,185.6377402320351 M820.4795656127321,187.45170711677713 C822.2587493019106,165.19564420498486 818.3803059394136,149.05348434628948 820.7143563985164,135.8072990287657 M818.7873303610776,184.11981304429148 C820.1271751012376,173.028945879315 820.5107595806672,159.92041467100097 821.1843117231448,134.03525438578887" stroke="#1e293b" stroke-width="1.4" fill="none" stroke-linecap="round" stroke-linejoin="round"/><text x="900" y="160" font-size="16" fill="#1e293b" text-anchor="middle" dominant-baseline="middle">400 — reject</text><path d="M550,240 L680,280 L550,320 L420,280 Z" fill="#f1f5f9" /><path d="M550.0581514747173,241.04916163133151 C594.586062276056,255.34898761601028 638.503424663327,266.4934154874405 681.7202726721306,281.654748505437 M549.2384152298437,240.90581234426875 C598.9832806122448,256.4801167836256 648.6017364886361,272.4917767234819 679.659849121923,280.6612749799179 M682.5272638089447,282.32540244610266 C627.3223070198889,296.84322447243375 576.9645026958536,312.58187888684546 551.8632161385226,321.6980064015926 M681.0956245858816,281.28970107708045 C629.2735973424601,297.3406048374321 580.2824309043652,311.3605520124702 550.2821224685306,320.05014471701253 M552.5869324230913,318.52634901450386 C500.6785058880914,303.04109300218545 452.6764921748874,289.57818831731066 418.97667666668093,280.78993444182305 M550.9360246903088,318.9471773077825 C517.7078785093468,307.90889919221985 483.10692004124604,297.44103454700587 419.3679546535928,278.73129168663394 M421.6315717284997,280.8495600923329 C451.5200358121463,268.33548397151066 484.8002995502264,258.5992436799219 550.9363341077609,238.5310070014233 M420.61838143346876,280.5354062979767 C465.1041299020085,266.486742243003 510.9249709533065,252.175307756212 549.4108329006649,239.17887059284098" stroke="#1e293b" stroke-width="1.4" fill="none" stroke-linecap="round" stroke-linejoin="round"/><text x="550" y="280" font-size="15" fill="#1e293b" text-anchor="middle" dominant-baseline="middle">path starts with /v1/?</text><path d="M820,255 L980,255 L980,305 L820,305 Z" fill="#fee2e2" /><path d="M822.1732192639331,254.93582758998883 C864.5809787407787,251.0968086577274 912.2455877277248,252.43849709247704 979.1072279109542,255.8158782049685 M821.1241908980164,253.79629168109525 C879.5893289436142,253.04383993223556 939.3645602893009,253.39323781503163 978.9356441469084,254.88544473180397 M978.3021390587319,253.15621283630358 C982.3618390033647,266.32120874590817 981.9951073860473,280.59165383275206 980.1262276793309,303.1812943927845 M980.8976393763467,254.14422448875246 C979.8253951920298,265.2234488101835 979.348640791878,274.6817504108841 980.6293969540536,305.2488665626246 M978.8551876896028,302.5996503017684 C939.058523601904,305.4924549142757 900.5264489833883,306.067017613379 822.3628473433927,304.44569575514055 M979.3447234457403,304.0578153700099 C921.3402336585899,301.9939124788307 858.991899162531,301.9494213200651 819.9448182857491,304.52836611833436 M821.9879082104237,305.6658728366251 C821.7139560845008,294.02498034273833 821.1281625765961,284.1222225075005 821.3580917257249,253.0737166393305 M819.1263958983844,305.32899975700565 C820.6790606155039,288.9041216159895 819.8919569318962,271.61719986119834 821.0213579678881,254.11497172495461" stroke="#1e293b" stroke-width="1.4" fill="none" stroke-linecap="round" stroke-linejoin="round"/><text x="900" y="280" font-size="15" fill="#1e293b" text-anchor="middle" dominant-baseline="middle">403 — forbidden</text><path d="M550,360 L680,400 L550,440 L420,400 Z" fill="#f1f5f9" /><path d="M548.6060970731226,360.42086408068764 C600.0621239794641,373.07928413641605 647.4642594973287,388.49553054276083 681.4049761691737,399.0378447026308 M549.3830452308326,359.49758980986246 C595.635772325543,373.0927208683213 641.2777972189947,385.5556244363023 679.9778508483553,400.2886977711974 M682.4376484970091,398.5218833797689 C652.8458837496817,408.0797113967589 620.80103531184,418.14419698771684 550.2606925438874,440.7359011822463 M681.136520069026,399.3363809312036 C650.0167544635509,407.5729841394015 620.4066204179835,418.98971756401386 549.7530570344101,438.8576905100996 M547.5595780142986,437.9394468596691 C499.46374354969635,424.6536624005015 451.6193857782274,406.9461811408426 418.9200038622221,397.79777271648993 M551.050558169064,440.5600014322429 C508.9510831281,427.8021707170505 465.8419822128751,416.06881774583786 419.72775361155306,400.37436584684957 M417.8418859124476,402.13579333992254 C466.36787962914735,387.13879705620406 508.4504295149309,372.8184308285117 550.997897202456,358.0918963718982 M419.11113803279136,401.1260623258027 C457.7369750017759,388.8638804801926 493.88219221892757,376.55261211385545 549.766189964228,359.8353109141889" stroke="#1e293b" stroke-width="1.4" fill="none" stroke-linecap="round" stroke-linejoin="round"/><text x="550" y="391.375" font-size="15" fill="#1e293b" text-anchor="middle" dominant-baseline="middle">/v1/messages</text><text x="550" y="408.625" font-size="15" fill="#1e293b" text-anchor="middle" dominant-baseline="middle">or count_tokens?</text><path d="M550,480 L680,520 L550,560 L420,520 Z" fill="#f1f5f9" /><path d="M550.4582908363773,480.6346797451451 C586.7524756526474,488.7062341291421 624.5135194451229,502.5604984975675 679.7911392282344,519.6096052570745 M550.6060806399138,481.1741667200076 C579.066734785155,489.01851573892026 606.8913102071325,497.77751265482016 679.8053758589118,519.9063161591126 M678.7060073096752,518.6739852598084 C636.1814029151304,532.786650254508 591.0525890010914,544.7625830402777 548.9468962307554,561.2617893447076 M679.9934784011392,519.3478592099971 C629.2508159430727,535.6622021410966 577.2331053392978,552.4732803335444 550.5361023982039,561.1859045491475 M548.0842196914122,561.1577032043663 C518.463117953847,548.5638672090253 490.28368470522065,541.6904729390419 421.27176445331054,519.6529171649532 M548.8550432294722,559.5021672314582 C507.97163413539204,544.9755537147263 463.9634691057269,532.31964035509 421.27170495876095,519.343830463028 M421.0610295307408,521.3051002207757 C459.37586567143916,505.6047088326847 501.50835861925015,495.501444664755 547.8022198582145,479.31101187172254 M421.04781149462593,519.4269641742204 C463.73400342514987,504.7365688683162 506.3584569251645,492.8202969168644 550.1901216912469,480.9833993887174" stroke="#1e293b" stroke-width="1.4" fill="none" stroke-linecap="round" stroke-linejoin="round"/><text x="550" y="520" font-size="15" fill="#1e293b" text-anchor="middle" dominant-baseline="middle">proxy paused?</text><path d="M550,600 L680,640 L550,680 L420,640 Z" fill="#f1f5f9" /><path d="M547.8832457180446,599.6647650882144 C595.2842123569787,612.6256610289633 646.5217659427975,631.744219687356 682.3643426270381,637.5107914156239 M549.0182625465885,599.5057651079774 C602.9649072831297,615.5962675315207 652.1588218446769,630.9067204880389 680.7590293975868,640.7168273095403 M681.1304889566932,639.696816176863 C643.834344854599,649.4321087644554 606.9974357407662,660.6831822436927 550.5862586280053,679.1156930816472 M680.8136731625098,638.974215583183 C642.147575854582,649.1430585820776 605.5225200357445,660.7744629306761 549.1692287833727,679.526181355793 M552.5501496584677,679.3906386671274 C506.95957865367336,665.1255148861115 463.3998823319643,654.4981909640767 422.10977890513016,641.6214744777782 M548.7280976363012,680.9050764486202 C506.3721633833842,665.4495024883756 463.0781436670464,653.3820550363156 419.0536933222236,639.5038624357243 M419.74383840257104,639.6460016244354 C465.70983004519235,625.346562209517 514.5424482445736,609.8277901002084 547.7519141797573,602.0042702287998 M418.84582789604553,640.2384108528173 C465.4401789789259,626.7575301658902 509.84477078639577,613.9476801601588 551.0524657189583,599.2748608599444" stroke="#1e293b" stroke-width="1.4" fill="none" stroke-linecap="round" stroke-linejoin="round"/><text x="550" y="631.375" font-size="15" fill="#1e293b" text-anchor="middle" dominant-baseline="middle">thinking-state</text><text x="550" y="648.625" font-size="15" fill="#1e293b" text-anchor="middle" dominant-baseline="middle">in request?</text><path d="M550,720 L680,760 L550,800 L420,760 Z" fill="#f1f5f9" /><path d="M548.8792502879948,717.9855377640667 C601.5116075282488,732.4699806963006 652.3589828334456,748.0942283196371 677.7820357625354,760.3138659178236 M550.8036572129313,720.1860429390557 C584.1634976229642,728.2823532263492 615.4901946175081,738.6227459286655 680.1105926112463,761.2354857613914 M680.0069125594597,758.1196789082385 C651.6084337755697,768.5059565197997 615.6814717507111,778.6232485678984 547.8718617853243,801.6625772114954 M679.0449893943539,759.2978588417628 C652.5775970004786,768.9311582054713 624.871875754635,777.615671094519 549.793012424772,800.6331248031267 M548.1785144457906,801.1827019367264 C513.1242627995796,790.0879503646411 470.04095083520724,775.9462454857713 420.1239925219418,759.8700892136956 M549.0113404593639,801.1288398691903 C520.1563620804103,790.4456256876579 488.72830753000676,780.1285542433554 419.2331183378802,760.0374494825712 M422.21480726262706,757.4890226261191 C467.52514496923646,746.4178545737867 508.47405503538255,734.244362606377 548.9214208914501,719.6819356623142 M420.4947962013928,760.6814325765047 C457.0758366497956,746.2598793500796 496.07072129193324,735.2248826199212 548.8834602025521,719.9242723156098" stroke="#1e293b" stroke-width="1.4" fill="none" stroke-linecap="round" stroke-linejoin="round"/><text x="550" y="751.375" font-size="15" fill="#1e293b" text-anchor="middle" dominant-baseline="middle">token +</text><text x="550" y="768.625" font-size="15" fill="#1e293b" text-anchor="middle" dominant-baseline="middle">server reachable?</text><path d="M370,860 L730,860 L730,916 L370,916 Z" fill="#dbeafe" /><path d="M371.1017138739336,861.2740057259649 C460.6627895136799,859.3834825999703 548.7403726634386,856.1758957777897 729.2200223601182,860.5309089794409 M369.6205757395028,860.1662625991114 C508.9696060881765,859.5881284668324 646.4492748801661,859.2413327038142 729.8627914202431,859.4855876426965 M728.8879925208229,858.7169463090478 C731.1758251007612,870.3580351491594 731.6253367855767,884.7530159398813 728.1685878188042,915.1870628052915 M729.9932705466342,858.8872883155003 C729.037653673833,879.5682137988375 728.8031519816009,901.6492476009308 731.2291859677094,916.415255686945 M729.1021278909203,914.7964989819426 C602.0740790961064,916.8579061991123 475.201023467684,916.5692256087269 370.3092066361731,916.190167017395 M730.761457505142,916.6592592613009 C599.4853583117942,912.6649488500867 469.9423495278573,912.5919906005633 370.74229772801925,915.5990887271862 M371.7693960783678,915.6543453905002 C368.1966192252699,896.6795336943495 367.86236438445917,878.1038802177377 368.4566405198273,861.0132833289238 M369.30128058886595,916.1281584382218 C369.5757152338292,893.0460827999156 369.7706563332864,871.8378023085121 369.9690413702808,859.1827031444842" stroke="#1e293b" stroke-width="1.4" fill="none" stroke-linecap="round" stroke-linejoin="round"/><text x="550" y="879.375" font-size="15" fill="#1e293b" text-anchor="middle" dominant-baseline="middle">POST /api/cli/proxy/prepare</text><text x="550" y="896.625" font-size="15" fill="#1e293b" text-anchor="middle" dominant-baseline="middle">800ms budget</text><path d="M550,950 L680,990 L550,1030 L420,990 Z" fill="#f1f5f9" /><path d="M548.1342645937067,949.9510626303642 C585.1154552532234,959.8886271912158 616.5445788840561,971.4679959913437 682.5795185595417,990.5728894795201 M549.9747565727818,950.7874838256847 C584.9672064251212,961.0672477220526 620.0109586236425,969.9872488912791 680.7531698613105,988.777857593487 M681.9278325589745,988.0999598925831 C643.0058590245258,999.7440060132828 603.3008708888373,1009.6762461094462 548.9986645743302,1030.459445606032 M680.1010349620122,991.0588669020659 C629.1025637956211,1005.992359185273 576.4851207534994,1021.7289838362349 549.1800379692161,1030.8534771523898 M552.0853256558366,1029.3329675885857 C522.8003452408102,1022.3446949920266 492.93223846177114,1015.0248656117078 418.41452495207557,991.2583132881315 M550.0816419446102,1030.7038522749863 C521.6100282463178,1020.0961258982487 490.9157162245383,1010.7993667598329 421.09814776763443,990.474995236742 M418.7756297977108,991.0167719691594 C468.95194474043524,973.0566252051877 511.83642999939366,962.1869309933074 551.1602346908373,949.4302917943202 M421.1579371574833,989.0123115388714 C452.25866542132263,977.5269351076696 483.6559564880017,968.5908095679038 549.8670376589162,950.4502356006552" stroke="#1e293b" stroke-width="1.4" fill="none" stroke-linecap="round" stroke-linejoin="round"/><text x="550" y="981.375" font-size="15" fill="#1e293b" text-anchor="middle" dominant-baseline="middle">server responded</text><text x="550" y="998.625" font-size="15" fill="#1e293b" text-anchor="middle" dominant-baseline="middle">in time?</text><path d="M370,1090 L730,1090 L730,1146 L370,1146 Z" fill="#dbeafe" /><path d="M369.72906326035525,1091.601814402546 C490.82864864347863,1093.7268665812649 613.9736234095283,1093.1950570347685 730.9354205949238,1089.407698304402 M369.45015229255864,1090.1474740123613 C449.3518056418818,1087.7053626841357 527.7440506760851,1088.3370585750583 729.5757385415566,1090.3794324827377 M728.0054735196672,1087.5926712281107 C730.8819557952364,1101.9053722815286 728.6345887451299,1110.958379564176 728.5612896919002,1144.7962472306253 M731.0086976817581,1089.8287972090639 C730.7650585473085,1106.244425046717 729.9950265241848,1121.035445066873 729.4759182756827,1146.3044726757198 M729.8671032203916,1145.4934641482835 C587.3446458661398,1146.9737963628477 446.32101161146664,1147.3212897546134 369.02783932261957,1147.6161909325097 M729.9295377579149,1146.3420428229447 C632.9426353591808,1146.1087322584285 536.9912460561259,1146.5619730979445 369.3485126594696,1145.5181918305295 M369.4540228590271,1147.8536898108275 C371.60860434083884,1134.5460318619425 371.87069855922925,1122.6157404217458 368.8348710730077,1091.1268840178343 M368.8033078751371,1145.2675411998614 C369.5677405379595,1130.4685354366463 369.36279502302915,1115.1369134060806 370.43204232601477,1089.4789454490963" stroke="#1e293b" stroke-width="1.4" fill="none" stroke-linecap="round" stroke-linejoin="round"/><text x="550" y="1109.375" font-size="15" fill="#1e293b" text-anchor="middle" dominant-baseline="middle">trim messages</text><text x="550" y="1126.625" font-size="15" fill="#1e293b" text-anchor="middle" dominant-baseline="middle">+ append system_fragment</text><path d="M370,1200 L730,1200 L730,1250 L370,1250 Z" fill="#dbeafe" /><path d="M370.2674907482831,1200.2929617498232 C457.8299487904444,1197.234002269533 548.4838885749793,1198.2812563896548 729.9918287191302,1198.6255089775714 M369.92742052406646,1200.533260763312 C478.274579522221,1198.6685516808843 585.0960482886234,1197.7919360134301 729.7816718464907,1199.613909070027 M728.3562338693208,1198.4136748463977 C728.2696112090281,1215.9623930358387 728.7563763573205,1235.5180777002367 730.0920801731836,1251.2955335586944 M730.9124623826032,1200.7311044633145 C730.5627083128052,1212.5539093259415 730.9889287924195,1228.2314778306268 729.8184518125305,1250.5075580761186 M731.48450037683,1249.6956686092763 C627.0221083360746,1250.6112231708921 527.751847193116,1249.0150480198156 369.431373081907,1249.775728461485 M729.2210835100803,1249.2309173666947 C648.5883496751654,1248.6077282110214 568.3462363718388,1248.6923673411027 370.0489010258423,1249.2135900247117 M372.22595670490364,1250.4917115068283 C369.2446199209801,1233.4958144773818 367.40956894263763,1219.9655816431432 369.8660698228032,1201.1232711173027 M370.099279967352,1250.870708365057 C370.20691908468973,1235.3111541122307 369.1826142830924,1220.891679576189 369.65339921997327,1199.586880894381" stroke="#1e293b" stroke-width="1.4" fill="none" stroke-linecap="round" stroke-linejoin="round"/><text x="550" y="1225" font-size="16" fill="#1e293b" text-anchor="middle" dominant-baseline="middle">forward to api.anthropic.com</text><path d="M370,1300 L730,1300 L730,1356 L370,1356 Z" fill="#dbeafe" /><path d="M369.78176761442614,1298.607598524178 C496.67287250758784,1301.8857321308217 622.0947774839445,1301.3289939245753 728.810351484094,1298.37970377454 M369.2630474319821,1299.4633626646994 C506.8569987010067,1302.4500525047972 641.5853428914934,1301.407303973718 729.7505520938255,1300.706943824377 M727.7893175649183,1298.6847129328337 C731.7316341627948,1312.0597534122403 728.5937426954026,1329.437878393695 730.0681346703504,1355.5235756812926 M730.4885881439712,1299.6963615795196 C728.3487097997186,1317.3542671512341 729.8268525506328,1331.6912116339943 729.9361018968339,1356.2229089863645 M730.3367755031506,1356.9510410874834 C634.9470984754282,1359.996335534102 539.3611707007267,1358.0582489166104 369.9449712503381,1354.9100282798495 M729.3273938690796,1356.5278640547206 C624.7482009041121,1354.5576941894951 518.2046477796848,1353.7653633350712 370.3619722180909,1356.1001622843999 M367.65208045490135,1357.535585630942 C368.06102481835694,1344.1627821000038 368.7100240433706,1333.6286230825222 372.1092861076545,1301.124149347685 M369.4321325981317,1355.4406822405062 C368.66850475029446,1343.6430793896823 370.16721839525803,1329.7532135358522 369.7522731427435,1299.5861321914804" stroke="#1e293b" stroke-width="1.4" fill="none" stroke-linecap="round" stroke-linejoin="round"/><text x="550" y="1319.375" font-size="15" fill="#1e293b" text-anchor="middle" dominant-baseline="middle">patch input_tokens</text><text x="550" y="1336.625" font-size="15" fill="#1e293b" text-anchor="middle" dominant-baseline="middle">in SSE message_start</text><path d="M370,1430 L730,1430 L730,1480 L370,1480 Z" fill="#dbeafe" /><path d="M368.845374275692,1431.3654125910155 C447.4714530194329,1428.5589742602288 524.5529704725034,1426.512993269886 730.0138906730471,1428.4777663947607 M369.5827722685852,1430.2521145275093 C480.66597126427826,1429.183298419644 589.1879201045363,1429.793107052231 730.7202500750251,1430.3542741029178 M727.7784297862179,1429.081097080541 C732.4563061917759,1446.4096004144687 730.1138689290964,1461.4587477144914 731.2383175070202,1479.4981980834423 M731.09158057136,1429.629253350607 C730.9550620535966,1442.7144473549015 731.3731928874098,1455.6384837080507 730.889860751184,1481.105466589807 M730.7915345745903,1479.183819935638 C604.8908497725575,1482.1389460386292 479.40240344984534,1483.221116226328 369.001835880779,1481.5810091122532 M729.8563691184764,1480.6772107250235 C588.334050570603,1479.098311808523 444.5170833944479,1479.354979132946 370.049282742129,1479.6747658266172 M371.38298981515396,1480.1819398634857 C370.4837511052464,1469.2429747487358 367.91729523217884,1456.004113480443 368.32598615305994,1430.7567990793423 M369.2495263637113,1479.552340508504 C368.6029273101532,1469.5010728190675 370.3895089583278,1458.5796336067674 370.616481052554,1429.7619477620754" stroke="#1e293b" stroke-width="1.4" fill="none" stroke-linecap="round" stroke-linejoin="round"/><text x="550" y="1455" font-size="16" fill="#1e293b" text-anchor="middle" dominant-baseline="middle">stream response to client</text><path d="M80,1175 L280,1175 L280,1255 L80,1255 Z" fill="#e2e8f0" /><path d="M80.25017197931481,1174.3116828650116 C126.28205711138018,1177.0467491538793 175.03043994838757,1175.2342263921648 279.7497801400454,1177.043241983657 M80.08762309196841,1174.3646572988464 C122.78894149349404,1176.0964117459707 167.37827665414633,1174.7104225215126 279.6362128161976,1174.9121043986402 M280.54249044002063,1172.946025564177 C277.1968245463443,1203.3213088698176 278.1682772499279,1235.5969585817923 279.13500089941493,1256.6532819851332 M280.6994649142662,1174.012941168871 C278.7352733349934,1194.4361852101247 279.7485021919268,1214.3513522713647 279.8265548358331,1255.953246275943 M278.3619319836021,1254.5476805305864 C216.45892724673462,1255.0193234733497 151.62921173373505,1253.245841895683 80.75497319778407,1253.457785977581 M280.89589736420504,1254.6171351765945 C225.80150852812227,1252.2173015491815 169.79550307128042,1253.9849939893368 79.71525434659628,1255.4620192310401 M78.76198683869771,1254.6657538500583 C77.46327322501749,1233.6548444869297 77.33588005199545,1212.4482229225125 80.31059049240841,1175.9360809433877 M81.04535997720657,1256.2183590321308 C78.91101488545057,1234.781465520257 78.41996379399207,1214.3785925005234 79.97063452204414,1173.9660141218553" stroke="#1e293b" stroke-width="1.4" fill="none" stroke-linecap="round" stroke-linejoin="round"/><text x="180" y="1198.9" font-size="14" fill="#475569" text-anchor="middle" dominant-baseline="middle">passthrough:</text><text x="180" y="1215" font-size="14" fill="#475569" text-anchor="middle" dominant-baseline="middle">forward to</text><text x="180" y="1231.1000000000001" font-size="14" fill="#475569" text-anchor="middle" dominant-baseline="middle">api.anthropic.com</text><path d="M547.8562482017694,79.15550326614273 C548.3883670470216,89.01422435410379 551.424575242198,103.15736531013467 551.6438748483172,118.9308231503031 M550.7404846450044,80.05047132602198 C550.3772310756993,92.24259334671927 550.657289698273,101.93878963272913 551.1449325291434,119.47007072422909" stroke="#1e293b" stroke-width="1.3" fill="none" stroke-linecap="round" /><path d="M550,120 L545.6503446588877,110.99552897647322 M550,120 L554.3496553411123,110.99552897647322" stroke="#1e293b" stroke-width="1.3" fill="none" stroke-linecap="round"/><path d="M679.7197253276162,157.89631324670495 C721.0320480113554,161.68724540244446 765.7617055670452,159.076582888311 821.8039878816404,160.22989189785392 M679.4271974791912,160.3446798410922 C734.2262115535108,159.5519228213726 787.9354884368042,159.24469723628226 820.9281147220352,159.69772899091242" stroke="#1e293b" stroke-width="1.3" fill="none" stroke-linecap="round" /><path d="M820,160 L810.9955289764732,164.3496553411123 M820,160 L810.9955289764732,155.6503446588877" stroke="#1e293b" stroke-width="1.3" fill="none" stroke-linecap="round"/><text x="750" y="150" font-size="14" fill="#475569" text-anchor="middle" dominant-baseline="middle">no</text><path d="M551.3484755150566,199.8316487043626 C548.7321690178039,208.20217649713254 550.9900409382591,217.97931339047895 548.5696205557119,240.59637942755188 M548.819058998509,199.43470663178704 C549.1400510004393,213.48168507496334 549.5295661797784,229.05254686340893 550.2643008801416,238.81577736406277" stroke="#1e293b" stroke-width="1.3" fill="none" stroke-linecap="round" /><path d="M550,240 L545.6503446588877,230.99552897647322 M550,240 L554.3496553411123,230.99552897647322" stroke="#1e293b" stroke-width="1.3" fill="none" stroke-linecap="round"/><text x="520" y="220" font-size="14" fill="#475569" text-anchor="middle" dominant-baseline="middle">yes</text><path d="M679.9872384914336,279.9740240496984 C734.7963942715339,280.9319873065822 788.5741326908934,276.8524581272461 820.3139603737565,277.9909373448529 M680.6530264860168,279.8685581514424 C735.0698848350003,277.9212576328329 792.281655743617,279.7571660842319 819.2903307692382,279.7680023906184" stroke="#1e293b" stroke-width="1.3" fill="none" stroke-linecap="round" /><path d="M820,280 L810.9955289764732,284.3496553411123 M820,280 L810.9955289764732,275.6503446588877" stroke="#1e293b" stroke-width="1.3" fill="none" stroke-linecap="round"/><text x="750" y="270" font-size="14" fill="#475569" text-anchor="middle" dominant-baseline="middle">no</text><path d="M550.3385202097991,321.2616999367291 C550.5189053004261,334.0857597862452 548.6841785743037,350.0657906752118 550.5281002379236,360.18468404417683 M549.3672313835326,319.1165524880571 C549.6548877967855,329.4214101824154 549.1069145483184,340.09193848816994 550.554090728067,359.2722545843662" stroke="#1e293b" stroke-width="1.3" fill="none" stroke-linecap="round" /><path d="M550,360 L545.6503446588877,350.9955289764732 M550,360 L554.3496553411123,350.9955289764732" stroke="#1e293b" stroke-width="1.3" fill="none" stroke-linecap="round"/><text x="520" y="340" font-size="14" fill="#475569" text-anchor="middle" dominant-baseline="middle">yes</text><path d="M549.4353607286818,438.4420643747869 C548.938042684193,448.5625828065655 547.4776289402207,460.22575013851684 552.2835879636266,479.2762140556043 M549.4442310417511,441.0192315598843 C550.1074167774473,448.00862909527643 549.3382904595626,459.1814865955517 549.5949943677003,480.679162624733" stroke="#1e293b" stroke-width="1.3" fill="none" stroke-linecap="round" /><path d="M550,480 L545.6503446588877,470.9955289764732 M550,480 L554.3496553411123,470.9955289764732" stroke="#1e293b" stroke-width="1.3" fill="none" stroke-linecap="round"/><text x="520" y="460" font-size="14" fill="#475569" text-anchor="middle" dominant-baseline="middle">yes</text><path d="M547.651136809443,559.5132382903806 C550.2475950341453,571.6882358655372 551.851403795988,582.4647541822873 551.4611471400757,598.5825161645537 M549.7581422130448,560.0426788805095 C548.6346757931353,571.2018964947981 550.776275380831,581.2467200467261 549.9117715861536,600.8507138397997" stroke="#1e293b" stroke-width="1.3" fill="none" stroke-linecap="round" /><path d="M550,600 L545.6503446588877,590.9955289764732 M550,600 L554.3496553411123,590.9955289764732" stroke="#1e293b" stroke-width="1.3" fill="none" stroke-linecap="round"/><text x="520" y="580" font-size="14" fill="#475569" text-anchor="middle" dominant-baseline="middle">no</text><path d="M551.0604056778122,682.2707605843985 C548.2290557934633,687.6415341417348 547.9500246001147,699.2419731733673 551.0513064151796,720.5321517510987 M549.2449765282774,680.7497115101045 C551.2429728247857,692.2018832783717 551.4289151425329,703.979042452219 550.8806970582175,719.710824324207" stroke="#1e293b" stroke-width="1.3" fill="none" stroke-linecap="round" /><path d="M550,720 L545.6503446588877,710.9955289764732 M550,720 L554.3496553411123,710.9955289764732" stroke="#1e293b" stroke-width="1.3" fill="none" stroke-linecap="round"/><text x="520" y="700" font-size="14" fill="#475569" text-anchor="middle" dominant-baseline="middle">no</text><path d="M549.6461405765756,801.999729350878 C551.6098392053962,813.8637611641534 549.7993406301861,827.5008254534492 548.684368022943,861.5531790917747 M550.2077679263546,799.3535512806974 C549.5944761936563,813.6068748947231 549.289390645647,825.1334195981957 550.2730290661391,860.8963791710976" stroke="#1e293b" stroke-width="1.3" fill="none" stroke-linecap="round" /><path d="M550,860 L545.6503446588877,850.9955289764732 M550,860 L554.3496553411123,850.9955289764732" stroke="#1e293b" stroke-width="1.3" fill="none" stroke-linecap="round"/><text x="520" y="830" font-size="14" fill="#475569" text-anchor="middle" dominant-baseline="middle">yes</text><path d="M552.1850794844239,914.3003905033345 C548.6189240654563,926.7401000703983 549.9284322267748,939.4587338006827 547.9362806180496,948.3591783678178 M549.1606375779902,916.0671691460499 C549.0353806906501,925.1790356084399 550.660583266816,934.2589781395989 549.9663843892499,950.5479336001902" stroke="#1e293b" stroke-width="1.3" fill="none" stroke-linecap="round" /><path d="M550,950 L545.6503446588877,940.9955289764732 M550,950 L554.3496553411123,940.9955289764732" stroke="#1e293b" stroke-width="1.3" fill="none" stroke-linecap="round"/><path d="M550.2236740888831,1031.280394813201 C547.704477232902,1052.4186789188375 549.2176136765786,1076.9571311224765 548.9346944902948,1089.8466112180477 M548.8060097578539,1030.8493731185968 C550.66608333726,1046.6119547771266 550.5373170646201,1064.105552383604 549.3715324025285,1090.3147783156435" stroke="#1e293b" stroke-width="1.3" fill="none" stroke-linecap="round" /><path d="M550,1090 L545.6503446588877,1080.9955289764732 M550,1090 L554.3496553411123,1080.9955289764732" stroke="#1e293b" stroke-width="1.3" fill="none" stroke-linecap="round"/><text x="520" y="1060" font-size="14" fill="#475569" text-anchor="middle" dominant-baseline="middle">yes</text><path d="M548.6278072634999,1148.1676102051908 C552.5969742423921,1161.801996493734 552.6041370897719,1181.6984022698734 552.3218910462659,1198.7583895493003 M550.407581765257,1146.5923672174158 C550.7586448471837,1162.4745178897258 550.6346421622247,1180.3605953335036 551.1422340056536,1199.9463079499626" stroke="#1e293b" stroke-width="1.3" fill="none" stroke-linecap="round" /><path d="M550,1200 L545.6503446588877,1190.9955289764732 M550,1200 L554.3496553411123,1190.9955289764732" stroke="#1e293b" stroke-width="1.3" fill="none" stroke-linecap="round"/><path d="M547.9849519470342,1250.7013885784816 C551.084355356996,1268.0415986860078 552.0628910695046,1284.1804956056685 551.3474166264988,1301.9206551814502 M549.3600965897739,1248.9342921198054 C549.36202018825,1266.621856798497 549.8163518094333,1284.872451325799 548.871978378588,1299.0094688954164" stroke="#1e293b" stroke-width="1.3" fill="none" stroke-linecap="round" /><path d="M550,1300 L545.6503446588877,1290.9955289764732 M550,1300 L554.3496553411123,1290.9955289764732" stroke="#1e293b" stroke-width="1.3" fill="none" stroke-linecap="round"/><path d="M550.4552353735421,1354.728893855553 C547.5706965531725,1385.029205964804 551.8857616317906,1412.7050159261375 549.7644665734884,1429.3424569019214 M550.5659739967947,1354.8058547529336 C550.0117618412788,1381.0132524784603 549.4500431918142,1406.4316605775966 549.8783843764855,1429.0321398689048" stroke="#1e293b" stroke-width="1.3" fill="none" stroke-linecap="round" /><path d="M550,1430 L545.6503446588877,1420.9955289764732 M550,1430 L554.3496553411123,1420.9955289764732" stroke="#1e293b" stroke-width="1.3" fill="none" stroke-linecap="round"/><path d="M420.32692630365574,400.70194098199875 C371.35531647055154,703.6880349317784 320.1765776872012,1006.6422300093567 279.47136087074864,1215.071773281445 M420.13308460821247,400.19725112460196 C372.9580053257381,653.6756402303515 329.5422836556286,907.9936030725455 279.8457528234923,1214.8466024314537" stroke="#1e293b" stroke-width="1.3" fill="none" stroke-linecap="round" /><path d="M280,1215 L277.23758541588086,1205.3891173316158 M280,1215 L285.8113185774329,1206.8619058501647" stroke="#1e293b" stroke-width="1.3" fill="none" stroke-linecap="round"/><text x="350" y="392" font-size="14" fill="#475569" text-anchor="middle" dominant-baseline="middle">no</text><path d="M419.6738432841553,520.6043948261621 C364.34550663252395,779.5961177845867 312.09687957427144,1041.4066834632938 280.07430946895755,1214.1499105325315 M420.2780967210049,520.0369373625955 C365.9570516848041,778.7827227629939 313.9855627302335,1037.5458441738574 279.5347263110025,1215.2331012862696" stroke="#1e293b" stroke-width="1.3" fill="none" stroke-linecap="round" /><path d="M280,1215 L277.5141287811807,1205.313904590422 M280,1215 L286.0421368540864,1207.0317767202162" stroke="#1e293b" stroke-width="1.3" fill="none" stroke-linecap="round"/><text x="350" y="512" font-size="14" fill="#475569" text-anchor="middle" dominant-baseline="middle">yes</text><path d="M420.08808261849305,639.2280400268655 C377.47913899593516,816.5587590306765 335.1890855974721,992.7070031843908 279.974098294575,1215.7231787454043 M419.77706141542825,640.399177878683 C374.7070252670844,825.9737447031625 329.549918932278,1013.2283711418689 280.4773980304411,1215.018527969862" stroke="#1e293b" stroke-width="1.3" fill="none" stroke-linecap="round" /><path d="M280,1215 L277.9039711986276,1205.222134012791 M280,1215 L286.3563531497965,1207.280105270467" stroke="#1e293b" stroke-width="1.3" fill="none" stroke-linecap="round"/><text x="350" y="632" font-size="14" fill="#475569" text-anchor="middle" dominant-baseline="middle">yes</text><path d="M421.04841175584966,759.6272691690352 C392.2615076524181,851.0466438738506 364.08846458154403,941.4222295665844 280.0322101357243,1214.43418814326 M419.574267972796,759.6874866886776 C388.75439540908127,866.1980031568169 355.60692681994243,973.2956483479503 279.5666713705456,1214.5425145133704" stroke="#1e293b" stroke-width="1.3" fill="none" stroke-linecap="round" /><path d="M280,1215 L278.4907782340763,1205.1145435279263 M280,1215 L286.8053967744972,1207.6728876942097" stroke="#1e293b" stroke-width="1.3" fill="none" stroke-linecap="round"/><text x="350" y="752" font-size="14" fill="#475569" text-anchor="middle" dominant-baseline="middle">no</text><path d="M419.23210519123865,990.9129057137858 C375.48473360483655,1057.5258380571352 335.4595079334697,1123.0074518351812 280.6870003876782,1215.7408778150052 M420.43344123990863,990.1040086789848 C381.3892847703865,1049.1581816829678 345.25340873908146,1110.762864976482 280.8742718498857,1215.7188195047422" stroke="#1e293b" stroke-width="1.3" fill="none" stroke-linecap="round" /><path d="M280,1215 L281.0639754397867,1205.05676329038 M280,1215 L288.45018262280763,1209.6526255375932" stroke="#1e293b" stroke-width="1.3" fill="none" stroke-linecap="round"/><text x="350" y="982" font-size="14" fill="#475569" text-anchor="middle" dominant-baseline="middle">no</text><path d="M180.12816704736485,1256.4953080566818 C238.7528417210276,1317.1206486457984 302.2999641261614,1381.687549157422 368.17528357291843,1453.305844448195 M180.30002877086312,1255.0414056059897 C249.06631808675098,1329.3121409357534 318.8303865580904,1401.6803651493742 369.8933261764362,1454.3808795862997" stroke="#1e293b" stroke-width="1.3" fill="none" stroke-linecap="round" /><path d="M370,1455 L360.64467776908214,1451.4675863838313 M370,1455 L366.95167308635683,1445.4759408324203" stroke="#1e293b" stroke-width="1.3" fill="none" stroke-linecap="round"/></svg>