<svg xmlns="http://www.w3.org/2000/svg" viewBox="0 0 1100 1800" font-family="'Caveat', 'Kalam', 'Comic Sans MS', cursive"><rect width="1100" height="1800" fill="#fbf7ef"/><path d="M370,30 L730,30 L730,80 L370,80 Z" fill="#dbeafe" /><path d="M370.3461272240516,28.594230433867768 C454.85086050135027,29.941273452641123 540.9514845198466,30.664661109458205 729.088606755732,31.378017961731846 M370.3727413957203,30.08231085041801 C487.8226691271733,33.52306620109546 606.758010566949,33.50543490408201 730.4964586853341,29.766152071263782 M730.3278722820787,29.21879959553724 C728.9748688175309,46.93875647755409 731.4549817127585,61.84278840982486 730.8552794969203,78.85317199548723 M729.1033166843599,30.125326098675764 C730.2012342180284,42.34823425025902 730.2801536426945,54.70122003638816 728.8766966829631,80.24012303324004 M728.9120876750252,80.42733711814313 C621.4315227045724,83.51033716506515 512.7797581486614,80.91331952189698 368.59489392907955,80.39178407308668 M729.2045447601795,79.70956555526948 C645.0546750112468,78.86144521549471 559.7083972101487,79.76541545125124 370.7145091365772,79.73983711126552 M372.58434833543157,81.28021725787062 C367.9832072759162,63.10166718092277 370.77481817906863,42.0073752553702 370.30588629997425,31.71263853812752 M370.81737876649237,79.90320450107247 C371.0045348884656,63.365824912591464 369.82085975551223,45.12282843383417 369.0536300430529,30.162903075905042" stroke="#1e293b" stroke-width="1.4" fill="none" stroke-linecap="round" stroke-linejoin="round"/><text x="550" y="55" font-size="17" fill="#1e293b" text-anchor="middle" dominant-baseline="middle">Client: POST /v1/messages</text><path d="M550,120 L680,160 L550,200 L420,160 Z" fill="#f1f5f9" /><path d="M548.9542862797136,117.65429497179136 C599.9737501770634,138.38161200188793 654.4682515942828,152.9319473113574 678.9260989687323,161.56158609765708 M551.0939393432735,120.48469747197373 C585.9578905409545,131.39872911999512 620.5302541331406,142.1486705780303 680.4479524022555,159.25607673873196 M678.5520545553841,160.84469735062916 C649.4534327887473,165.33308044090103 618.9410990150302,175.1260412685105 548.7159933302466,199.6357431473511 M681.0991452481794,159.15678385963085 C652.1477359379732,167.46429206008273 625.8275634326335,174.88978466039657 550.56980825252,199.4406331391046 M548.9634140870224,197.91550658815632 C499.97763237737746,182.8592003007143 446.2159687895454,170.04749827524972 418.2201132910577,160.86118439323013 M549.2931271405525,200.04390943344998 C519.2264122692638,190.68916597353567 488.8993695516725,180.59914930610472 420.60959591413683,160.81050144557548 M419.27873712538434,161.3228337999815 C448.4393453764837,150.13406273313365 475.47868087035704,142.11433681587502 548.8320941725028,120.53413313436567 M420.92892811257053,161.00548112879721 C446.9875473593337,150.42226132784342 475.84492193359904,141.1529527359159 549.980657924029,119.21135219540878" stroke="#1e293b" stroke-width="1.4" fill="none" stroke-linecap="round" stroke-linejoin="round"/><text x="550" y="151.375" font-size="15" fill="#1e293b" text-anchor="middle" dominant-baseline="middle">anthropic-version</text><text x="550" y="168.625" font-size="15" fill="#1e293b" text-anchor="middle" dominant-baseline="middle">header present?</text><path d="M820,135 L980,135 L980,185 L820,185 Z" fill="#fee2e2" /><path d="M821.9174623321512,136.58882825802255 C859.5021485701011,132.9066066586096 901.3012252220954,133.02131791064247 977.7526385036813,133.01588811523393 M820.8592587773451,134.81513701707334 C853.7999453879655,133.3744437974312 887.7997706259476,134.6778478339886 980.6242617811992,134.55829706432309 M977.6090591450493,136.9353791829737 C979.4146808872023,149.7400395479688 981.5052726398593,163.2165070664311 982.2942611056615,184.10206458502566 M979.815382741387,135.46721640173016 C981.3332671198722,145.02204892262188 980.3627489738255,157.66580114672277 979.4727785590637,185.97042100499124 M979.8403234083911,187.16893450987902 C919.3750200340578,182.73164299373417 860.0362433481015,184.70751360505187 821.8877966643297,186.86730166194195 M980.1115440993825,183.7304240276545 C918.6766998078083,185.05161465719831 857.353448061488,184.1535946761277 820.4522534227463,185.63566555431052 M817.9813395322172,182.57325221011166 C819.6936272185693,171.6216562024322 820.4164710190628,156.5004047130671 818.4635908684735,133.99077473836098 M819.7090956615967,185.5581159684552 C821.5302557780084,166.107017145193 819.9544905071103,147.94581970975392 819.0018658751103,135.16187472598952" stroke="#1e293b" stroke-width="1.4" fill="none" stroke-linecap="round" stroke-linejoin="round"/><text x="900" y="160" font-size="16" fill="#1e293b" text-anchor="middle" dominant-baseline="middle">400 — reject</text><path d="M550,240 L680,280 L550,320 L420,280 Z" fill="#f1f5f9" /><path d="M552.2870724797126,238.7886666321578 C587.7604487412488,248.20056299872516 624.738036623847,263.16893690519197 678.1849762697475,281.30184370896643 M549.2326153760215,240.50941262717384 C576.6670905371437,250.03570570441127 604.9566437727102,258.11424091504347 681.2107995696684,280.9464043478543 M678.9794289047662,280.94853283332554 C650.0944690444198,288.66441741360467 622.6232412105799,298.6478230634024 552.2766125002789,322.3989221695015 M681.0604358869891,280.42793189840836 C651.7411279295588,287.6636843146812 623.695687567055,298.0317203781095 549.3126254723039,321.0509181691879 M551.5055848391713,320.51097693170976 C502.30982403269326,303.4565781254753 454.79129532550485,288.48836886260557 418.8003407953689,281.5964867208819 M549.7590439509291,319.8007005727266 C516.9240850136342,310.390548098165 482.723417936933,299.51736236909744 420.8176064388948,281.2546400074262 M419.3916809164878,280.7160673585282 C453.97772047444806,268.3377440760786 493.3628589366395,258.3099058988828 551.2839640031743,237.50096248668717 M420.19782786050723,280.5195433913271 C469.04159734476576,265.5117973559393 519.7126433570843,249.04151103930494 550.7314830943138,240.70595546981622" stroke="#1e293b" stroke-width="1.4" fill="none" stroke-linecap="round" stroke-linejoin="round"/><text x="550" y="280" font-size="15" fill="#1e293b" text-anchor="middle" dominant-baseline="middle">path starts with /v1/?</text><path d="M820,255 L980,255 L980,305 L820,305 Z" fill="#fee2e2" /><path d="M821.7197693934775,253.70180805178754 C868.1577604834579,255.45755920353506 918.71227450506,258.49057164476744 981.6603069540603,256.3244824625554 M820.8956127283072,256.09822912792595 C862.5188747123698,253.52953072176535 906.6655853316307,253.49007907068324 979.3846657909738,254.71223683721388 M979.7666590010805,255.3631534264292 C980.2705315129173,274.39802024613175 979.9349599901785,289.8995498869485 979.8176573865098,306.86313796604264 M978.9999607106807,253.86058026514797 C980.1890481109659,268.0219651039742 979.9990226922916,279.83677395710225 979.6798683957614,305.46084778362854 M980.3850830565336,306.87185500470736 C925.0421395101703,305.66745622388623 867.307377860109,305.0081530631409 821.8418487385853,302.9444885487716 M980.6257481953887,304.4375865458035 C927.9975190764461,307.02822845903916 873.9654541642508,305.752197843129 821.121256072689,304.7822412223264 M819.4434011106335,306.4096353389704 C821.2872779331332,286.084316852047 818.1054520500911,268.176651002501 821.7043659127305,253.53339113583505 M819.961031704377,304.9401101183359 C819.6433783361992,291.6272875989672 819.4135009766075,276.05036533182147 821.097344515834,255.15160032175436" stroke="#1e293b" stroke-width="1.4" fill="none" stroke-linecap="round" stroke-linejoin="round"/><text x="900" y="280" font-size="15" fill="#1e293b" text-anchor="middle" dominant-baseline="middle">403 — forbidden</text><path d="M550,360 L680,400 L550,440 L420,400 Z" fill="#f1f5f9" /><path d="M547.6236440642299,359.3504571991179 C581.5984475902474,368.8811518799206 619.8783898650464,378.05838634736415 682.0860073078057,399.1429997967162 M550.6165483931336,360.29013286595625 C596.4330871822543,376.2889424873725 641.8129931207253,389.080350670772 679.1898875586103,400.4755494480064 M681.296157286554,400.69407498929087 C643.8295691413465,410.09528337438684 609.1201398055076,423.1976034782271 547.5127025090164,441.07505620075796 M680.8042823798379,400.2697668575147 C639.6316797952733,410.89575401911037 602.7449085533841,422.2818928696594 550.8223382677476,440.4303652901297 M549.9073050301489,438.6202312600835 C504.51099429648616,424.6925635741702 461.3959375187584,413.3016114115125 420.9594773101251,401.3557248156088 M550.0500198377687,440.5342911797511 C503.9767218824769,426.0181205061378 456.87199710211905,409.7068236048443 418.80313017207845,399.3975117983858 M419.8609286761964,400.3966254368552 C454.1467095033903,389.2250830000448 490.09568041860524,376.41012389669805 548.1261605056079,357.53987230068543 M420.58984480527613,400.89490017633733 C467.20815771341665,384.9637406296594 515.5585315102472,371.4908696408702 549.6425002042863,361.1489372751345" stroke="#1e293b" stroke-width="1.4" fill="none" stroke-linecap="round" stroke-linejoin="round"/><text x="550" y="391.375" font-size="15" fill="#1e293b" text-anchor="middle" dominant-baseline="middle">/v1/messages</text><text x="550" y="408.625" font-size="15" fill="#1e293b" text-anchor="middle" dominant-baseline="middle">or count_tokens?</text><path d="M550,480 L680,520 L550,560 L420,520 Z" fill="#f1f5f9" /><path d="M549.7376504825507,480.561238915445 C593.376784095447,492.18077108535743 633.1270864812766,505.6899520232181 678.3385517590797,518.7441142563298 M549.4502791269057,480.4701801137633 C597.5906049659792,495.3550396932074 646.5138329762971,509.2331114718532 679.1911710361577,521.2645183378719 M680.4003322438623,521.3710442226577 C638.8108531468656,529.3344733380843 599.9396539862138,542.3422700722479 547.8975981838188,559.7887968236513 M679.5879508265363,520.8241020268649 C631.2658311897028,533.841273837336 582.4388388879353,549.8736875116867 549.145537519381,560.5176720948194 M548.2284125629521,561.4049316632396 C512.2078838825261,548.6115218302206 474.09036133644213,535.7064954078913 417.4478104408029,518.5242345106649 M549.1210944005503,561.0007655353082 C510.41686510179085,548.5682479264049 471.5696586120384,534.7021657007931 419.4010373729615,519.7882926495727 M420.19121463201225,518.7631411269092 C446.9956965591765,510.8303096844277 473.6379740445717,503.79049620098203 547.7855372684861,480.2359598127413 M419.45741590311513,518.8108443778751 C459.65297576196673,505.46408080958247 501.5234009879406,493.90093701816033 548.9076310172223,480.1382790931082" stroke="#1e293b" stroke-width="1.4" fill="none" stroke-linecap="round" stroke-linejoin="round"/><text x="550" y="520" font-size="15" fill="#1e293b" text-anchor="middle" dominant-baseline="middle">proxy paused?</text><path d="M550,600 L680,640 L550,680 L420,640 Z" fill="#f1f5f9" /><path d="M547.4435330719034,599.8677129002093 C597.2202993174823,614.2888375303339 648.9510949179299,631.757269806116 681.1986100012934,640.8914288971183 M550.4310276495504,600.6468572115638 C596.4554660661726,614.4320454674998 640.2796379878436,630.0285613650975 679.1267970468147,638.8410967640395 M677.9930196295898,640.5106978381409 C630.9619915194169,651.237543040148 588.6787479432361,666.52437471418 551.7347694519967,682.4198185758144 M680.4675439963664,638.8721662718116 C632.9791115591041,654.0979616560181 584.2315797541969,669.5351915722937 548.8219413125039,679.6099372203132 M552.0682430553894,679.6590754116256 C496.57427748236637,660.4032736521191 448.3306852438908,645.7265418385865 417.6829272806516,641.2446247122377 M550.3564086968202,680.1349140545763 C522.3953792342948,670.798683695916 497.49625248744826,662.6157564773332 420.54340303855207,640.6843758603746 M421.53983400424653,640.0467749994887 C455.37280776485,631.5921138672129 489.94096927241844,618.9062897779712 551.4514672336078,600.1278840839017 M420.2258518370623,639.9313783082946 C470.3145787366108,626.7099923724686 519.4741036673582,610.922023333636 549.7377722678659,600.3520321279742" stroke="#1e293b" stroke-width="1.4" fill="none" stroke-linecap="round" stroke-linejoin="round"/><text x="550" y="631.375" font-size="15" fill="#1e293b" text-anchor="middle" dominant-baseline="middle">thinking-state</text><text x="550" y="648.625" font-size="15" fill="#1e293b" text-anchor="middle" dominant-baseline="middle">in request?</text><path d="M550,720 L680,760 L550,800 L420,760 Z" fill="#f1f5f9" /><path d="M552.0689757462353,720.6479011692495 C589.2726794538708,731.8221692389232 630.9601169233905,745.470227624944 682.4084823276597,757.6304066504645 M550.4472532520388,720.9520214859698 C581.5787117216198,731.1449235695026 612.7256296676594,740.7913205307867 678.7780991396853,759.0303479900984 M681.2035314653599,758.939548182008 C652.185119539919,767.3166967920745 626.7606893364409,776.6682728991264 550.4642052136858,798.3675230301847 M680.0570441623828,758.8051939082775 C647.7473490989267,770.1571295825837 614.4083182530903,780.1432281635573 551.238258187665,800.824254693933 M552.1117495892892,797.7059987888782 C506.6272223173004,785.0148015437537 460.3943789712551,771.5531124041979 419.5914775148528,758.7307130181415 M550.6394477353037,799.8723366845321 C509.2569030289959,788.2557886540316 468.2261543129877,776.2511366789904 420.1737283406964,760.786710053997 M420.4359424031651,761.9495837794673 C452.78372674351056,749.3164957043507 482.8283284679632,738.9375083291256 550.355905318579,719.2578421809334 M421.16733375375503,759.7577906538279 C450.0763045525304,753.1213955408151 478.64702924336615,741.9177459122742 549.4799454093678,719.0786306565182" stroke="#1e293b" stroke-width="1.4" fill="none" stroke-linecap="round" stroke-linejoin="round"/><text x="550" y="751.375" font-size="15" fill="#1e293b" text-anchor="middle" dominant-baseline="middle">token +</text><text x="550" y="768.625" font-size="15" fill="#1e293b" text-anchor="middle" dominant-baseline="middle">server reachable?</text><path d="M370,860 L730,860 L730,916 L370,916 Z" fill="#dbeafe" /><path d="M371.4587731557282,859.0882100493542 C480.08539617732686,859.5314991028224 592.7493057080912,861.2739709069449 728.6415565483939,860.4530290425987 M370.1502478399196,860.6438075684669 C467.6040621867952,857.1138377945833 566.2532107203222,857.2440228767819 730.7803610211724,860.3400135861654 M732.3320570071504,857.4921074322097 C731.3445758146609,877.9279867541887 728.2472822042325,892.2721958527713 731.1865125892052,914.7674623241148 M729.5161022908372,859.9687596288011 C730.8379077840253,873.6317014345212 729.4009089190639,885.3490602843062 730.6039365364556,915.3053479295753 M731.3664738978621,914.4031253436378 C627.9655842094636,916.0867522547522 529.5637462767205,917.2220979707705 368.592434887567,917.5447931279178 M730.1115684021731,916.7365128016231 C601.9508424646418,916.9884966804922 473.3947976937999,916.239144614993 370.67164684439547,916.2664635519486 M369.02545963077534,916.750043068914 C368.2679738962235,902.5505951782364 372.46619221417563,894.121910486131 371.4804209360822,861.2198940630441 M370.54400695551226,916.9390631806428 C369.0860480920756,894.4805416196493 369.69705308144563,874.2947897911404 370.96207217031343,861.1091064695883" stroke="#1e293b" stroke-width="1.4" fill="none" stroke-linecap="round" stroke-linejoin="round"/><text x="550" y="879.375" font-size="15" fill="#1e293b" text-anchor="middle" dominant-baseline="middle">POST /api/cli/proxy/prepare</text><text x="550" y="896.625" font-size="15" fill="#1e293b" text-anchor="middle" dominant-baseline="middle">800ms budget</text><path d="M550,950 L680,990 L550,1030 L420,990 Z" fill="#f1f5f9" /><path d="M548.2074211851825,950.326698906807 C600.6272871633731,967.1195530994211 653.2755264103535,983.6899248421718 679.5922391194472,989.8114228834434 M549.2403358715013,948.8172842695212 C587.1639813347531,959.4432857492936 623.2967541924281,971.7590501298776 681.0203717040562,989.7187823706404 M680.9437518288266,988.0099589292894 C641.7168176966181,1000.6423745795917 609.3160953584908,1013.1661130265236 549.5344000347745,1028.2359017675435 M680.2894059919473,991.1557052328924 C630.8465251016501,1004.3879211614276 580.3595189084463,1020.1587665634404 549.9851595082346,1029.8801162975315 M549.748165222676,1029.4242860973695 C518.1124145457936,1019.9800217989994 488.19788837569007,1010.2923009112909 418.3750574443514,992.1041598966834 M549.2456537568589,1031.1659243308006 C499.66504202801593,1012.4049305744135 448.27449529846524,997.8520575567004 420.7302686061659,989.6533255778306 M419.2318090916291,987.9233033390097 C464.4087013218889,976.7781831740821 506.51736632779824,964.1850815776652 548.733018554902,949.3142150115688 M419.6361404258297,989.7293791407616 C450.4814842213566,982.8021065301117 481.8180682492635,973.5015897010456 548.9476955026962,949.2914989171385" stroke="#1e293b" stroke-width="1.4" fill="none" stroke-linecap="round" stroke-linejoin="round"/><text x="550" y="981.375" font-size="15" fill="#1e293b" text-anchor="middle" dominant-baseline="middle">server responded</text><text x="550" y="998.625" font-size="15" fill="#1e293b" text-anchor="middle" dominant-baseline="middle">in time?</text><path d="M370,1090 L730,1090 L730,1146 L370,1146 Z" fill="#dbeafe" /><path d="M370.8161557321639,1088.3824416668244 C509.3412783666044,1086.7828010989342 647.3910062579998,1085.9650088102612 728.6767499388276,1088.5640687921682 M369.8617065438708,1090.252176794823 C508.4716286955027,1089.1913948622446 646.1475584234533,1089.689150919604 730.4391921397527,1089.8745779614203 M731.9584621465527,1091.7518408106569 C726.921212353249,1113.442266835629 729.8912176633231,1131.9116165779685 731.3017375773562,1144.167531872803 M730.7188110714069,1090.0927096955522 C730.086915348157,1104.9236843091876 730.5551858439593,1119.6036363047433 730.6908992323031,1146.6845335282255 M729.2514361970855,1147.4677493383113 C597.4122526718413,1148.7407390917056 467.34818280022085,1147.2807924390158 368.3931244731005,1146.9897328243687 M729.1790789192263,1145.3322108252646 C611.006300921652,1147.661123599112 491.400409085352,1148.4568141377729 369.8753526535065,1146.55652910358 M367.7680353457077,1146.2389682208507 C367.79530306953444,1126.6283129614262 367.18510089485903,1109.0449075886957 371.7898370468623,1091.0841881692359 M370.3561107815809,1146.3234302744982 C368.56472362500665,1123.1774880174241 369.48590528526523,1103.1657241895334 371.0640461160727,1091.2822510196916" stroke="#1e293b" stroke-width="1.4" fill="none" stroke-linecap="round" stroke-linejoin="round"/><text x="550" y="1109.375" font-size="15" fill="#1e293b" text-anchor="middle" dominant-baseline="middle">trim messages</text><text x="550" y="1126.625" font-size="15" fill="#1e293b" text-anchor="middle" dominant-baseline="middle">+ append system_fragment</text><path d="M370,1200 L730,1200 L730,1250 L370,1250 Z" fill="#dbeafe" /><path d="M369.6880202734494,1200.7360807680825 C460.9683317108917,1201.5381126740645 554.3689972389703,1200.3821890435709 729.2406700635703,1201.4263238424576 M369.59089768379886,1199.7862270917556 C448.50634660360004,1201.901425038096 528.7342234030142,1202.245931893442 729.6428223001178,1199.5443603774952 M732.1550780464341,1198.1704832182816 C729.8752233732438,1216.6631710582894 730.6920930278607,1231.9349020475393 729.0256640915356,1248.6213763261574 M729.5706460277717,1199.8682626457164 C731.8327768340054,1212.9053334011408 730.2423151602117,1226.137236487529 729.2498469550105,1249.8988495403958 M729.9953147438304,1248.4030095912601 C593.7801953016466,1251.4668761312462 459.0980100371099,1251.8302457947393 371.56974234234747,1249.8445154316116 M729.4566311693461,1249.3144959036326 C653.0902186860068,1251.12893067237 574.9739275071901,1252.0549416260217 369.3850760080278,1249.7774751613122 M367.97002466584246,1251.793451230417 C371.9943178103986,1231.5439600437105 367.02336876207085,1217.985526534503 372.3112939164262,1200.59839153527 M369.38609938309105,1250.1804306128813 C370.4788006556103,1233.0617851791599 370.2672820741064,1215.1733070539283 369.4236679267782,1200.859917422155" stroke="#1e293b" stroke-width="1.4" fill="none" stroke-linecap="round" stroke-linejoin="round"/><text x="550" y="1225" font-size="16" fill="#1e293b" text-anchor="middle" dominant-baseline="middle">forward to api.anthropic.com</text><path d="M370,1300 L730,1300 L730,1356 L370,1356 Z" fill="#dbeafe" /><path d="M371.3220639214122,1300.796082337571 C458.2435362458145,1299.6389810040255 546.0262012836007,1300.8179012924118 729.3697756028613,1300.8232205572554 M369.9611478236371,1299.7549488965537 C475.8689306002135,1297.1406203661386 582.4797981118751,1298.1077129211271 730.0934009939684,1299.9023616809825 M731.0135591822168,1299.8302274622954 C728.2826131725828,1320.8519980990525 728.5879475742939,1345.6661183901388 729.0510840134809,1354.6327103183448 M729.8552734484834,1299.6595676689421 C728.7892627156824,1313.4371773626253 728.3231589214159,1327.2772796532952 731.1664215889974,1355.273835686799 M729.9536420143677,1355.9456030086883 C655.1334000170372,1356.1176794351195 576.4353405804153,1354.8586118130856 369.6816432131905,1357.6093281450835 M730.531219126987,1355.3613443230072 C656.8528467239175,1355.18096212699 583.0725556491279,1354.418232830365 369.5042598923804,1356.6064185520142 M370.39572037241453,1354.3596857964403 C372.18083400870995,1342.4024614876641 367.60032113276714,1324.9351444377642 372.2797051710174,1297.7668575378073 M369.39302713449666,1357.1982402740016 C370.69654816099813,1333.203458919363 369.97721172814,1312.1937788503906 370.5471254064717,1300.6017470874679" stroke="#1e293b" stroke-width="1.4" fill="none" stroke-linecap="round" stroke-linejoin="round"/><text x="550" y="1319.375" font-size="15" fill="#1e293b" text-anchor="middle" dominant-baseline="middle">patch input_tokens</text><text x="550" y="1336.625" font-size="15" fill="#1e293b" text-anchor="middle" dominant-baseline="middle">in SSE message_start</text><path d="M370,1430 L730,1430 L730,1480 L370,1480 Z" fill="#dbeafe" /><path d="M369.5767381535578,1431.2333277627986 C448.94655078662174,1428.592140591395 529.5657396663327,1426.5818818878922 731.0590589520435,1430.4300980819778 M369.6065557630798,1429.1837893635227 C452.91306494144544,1431.6801318112773 536.2088977715866,1432.646783232269 729.5356034098007,1430.3947863818262 M732.2918112733324,1431.3207392849083 C728.694392425394,1442.7670681410707 727.581988683606,1451.806509003968 728.223591443071,1481.010200420459 M729.0422765301802,1429.6218807939958 C731.0187562164683,1439.5197854824005 730.8220364112545,1451.4033888781696 730.6416549075807,1480.3604257879028 M730.9505355987679,1481.5166719636682 C650.4567802182689,1482.9570382820377 568.730155781763,1480.9564150092579 369.44743545665636,1480.4583421893055 M729.5986337050344,1480.0811543863206 C644.8671776821591,1480.2352487350583 561.1245829438817,1480.9833655521752 369.2744720582191,1479.7220640008827 M369.63406615631607,1477.5753915343255 C371.06098112139574,1469.5017547553855 372.5482449429923,1453.672022610067 370.2117795584167,1431.6405606029 M371.2626752390093,1480.736179997701 C370.95575873455454,1466.462809568933 370.31020037444614,1451.4311175839248 370.9324396395397,1428.9411541227223" stroke="#1e293b" stroke-width="1.4" fill="none" stroke-linecap="round" stroke-linejoin="round"/><text x="550" y="1455" font-size="16" fill="#1e293b" text-anchor="middle" dominant-baseline="middle">stream response to client</text><path d="M80,655 L280,655 L280,735 L80,735 Z" fill="#e2e8f0" /><path d="M77.81891738012511,653.5437862167806 C145.49429478245975,655.1625862513247 210.80077504275985,659.2299220769737 277.6699324387181,655.9029087531268 M79.279989641254,655.6109025541185 C140.24657641758947,657.2803594421207 201.29082398513768,655.390580820289 280.2845414739077,655.3518185645514 M278.9399929845364,652.412893476073 C281.988965414089,674.2504490220712 280.6558396031576,700.6345017556448 281.47463400701554,734.6415653786308 M280.219737740977,653.8331757491322 C281.02561926597025,684.758050369708 281.4814125418883,712.6121420492584 280.85435647380024,734.5140551606538 M279.1931725461924,733.3614838095175 C223.5253571884332,736.8086405311998 170.5125123676653,735.4970880199241 82.04108014902764,737.0135894361148 M279.7706460937986,735.1801178812549 C215.82498582158735,734.61027353589 152.99281965605718,734.5501059756218 79.27630351395263,733.9131676016589 M80.6930951958543,733.1993428368479 C79.76192902807414,708.9262638545783 79.55507713611775,681.7894259102975 78.43262182222762,655.3622595916122 M80.15335395626815,734.5039643325999 C78.2735280699686,704.177267931459 80.71287778319953,675.3038096349295 80.68159691005083,654.6797615092673" stroke="#1e293b" stroke-width="1.4" fill="none" stroke-linecap="round" stroke-linejoin="round"/><text x="180" y="678.9" font-size="14" fill="#475569" text-anchor="middle" dominant-baseline="middle">passthrough:</text><text x="180" y="695" font-size="14" fill="#475569" text-anchor="middle" dominant-baseline="middle">forward to</text><text x="180" y="711.1" font-size="14" fill="#475569" text-anchor="middle" dominant-baseline="middle">api.anthropic.com</text><path d="M548.6128134355293,80.98556050737103 C550.0599036646983,96.24131557715263 548.7129345048353,111.76357440874885 549.8960637473397,118.22168608641371 M549.1700356706501,79.11209453746771 C549.6166078373111,86.84814496421627 550.3272388073527,94.94172185376073 550.1358262892898,121.17912725184007" stroke="#1e293b" stroke-width="1.3" fill="none" stroke-linecap="round" /><path d="M550,120 L545.6503446588877,110.99552897647322 M550,120 L554.3496553411123,110.99552897647322" stroke="#1e293b" stroke-width="1.3" fill="none" stroke-linecap="round"/><path d="M677.8588694722331,157.8287016969328 C717.2847154639694,160.1854181158275 751.3432908807498,160.67953302852095 822.2625132587392,157.85362832160146 M680.385077565466,159.73070998348408 C732.4048627548001,159.7079352672847 785.0648868386829,158.90977724184054 820.3043544943804,159.94714839546214" stroke="#1e293b" stroke-width="1.3" fill="none" stroke-linecap="round" /><path d="M820,160 L810.9955289764732,164.3496553411123 M820,160 L810.9955289764732,155.6503446588877" stroke="#1e293b" stroke-width="1.3" fill="none" stroke-linecap="round"/><text x="750" y="150" font-size="14" fill="#475569" text-anchor="middle" dominant-baseline="middle">no</text><path d="M551.9913977390875,201.61636897809913 C549.8741048739874,214.51470046301424 552.4952376505656,232.52799735966533 551.8119642167928,239.9941843893317 M549.4052724033759,198.91053379312274 C550.2454440163252,214.58320749285582 548.8726318619737,230.61302083192368 549.2176418996117,239.42643111599844" stroke="#1e293b" stroke-width="1.3" fill="none" stroke-linecap="round" /><path d="M550,240 L545.6503446588877,230.99552897647322 M550,240 L554.3496553411123,230.99552897647322" stroke="#1e293b" stroke-width="1.3" fill="none" stroke-linecap="round"/><text x="520" y="220" font-size="14" fill="#475569" text-anchor="middle" dominant-baseline="middle">yes</text><path d="M678.5034154534701,280.131086789009 C731.6256280458626,278.1087038048647 787.9213366329458,280.6972152316879 818.5955358543592,278.15036337066635 M681.1205033460697,279.083509851626 C734.1308218323259,282.2672299218603 785.0017262568701,279.99178852292283 819.7125313898488,280.97070832495524" stroke="#1e293b" stroke-width="1.3" fill="none" stroke-linecap="round" /><path d="M820,280 L810.9955289764732,284.3496553411123 M820,280 L810.9955289764732,275.6503446588877" stroke="#1e293b" stroke-width="1.3" fill="none" stroke-linecap="round"/><text x="750" y="270" font-size="14" fill="#475569" text-anchor="middle" dominant-baseline="middle">no</text><path d="M550.1282002533324,319.98559745650334 C551.1392061052154,335.76776375603043 549.6286924777328,350.9546523315911 551.9681450650768,358.2337587734298 M550.3745576543533,318.9977627819577 C549.4041463395507,330.6483192970282 549.8927187595428,341.0454054360876 548.8905420075387,360.99046066381953" stroke="#1e293b" stroke-width="1.3" fill="none" stroke-linecap="round" /><path d="M550,360 L545.6503446588877,350.9955289764732 M550,360 L554.3496553411123,350.9955289764732" stroke="#1e293b" stroke-width="1.3" fill="none" stroke-linecap="round"/><text x="520" y="340" font-size="14" fill="#475569" text-anchor="middle" dominant-baseline="middle">yes</text><path d="M549.4577657659812,440.7381188156453 C549.0421450892915,455.90881945317716 548.321273217624,467.5205418510184 548.4007312225636,481.642474822547 M550.1988203714883,440.5745133229527 C550.99715729811,448.5572138062199 549.2022795063865,455.75673115600745 551.1761650564134,479.96589767692655" stroke="#1e293b" stroke-width="1.3" fill="none" stroke-linecap="round" /><path d="M550,480 L545.6503446588877,470.9955289764732 M550,480 L554.3496553411123,470.9955289764732" stroke="#1e293b" stroke-width="1.3" fill="none" stroke-linecap="round"/><text x="520" y="460" font-size="14" fill="#475569" text-anchor="middle" dominant-baseline="middle">yes</text><path d="M549.0993340601709,560.6021682897498 C549.5190240664843,570.1823242957519 550.7354307204156,580.8995552272893 551.111871827544,597.8593879238712 M550.7004073264237,559.3089873609549 C550.4281915015321,575.5756362780444 550.4375319599188,589.54394121611 549.1654564937309,600.6615908858103" stroke="#1e293b" stroke-width="1.3" fill="none" stroke-linecap="round" /><path d="M550,600 L545.6503446588877,590.9955289764732 M550,600 L554.3496553411123,590.9955289764732" stroke="#1e293b" stroke-width="1.3" fill="none" stroke-linecap="round"/><text x="520" y="580" font-size="14" fill="#475569" text-anchor="middle" dominant-baseline="middle">no</text><path d="M551.6588212409956,680.3442993946529 C550.208610202208,692.8465277531601 549.8427111759556,709.7637565603774 550.2070902804567,718.8640573052376 M548.804794514642,679.8469858176402 C550.6253028651927,695.2507205932346 549.4229621751509,708.6283617992525 549.2894516833057,719.9079205389687" stroke="#1e293b" stroke-width="1.3" fill="none" stroke-linecap="round" /><path d="M550,720 L545.6503446588877,710.9955289764732 M550,720 L554.3496553411123,710.9955289764732" stroke="#1e293b" stroke-width="1.3" fill="none" stroke-linecap="round"/><text x="520" y="700" font-size="14" fill="#475569" text-anchor="middle" dominant-baseline="middle">no</text><path d="M548.1706296893168,797.9919252519364 C549.5463504037335,815.0805101929712 550.6060244326568,835.451133327135 551.5114158696915,860.204727499362 M549.221159646039,799.7297270139105 C549.1854477490006,816.9473763362392 549.6786459263,831.2726746137729 550.8279076039533,860.1071414456941" stroke="#1e293b" stroke-width="1.3" fill="none" stroke-linecap="round" /><path d="M550,860 L545.6503446588877,850.9955289764732 M550,860 L554.3496553411123,850.9955289764732" stroke="#1e293b" stroke-width="1.3" fill="none" stroke-linecap="round"/><text x="520" y="830" font-size="14" fill="#475569" text-anchor="middle" dominant-baseline="middle">yes</text><path d="M548.5481963170744,917.7779587878147 C550.7768978610587,929.8012285874272 549.1110213691436,944.0296384404377 551.900589232934,948.4797714394552 M551.1376175210222,916.886135320882 C549.2185328245043,929.0389287456595 551.366981262322,943.9811971472992 550.8404386344622,951.1507134387313" stroke="#1e293b" stroke-width="1.3" fill="none" stroke-linecap="round" /><path d="M550,950 L545.6503446588877,940.9955289764732 M550,950 L554.3496553411123,940.9955289764732" stroke="#1e293b" stroke-width="1.3" fill="none" stroke-linecap="round"/><path d="M552.0796731265801,1030.8256390170568 C549.1520350718915,1044.5861496690623 550.0790519471129,1059.5579780006722 551.8807370293993,1090.5792954895442 M550.3980120670611,1029.0671412102056 C548.5797805235757,1049.392529464722 550.384277394368,1067.9011361252356 551.0411469729388,1090.086520830804" stroke="#1e293b" stroke-width="1.3" fill="none" stroke-linecap="round" /><path d="M550,1090 L545.6503446588877,1080.9955289764732 M550,1090 L554.3496553411123,1080.9955289764732" stroke="#1e293b" stroke-width="1.3" fill="none" stroke-linecap="round"/><text x="520" y="1060" font-size="14" fill="#475569" text-anchor="middle" dominant-baseline="middle">yes</text><path d="M550.5889467867398,1144.2090303282394 C551.9951949952278,1163.8157333584127 549.4695533302896,1183.6827142453224 551.2187082545943,1200.6499982484393 M549.6560892942985,1145.7633837672001 C550.6382420953088,1167.318931831115 550.8569802543574,1187.3627947656491 549.8569443023284,1201.04494750507" stroke="#1e293b" stroke-width="1.3" fill="none" stroke-linecap="round" /><path d="M550,1200 L545.6503446588877,1190.9955289764732 M550,1200 L554.3496553411123,1190.9955289764732" stroke="#1e293b" stroke-width="1.3" fill="none" stroke-linecap="round"/><path d="M548.6398620932665,1249.8375182853322 C550.2647859570953,1259.228250364147 548.9414014532075,1272.511143812293 549.7599969555899,1301.4950194487797 M548.9486400680587,1249.6934232623908 C549.3307813615052,1262.3962269705094 548.6271756266486,1271.667344598022 549.6253482785265,1299.372509119306" stroke="#1e293b" stroke-width="1.3" fill="none" stroke-linecap="round" /><path d="M550,1300 L545.6503446588877,1290.9955289764732 M550,1300 L554.3496553411123,1290.9955289764732" stroke="#1e293b" stroke-width="1.3" fill="none" stroke-linecap="round"/><path d="M550.3513825203485,1356.3291312667518 C550.4634688201761,1382.0019662276388 551.3065485993736,1413.8653748134448 551.7664853140639,1431.1674487901755 M549.5652567439428,1355.0828163821318 C550.2018935621563,1375.96922034579 550.7389573316409,1393.772262997736 550.3102845381137,1430.248643498807" stroke="#1e293b" stroke-width="1.3" fill="none" stroke-linecap="round" /><path d="M550,1430 L545.6503446588877,1420.9955289764732 M550,1430 L554.3496553411123,1420.9955289764732" stroke="#1e293b" stroke-width="1.3" fill="none" stroke-linecap="round"/><path d="M419.99031374569574,401.5261694566366 C388.37316613566816,468.08366376245914 356.3099368255701,535.3561032197821 279.11427775994923,696.5451595038894 M420.59361338992727,400.06886973352016 C373.3450641203266,492.58255263360184 329.52615238083905,585.8001023610667 279.55141091195105,695.6394667107821" stroke="#1e293b" stroke-width="1.3" fill="none" stroke-linecap="round" /><path d="M280,695 L279.9310260965798,685.0002378727968 M280,695 L287.7902078981955,688.7300190667839" stroke="#1e293b" stroke-width="1.3" fill="none" stroke-linecap="round"/><text x="350" y="392" font-size="14" fill="#475569" text-anchor="middle" dominant-baseline="middle">no</text><path d="M421.5861708935108,518.9064637195052 C388.4972634004592,562.2934162782867 356.3006621912061,601.3267842124072 279.5264483302785,696.3463650029335 M418.99439822818914,519.7420514789835 C374.47849071941926,578.237892564342 328.6303372134503,636.3074610654215 279.7918079999696,694.2027043003351" stroke="#1e293b" stroke-width="1.3" fill="none" stroke-linecap="round" /><path d="M280,695 L282.2285382665426,685.2514812820328 M280,695 L289.0215586419464,690.6858975823559" stroke="#1e293b" stroke-width="1.3" fill="none" stroke-linecap="round"/><text x="350" y="512" font-size="14" fill="#475569" text-anchor="middle" dominant-baseline="middle">yes</text><path d="M422.1122802115839,640.9015519797125 C382.4238824742595,653.0694628713844 346.2865980137553,669.7849030983512 279.04544271998805,694.9640825894639 M420.95226966708896,639.887096836899 C387.187436696124,651.1395203473143 356.1548427082129,665.0057082882558 280.32207560116984,694.2401959467652" stroke="#1e293b" stroke-width="1.3" fill="none" stroke-linecap="round" /><path d="M280,695 L286.7904630580878,687.6590456031423 M280,695 L289.9713866474879,695.7559420125244" stroke="#1e293b" stroke-width="1.3" fill="none" stroke-linecap="round"/><text x="350" y="632" font-size="14" fill="#475569" text-anchor="middle" dominant-baseline="middle">yes</text><path d="M422.03346275456914,758.2944217159552 C366.0539213446755,733.3429594307381 312.0007495068643,711.7365989303328 278.40240056029097,696.6976297550589 M418.85122672980214,760.3391105409582 C390.97305363207175,746.5560357849154 361.8078975031158,733.0552749184146 279.45183600011217,695.1343530627906" stroke="#1e293b" stroke-width="1.3" fill="none" stroke-linecap="round" /><path d="M280,695 L289.99882501149284,694.8467081556465 M280,695 L286.3354469248465,702.737060957654" stroke="#1e293b" stroke-width="1.3" fill="none" stroke-linecap="round"/><text x="350" y="752" font-size="14" fill="#475569" text-anchor="middle" dominant-baseline="middle">no</text><path d="M421.05485866880844,990.508548628711 C373.223569349288,892.1516589033424 327.98422359590006,792.6717619587974 279.34274424892374,695.1582488870489 M420.0033725534535,990.0531161746165 C366.27688286130666,879.6570032327385 314.4301935928361,768.8272887132481 279.54209823529953,694.2612288157105" stroke="#1e293b" stroke-width="1.3" fill="none" stroke-linecap="round" /><path d="M280,695 L287.7902078981955,701.2699809332161 M280,695 L279.9310260965798,704.9997621272032" stroke="#1e293b" stroke-width="1.3" fill="none" stroke-linecap="round"/><text x="350" y="982" font-size="14" fill="#475569" text-anchor="middle" dominant-baseline="middle">no</text></svg>