<svg xmlns="http://www.w3.org/2000/svg" viewBox="0 0 1100 1800" font-family="'Caveat', 'Kalam', 'Comic Sans MS', cursive"><rect width="1100" height="1800" fill="#fbf7ef"/><path d="M370,30 L730,30 L730,80 L370,80 Z" fill="#dbeafe" /><path d="M369.59692156475137,30.5088443581454 C486.126600355,30.743642139872446 600.3624543657495,32.960447510696326 729.0672413246347,28.94978454326432 M370.33113996746204,30.210302440968583 C446.90158185202364,32.344222623455174 524.2295572945051,31.771769236498898 729.9794319681594,29.88457271136183 M730.1631602778267,30.11041107751378 C729.5643534717951,46.79966709915218 729.8631376061276,69.33569486030865 729.3840553585351,79.52155033017416 M730.9023788657431,30.67660361486117 C730.4257134352545,46.54205253062496 730.2282583322152,62.88130461308942 730.6054269738609,80.84477332946553 M729.0516913230372,79.01254465680461 C648.7603279813479,84.04841059815027 568.4687667123667,81.5140072342428 370.18110980266215,78.40125048870362 M730.6694813113476,79.92970243336842 C604.4553153309088,80.54975208381542 479.5563664163358,81.01335924777982 369.7983572291204,80.59027636366916 M370.18057308320994,81.09958781799342 C368.4619990418805,63.27492769601768 370.3542793277281,51.27160824670177 369.42204473028505,27.99109114110079 M368.76557524538987,79.53319549912352 C370.3734823427697,67.06235586767987 370.1790824264063,55.69086359473855 369.3534444594499,28.889658406427518" stroke="#1e293b" stroke-width="1.4" fill="none" stroke-linecap="round" stroke-linejoin="round"/><text x="550" y="55" font-size="17" fill="#1e293b" text-anchor="middle" dominant-baseline="middle">Client: POST /v1/messages</text><path d="M550,120 L680,160 L550,200 L420,160 Z" fill="#f1f5f9" /><path d="M552.2785319431473,122.38237228198344 C593.6279911321878,133.86081861426564 636.9652536225105,150.22755839854045 679.4866101537476,160.06854352994293 M551.0580176717343,120.27039546765062 C598.1565464151588,132.92427510695563 644.9534830200673,147.2066331905362 681.1026643661218,160.01979624600688 M678.2744434925228,159.9574833923675 C630.6810431579453,175.19105762524606 584.2088639149077,188.2847762965684 549.0969512426454,200.86912278472064 M680.5294473218122,159.50393899138922 C634.1840378493893,173.8670696107702 591.0654474672839,186.46546603798666 550.6832366579605,199.0011490780021 M548.8014584975598,200.13952690119055 C510.27474679908966,185.4893872928663 471.31377200531597,174.78569393142072 419.1795259377627,161.2783903122574 M550.1982311845543,200.71879670089194 C502.58579600421655,185.9842457507075 453.3640132432177,169.9689824205527 420.13838714044635,159.7231082404993 M417.42342848053937,157.7469444735503 C454.4646264337568,146.35254563750615 493.06908890316674,138.84164277055658 549.1459713492037,117.68038659007745 M420.7490715231717,161.2008874088435 C466.45651167520595,146.2854400419876 513.4087165319426,132.08009028153526 551.0209269504747,120.64549078975514" stroke="#1e293b" stroke-width="1.4" fill="none" stroke-linecap="round" stroke-linejoin="round"/><text x="550" y="151.375" font-size="15" fill="#1e293b" text-anchor="middle" dominant-baseline="middle">anthropic-version</text><text x="550" y="168.625" font-size="15" fill="#1e293b" text-anchor="middle" dominant-baseline="middle">header present?</text><path d="M820,135 L980,135 L980,185 L820,185 Z" fill="#fee2e2" /><path d="M822.188492887139,135.29488469077955 C875.7377056256361,133.69726594142065 938.1231554297052,138.0957972254507 977.5126152051868,136.69294711996812 M820.0939803797069,136.27706748422338 C869.7624903759203,133.923005191778 918.374441419567,134.74538996771463 979.151603362952,136.0144932175849 M977.9014961049837,134.15479274053422 C981.0840744613008,152.0262154655616 979.0790897685982,170.13848050236794 977.7219703616779,186.1466849466238 M980.7500700893358,134.6663403151869 C979.7093351686157,152.0885525316607 981.4564772448474,168.12813951026067 979.9615590636055,184.171330648308 M979.5917952236034,185.92206701109717 C920.0316359270693,183.23764827574516 865.9912967083989,183.71759832700042 820.825237775548,182.99722217648738 M980.9352685134404,185.25860644705122 C944.8256684620574,186.08112425951927 911.224233955763,185.69200397719914 820.0657785272764,184.09680746034255 M821.1964992997721,187.34535754086096 C820.6808692102413,168.34085375952927 822.0182270255033,157.79804221678395 819.2937557524974,134.0648178448847 M820.1357389461368,184.52366643513625 C821.4932142527882,168.12849138165188 819.4461121083642,153.410746313317 820.118283649284,135.06043770858307" stroke="#1e293b" stroke-width="1.4" fill="none" stroke-linecap="round" stroke-linejoin="round"/><text x="900" y="160" font-size="16" fill="#1e293b" text-anchor="middle" dominant-baseline="middle">400 — reject</text><path d="M550,240 L680,280 L550,320 L420,280 Z" fill="#f1f5f9" /><path d="M551.1156174162928,241.0921099814664 C576.5877915559391,249.04637354473948 604.9141937978094,257.7953877907588 680.5070299374921,282.2264342856994 M550.6338116531065,240.69085849936397 C600.8167741583268,255.9249499410925 649.4516110168437,271.0519475493475 679.8649081296671,280.88121205600834 M681.3431916285042,280.88328128628405 C628.6339290017362,297.56468991379637 576.1106081561053,313.6190507917978 548.6572623036564,318.33374643270645 M679.9782656047707,279.90687122707334 C629.8190902510646,294.8937084961761 579.3458521673319,311.653950274612 550.4902451361179,321.13155358719393 M549.003496113951,319.2356035930098 C508.21449530416044,306.1042079082481 465.2349888623989,296.646323022987 419.8058204099363,281.86235670418955 M550.3105189171995,319.62446125877915 C500.2691136087878,304.5040545566317 450.0687589318181,289.99876661926265 421.1088562005259,278.83734632211707 M421.81567609906205,277.89288769058396 C448.3464614292368,267.9086809239107 481.7875225095834,261.90226519321925 552.3945141785229,240.25383483498612 M420.3668829787823,279.8746650070221 C452.11980429381725,269.52539805159927 482.3592385277696,261.9056639687601 550.9460931730383,240.18269582853466" stroke="#1e293b" stroke-width="1.4" fill="none" stroke-linecap="round" stroke-linejoin="round"/><text x="550" y="280" font-size="15" fill="#1e293b" text-anchor="middle" dominant-baseline="middle">path starts with /v1/?</text><path d="M820,255 L980,255 L980,305 L820,305 Z" fill="#fee2e2" /><path d="M818.1854084821969,256.6382481680887 C860.9063309184703,257.8717591307774 908.0503867772397,255.07727353567182 982.0715528028024,254.00751083238097 M819.3658858208394,254.22300624897827 C853.3776292983592,255.37875604836435 888.7818273869564,253.8138746269359 980.9578200125223,255.80224926963152 M980.4734148954698,256.7446873649412 C980.5057610711225,268.43334098712273 979.6387765566697,286.89438643786 980.7976301834517,304.7826225700994 M979.3426477532041,254.79718979193007 C979.0618427215493,266.09189695039413 978.471764723966,276.014149796355 979.6363234320088,304.73270668935794 M978.8256227324579,303.83400297372197 C938.6910301498556,305.4334523701158 899.2124768804304,307.5497385073326 818.0586810983116,304.3750847213974 M979.0335951787421,304.41408757568826 C923.7247850814672,304.68014146075967 865.9950734257255,303.3289916758603 820.7372686242647,305.8820521943155 M817.548476609572,306.70817125214325 C820.8151373163773,289.89995673612214 821.8613981689609,270.7052301375303 822.0652119224366,255.70400727516912 M820.5654494712408,304.30023293479985 C821.4131164469139,292.35378605216414 819.8781967643797,278.0035574534975 820.6642924621293,256.24218075734956" stroke="#1e293b" stroke-width="1.4" fill="none" stroke-linecap="round" stroke-linejoin="round"/><text x="900" y="280" font-size="15" fill="#1e293b" text-anchor="middle" dominant-baseline="middle">403 — forbidden</text><path d="M550,360 L680,400 L550,440 L420,400 Z" fill="#f1f5f9" /><path d="M549.3562419392612,357.7086516912209 C589.1394737481156,370.1662004375517 623.7164444731601,385.1821310753051 680.5174573510981,401.83417859434206 M549.5110018531359,360.17084915053726 C598.0308224179212,375.5399096527442 643.7212103740659,389.12970077124106 680.8080770678905,401.0726114501864 M681.5113778501942,402.1806325861413 C632.2416082561383,412.2526834979802 585.696775245493,429.19682765224155 550.0242497293866,441.4862298817452 M680.9118995398538,400.85624021527184 C633.2319522469719,414.86114748513313 585.7929558505076,430.5532219179129 549.5666784638931,438.78377938408886 M551.766018763233,438.28433669899186 C503.60600537521447,422.9015486869416 456.4007067232531,408.911041364873 422.4862637590594,400.2137600614673 M549.8323365339494,441.02680495013783 C503.70082193335605,426.0353280508679 458.6418970055723,411.4101067337324 419.40439962048714,399.9500210971316 M422.1306959960914,401.74572440108835 C454.72751797248344,389.53829331594875 486.39119677342654,378.1989204107198 549.5269711507522,357.84300510467375 M420.9484692496401,400.9860966246129 C464.6821707800794,388.40116220984305 509.1548151815718,372.26408934202664 549.5324229618907,359.2577486593702" stroke="#1e293b" stroke-width="1.4" fill="none" stroke-linecap="round" stroke-linejoin="round"/><text x="550" y="391.375" font-size="15" fill="#1e293b" text-anchor="middle" dominant-baseline="middle">/v1/messages</text><text x="550" y="408.625" font-size="15" fill="#1e293b" text-anchor="middle" dominant-baseline="middle">or count_tokens?</text><path d="M100,375 L260,375 L260,425 L100,425 Z" fill="#e2e8f0" /><path d="M100.22752259788625,377.4799200118429 C160.38811180730752,374.9535226763391 218.45703943678262,374.009313418819 259.770598551279,376.31291673022207 M100.8278646202888,375.902223235617 C155.70297167421364,372.0290162891883 208.46519081214606,372.94046110763355 259.53611162270215,374.4017477755494 M257.6745685008381,372.5028991693472 C258.9421923182518,390.704370781104 258.95040897296326,405.96452640826755 259.6590386171134,425.59486892194695 M260.933640891587,375.33933441255084 C258.9226067213279,388.428879889226 260.03238527992517,399.9735988265342 261.2291760027825,424.3204239210998 M261.6941615046901,426.0609038621697 C214.53965408304416,426.27893805479425 174.48863579347125,428.37386511302117 99.44018031483147,423.042512181187 M260.4003800854196,425.15794395448074 C213.57921280428428,423.8016464315574 168.55326961432434,424.37284237736986 99.60190538982901,425.75601703584675 M101.54313787330497,426.73466011794613 C101.66027202252285,409.6408382539585 102.59002243959891,394.486645589764 100.56053294213986,377.13677813514823 M98.92225759283056,424.9560587929938 C100.26740776919839,412.7519599390308 99.5135261028477,401.7777056495785 99.10023195608758,376.2224463996374" stroke="#1e293b" stroke-width="1.4" fill="none" stroke-linecap="round" stroke-linejoin="round"/><text x="180" y="400" font-size="16" fill="#475569" text-anchor="middle" dominant-baseline="middle">passthrough</text><path d="M550,480 L680,520 L550,560 L420,520 Z" fill="#f1f5f9" /><path d="M549.1838380895679,479.99970544620993 C593.8714689306491,493.19520830139055 642.0649264179093,509.0652043736005 680.5317452400495,518.5090702551179 M549.3116162191861,478.7010837275743 C589.5484662027271,491.75013955446633 630.7176921996617,503.7784913621111 679.0292700271953,520.9811525949624 M679.967508396807,519.3029284972303 C640.8041364444839,535.0396340874279 596.2073056299544,543.5524690018823 552.0858470742244,559.5294889806986 M678.8119523055822,520.8154828773427 C636.625177465672,531.7575308322707 591.3386874405406,546.5378003210144 549.7982433991448,559.3358969191448 M549.1975756954619,561.1442629615334 C519.2216235899766,546.998659530951 489.4722614052208,538.7538133441365 418.3351646950136,517.5207767976526 M549.897859614576,560.3056886845537 C520.8269084271728,550.7299606484286 490.0222989726879,541.9835358251207 420.0398871671792,520.3856527897491 M419.20491290062216,520.5619713291024 C459.4912291569416,506.8127834088054 494.2525109857335,496.89150718174864 550.245738946679,478.24984379752544 M419.8862868006878,520.9591771322114 C456.51935622709664,507.8897179531317 493.9847285700913,496.4203222668675 549.1604532997346,479.8373966474501" stroke="#1e293b" stroke-width="1.4" fill="none" stroke-linecap="round" stroke-linejoin="round"/><text x="550" y="520" font-size="15" fill="#1e293b" text-anchor="middle" dominant-baseline="middle">proxy paused?</text><path d="M100,495 L260,495 L260,545 L100,545 Z" fill="#e2e8f0" /><path d="M99.62784728271177,494.7648629575424 C160.7151417664169,495.8424738164676 218.35423571976418,496.1337922640398 258.72942681591593,493.1188844112703 M99.04485264153291,495.7885325911402 C138.8362183091094,495.70155719057345 180.46549151612712,496.5684724594218 261.16825759126135,494.2358681488065 M257.78745274449915,492.6281345190291 C257.296491509417,514.8314875432299 258.9015594176895,534.9009042707793 257.7703612776419,546.619169999439 M258.8370094322848,493.8711167694274 C260.06155642622025,509.5759532774682 259.0464112950576,521.8753386336688 259.9074131640629,544.9676748741613 M258.5939715563118,545.6850789399314 C198.77992979577868,547.2684014209129 134.34271864550652,547.8132040773809 98.82977942258816,546.5875756858628 M260.36594467861784,544.4031899787515 C210.31425831553878,545.6752573987175 159.8103328266741,545.1512016465928 100.02192030577572,545.4063192147164 M98.21643546905521,543.894570985808 C101.93871753567822,527.7001912164143 101.14823214699064,503.20622747463364 100.1590913355852,496.0328202129322 M100.72975720950669,545.6246257686989 C100.44748066715376,527.3775224998766 99.91322236519552,511.38829439304806 101.05075213302167,495.48438866656886" stroke="#1e293b" stroke-width="1.4" fill="none" stroke-linecap="round" stroke-linejoin="round"/><text x="180" y="520" font-size="16" fill="#475569" text-anchor="middle" dominant-baseline="middle">passthrough</text><path d="M550,600 L680,640 L550,680 L420,640 Z" fill="#f1f5f9" /><path d="M549.1108008098058,602.4676089374439 C595.5840579900354,616.00256836186 643.7655078589127,632.336873235973 681.4284590499981,640.5665205990159 M550.6541744428413,599.6899697985094 C582.310631690322,608.3050118547599 617.96332095186,619.4231182242112 680.6032423927778,640.8188764211799 M678.198447909939,637.7025297891483 C642.3145783781471,649.3519014989389 605.6655439846207,662.6300101065884 548.9202384752331,680.4226922102068 M679.6354667068452,639.5084887025413 C646.6030493924076,651.1193514009299 612.6547478978256,661.3990725140395 550.6404698529534,681.1779407170759 M551.0137142291956,678.9723259763408 C519.1240688975049,671.0560784573363 490.6661945098417,664.1245925522113 422.0804302202295,637.4321003199108 M551.0320567704198,679.0027598653601 C510.4562820451013,666.9122146731171 471.01012249662887,654.3501115103415 420.3249654214839,641.0530037137557 M419.83462262605235,641.1088081889848 C461.21889362148096,629.5525033855794 501.87507301653994,618.1761866521238 550.2507142692334,598.0906556544204 M420.9274172277153,639.2119495686828 C465.18205739723305,626.5156758150921 507.44814436637006,615.3159684322869 549.5637734127627,600.3677056870224" stroke="#1e293b" stroke-width="1.4" fill="none" stroke-linecap="round" stroke-linejoin="round"/><text x="550" y="631.375" font-size="15" fill="#1e293b" text-anchor="middle" dominant-baseline="middle">thinking-state</text><text x="550" y="648.625" font-size="15" fill="#1e293b" text-anchor="middle" dominant-baseline="middle">in request?</text><path d="M100,615 L260,615 L260,665 L100,665 Z" fill="#e2e8f0" /><path d="M99.77133171437154,617.4974448515102 C139.04310263824263,615.5160201044723 175.93842177521321,615.5805349608057 260.63122351702987,613.1276721370633 M100.21251544516022,615.3100444586225 C144.05243222429735,615.047039990552 188.09271433276913,614.6874782087694 259.95546936884824,614.072962920572 M258.3532682201485,613.0652186050543 C260.3242943400844,627.7991940061212 259.85614314783345,639.7112405120832 257.988195637421,667.3634270893145 M259.7210236208635,615.6614192579633 C260.75025005387613,633.499749428569 259.20909306065636,651.0917362177164 259.6280192521184,663.8600560036706 M258.0930305417046,665.8348034742015 C227.29589615687885,665.5080912607442 193.0447868734929,665.9618831366091 101.754732433178,666.5943836164923 M260.5493810156148,665.4393606841038 C209.26174195390897,668.0328004318291 159.297155065378,665.7631278348198 100.99162368662716,663.8410543195691 M100.58845611153407,665.4715813841858 C102.36802579230236,657.3083101440925 100.41234920900617,645.6807869340572 100.280913215088,617.0719269401873 M100.78322863316211,665.5459913542304 C100.50068455804553,649.9959010474727 101.4460502214718,634.3234921338978 99.00535759122162,615.228226949934" stroke="#1e293b" stroke-width="1.4" fill="none" stroke-linecap="round" stroke-linejoin="round"/><text x="180" y="640" font-size="16" fill="#475569" text-anchor="middle" dominant-baseline="middle">passthrough</text><path d="M550,720 L680,760 L550,800 L420,760 Z" fill="#f1f5f9" /><path d="M548.0456060786282,719.1279514157104 C598.4117821543931,735.2982019785666 642.0121022080891,748.933857237444 679.9388585290225,757.4687417281348 M550.836370199337,718.7632688008258 C590.7862781315557,731.2813258188241 629.603261089914,745.8309586598816 679.2531466850122,760.3520157521734 M681.8943137906541,761.1108819552915 C647.8028211951826,768.9826980614703 618.8230444765657,779.697057719757 549.4597718329265,799.5369902946164 M678.776305766884,760.1594631882307 C632.0465177428698,775.3931085075103 582.6150799953035,788.9376363122848 550.3591882826333,800.7432756604178 M550.0261334850237,798.7773010100437 C514.5656918917783,786.7464637404927 482.81775152002166,779.7150759350022 419.4332277102225,759.8116554738285 M550.2208399817623,800.3725472563247 C520.2566919371275,792.5520251820735 490.66070769213735,781.4674245463455 420.7758878756703,758.7592963138022 M420.32864546104946,759.4816608999126 C453.2861366969481,747.5385497510954 491.04889080270556,737.0032529616723 551.8257088262188,718.0525538690156 M419.6132897737596,760.3122471726778 C461.5577944240741,747.3344449575724 503.07602334376,733.02624229263 550.2825231763101,719.1056337501786" stroke="#1e293b" stroke-width="1.4" fill="none" stroke-linecap="round" stroke-linejoin="round"/><text x="550" y="751.375" font-size="15" fill="#1e293b" text-anchor="middle" dominant-baseline="middle">token +</text><text x="550" y="768.625" font-size="15" fill="#1e293b" text-anchor="middle" dominant-baseline="middle">server reachable?</text><path d="M100,735 L260,735 L260,785 L100,785 Z" fill="#e2e8f0" /><path d="M97.51911495335764,736.7739533572532 C143.18969377876851,736.1772341897965 186.51609081809443,734.8107463703518 262.5173895160261,733.9946229151419 M100.51230396656993,735.8603124363791 C156.27476928097215,737.8003201766974 215.02597492675363,736.7134305468932 259.453841917429,734.1952814605887 M259.1145084336911,737.195914100021 C262.1149010373323,749.7489352314948 259.2655570816948,769.5610083134369 259.0994446616667,786.6260098237902 M259.3411860869279,734.6309058507356 C260.15397753618316,754.8249572971927 260.27999644018837,773.5674338447178 260.1558034849146,784.4617025306953 M262.3598513159998,786.6250287799 C207.66325967816329,784.9689943376601 151.29004992416074,784.0631886878397 102.10031127207215,786.1452697638447 M260.8336254437218,785.2319873882459 C199.4422498426401,784.107424197747 138.22337803423775,784.1081785672792 101.00836581021082,786.2402796348354 M102.27601269707372,786.0303998030139 C101.9274828567332,765.2393667490799 101.35698466070241,744.914408089307 102.49381340599089,733.2342795316675 M99.80781216405178,783.9281015888588 C99.73957381572332,773.1372287504662 98.57667551160657,759.0659496116771 99.85771591991927,735.6678635291329" stroke="#1e293b" stroke-width="1.4" fill="none" stroke-linecap="round" stroke-linejoin="round"/><text x="180" y="760" font-size="16" fill="#475569" text-anchor="middle" dominant-baseline="middle">passthrough</text><path d="M370,860 L730,860 L730,916 L370,916 Z" fill="#dbeafe" /><path d="M370.37652132591745,859.964893657788 C466.1804910757495,857.8852385995989 562.9898564309563,858.5804524015065 730.7648333733007,860.698567670815 M370.09460793630024,860.4605867612521 C487.5017139448314,859.2527923590535 604.9685049700179,860.1185620378471 729.9860395221746,859.7297349575329 M728.6953605088015,859.9809052863745 C727.2667342759436,874.9298633089139 732.3177056906237,887.967856832947 729.2717212710701,917.1272355453303 M729.2131818019545,861.1029946061192 C730.8304692477642,878.6168195036404 730.8524458084032,898.3052366098707 730.1915127302356,914.935399167644 M731.0530688435084,916.4842317436567 C638.1256782597395,915.223445135107 543.3551018568637,913.9278835589527 368.9571870183662,915.5405346627791 M729.3815954226031,915.6255923308277 C604.2554572668403,916.5044795712304 480.5146251697399,915.6997978600214 369.68891641792993,916.4075119592056 M371.58503194785186,914.0350072487137 C369.05551437643794,901.6319679527937 368.1455322210673,888.8130696802139 368.4023994087531,858.4184632891508 M369.68077012319526,916.540373696105 C371.768444014864,895.90432925929 371.38103066104634,875.9140056075648 369.9700890209146,860.228918182736" stroke="#1e293b" stroke-width="1.4" fill="none" stroke-linecap="round" stroke-linejoin="round"/><text x="550" y="879.375" font-size="15" fill="#1e293b" text-anchor="middle" dominant-baseline="middle">POST /api/cli/proxy/prepare</text><text x="550" y="896.625" font-size="15" fill="#1e293b" text-anchor="middle" dominant-baseline="middle">800ms budget</text><path d="M550,950 L680,990 L550,1030 L420,990 Z" fill="#f1f5f9" /><path d="M551.3288130936153,951.6258898227035 C595.1579089999431,965.7366319803447 640.2771227525085,975.5971076364355 677.4528668505156,992.4360475717992 M550.2079332613,950.6910154793858 C589.1512807275938,962.5225383397997 627.4900201470869,973.0299693599231 679.4583581308449,989.898499860331 M681.5666554411685,988.9259390315995 C639.4534733681295,1005.221258688352 596.2003153782535,1015.2884330851282 551.0695643491549,1027.9440397099293 M679.2174323739451,990.2984991737035 C653.2203783358972,998.8368774897061 624.101606362448,1007.8109329185177 550.0832000764341,1029.8056502556774 M552.4966982668554,1028.8213597698332 C519.4503009227421,1022.0160405079907 490.0649499049853,1011.1855549626547 419.360473349427,990.6550091571976 M550.0802605454105,1029.0684882689825 C506.92228608695007,1017.8252521581418 462.7563790062289,1004.9869279673085 419.67059751671695,991.0948582771679 M421.5328366798912,989.6236981920586 C445.8162300741987,983.0059363359281 472.3204070761476,975.4168911778906 551.059317815573,951.5021484475628 M419.47468350297584,989.8290099398453 C453.33716995845305,977.1246352710767 487.0005806584386,968.9505134478961 549.2470514125409,950.8297047284599" stroke="#1e293b" stroke-width="1.4" fill="none" stroke-linecap="round" stroke-linejoin="round"/><text x="550" y="981.375" font-size="15" fill="#1e293b" text-anchor="middle" dominant-baseline="middle">server responded</text><text x="550" y="998.625" font-size="15" fill="#1e293b" text-anchor="middle" dominant-baseline="middle">in time?</text><path d="M100,965 L260,965 L260,1015 L100,1015 Z" fill="#e2e8f0" /><path d="M97.57635906874239,962.5921391208612 C154.97683571992783,962.5333714656425 208.75276349804508,964.4303660869818 260.0173298417815,965.7157798420285 M98.89622596476549,964.1735337402814 C152.07480909937033,965.9869340932163 205.1604724712811,966.6719621153709 261.07372179898636,966.1076504717612 M260.831953814902,963.552377436382 C258.31223763261335,977.8274607610509 260.44364519521673,988.6230317088545 257.6319923655615,1016.7616320527912 M258.7011449768775,965.9218913555604 C259.28969339726615,979.1992352035896 258.1586706559317,992.6894750402979 260.9896567204562,1016.2724985758701 M261.58427380234775,1016.6472973696298 C212.92885793672966,1015.2789280083708 168.79226330878052,1016.8089938586902 101.24218166273754,1013.889490216188 M261.2850834766967,1016.1628543729337 C215.3769752564641,1013.5887733425252 172.17308329348245,1012.691617050471 99.9951713307191,1014.9929597351711 M102.42094814891179,1015.4018705577117 C101.6845748161741,1004.866428907569 99.52785842968451,992.4671104221894 101.5160782637405,966.0667892011513 M100.64482821402747,1015.0463932834126 C100.3071267605873,998.7128668418995 99.77068154064249,982.9234135970989 100.58155431710483,963.8615023334368" stroke="#1e293b" stroke-width="1.4" fill="none" stroke-linecap="round" stroke-linejoin="round"/><text x="180" y="990" font-size="16" fill="#475569" text-anchor="middle" dominant-baseline="middle">passthrough</text><path d="M370,1090 L730,1090 L730,1146 L370,1146 Z" fill="#dbeafe" /><path d="M370.7671628063946,1090.450982716229 C496.83334752239574,1088.1437628482386 621.8329881307922,1088.458541311602 728.6233796303006,1088.6004994959437 M369.7795020573975,1090.6989639404203 C461.1503626843086,1091.7429310898794 554.0946476054893,1092.7452854816065 730.0986892263327,1089.774940836625 M728.5164816756836,1088.4030948503505 C729.8868854782338,1100.4490959709926 730.2535435389657,1112.761492889587 731.9911528125378,1147.3998045484905 M731.0831024083614,1089.0387962737636 C730.7655447704145,1102.6865384523765 730.6395228690631,1115.187673561554 729.9340653941526,1146.82992270759 M730.6747093725683,1146.3688697747916 C656.1647017508349,1144.585035825142 581.7622613910847,1144.9067924883047 370.8662082887415,1145.0922636309804 M729.6336218657794,1145.597651949072 C606.301530329107,1144.2103291220292 481.61899393282624,1144.2695464411916 370.1883035979565,1145.382282807345 M371.0192329457015,1147.7466305007026 C368.58949790057613,1132.3141729035767 370.05234165185203,1119.0075216735775 370.7701711154396,1091.0085772414318 M369.0997218204224,1146.1741359563712 C371.75989750624393,1126.1249408530055 371.58227883662465,1106.0749014998676 370.504723582978,1091.0603458487317" stroke="#1e293b" stroke-width="1.4" fill="none" stroke-linecap="round" stroke-linejoin="round"/><text x="550" y="1109.375" font-size="15" fill="#1e293b" text-anchor="middle" dominant-baseline="middle">trim messages</text><text x="550" y="1126.625" font-size="15" fill="#1e293b" text-anchor="middle" dominant-baseline="middle">+ append system_fragment</text><path d="M370,1200 L730,1200 L730,1250 L370,1250 Z" fill="#dbeafe" /><path d="M368.7244981695193,1198.6173746518464 C500.6368473939775,1201.8796157631625 631.2793809508223,1201.949523971759 730.2578078596435,1198.6522407862715 M369.62403130099926,1200.0833618537574 C504.82997731593093,1200.5092964696255 640.9183881192339,1199.7502464175839 730.0908427035168,1199.7503088045423 M728.4273922553106,1201.27705354244 C732.2972680450212,1217.9614323055143 729.1858231226347,1239.6807483608518 728.5368999207388,1247.5022956056957 M731.1425172142633,1199.0944556192087 C729.431165274623,1216.7058778617072 730.9420849315261,1234.0358757737429 730.4797497716505,1250.8625069648112 M728.566080284316,1249.7785342548054 C644.0754167324678,1250.828165195878 555.7763504261804,1251.7728132447714 368.54892201006646,1250.3168974263144 M729.4084479368661,1249.348066223802 C597.887439746733,1251.7964265256182 464.82136227535193,1251.8066419341392 369.573332448009,1250.6896870261287 M367.7477717349758,1250.8369876268628 C368.4514404459043,1229.617236311039 367.87846420089426,1208.9355804287588 371.43521806542424,1201.6765239149295 M370.2694680695128,1249.3096110007639 C370.9276119718716,1235.2103652162173 369.96431979445157,1219.2220277797448 370.6769156540748,1200.86857348652" stroke="#1e293b" stroke-width="1.4" fill="none" stroke-linecap="round" stroke-linejoin="round"/><text x="550" y="1225" font-size="16" fill="#1e293b" text-anchor="middle" dominant-baseline="middle">forward to api.anthropic.com</text><path d="M370,1300 L730,1300 L730,1356 L370,1356 Z" fill="#dbeafe" /><path d="M369.4218191471522,1301.2061463483344 C487.1754339082354,1298.8738048126822 601.3767700285966,1299.0833568131925 730.2306020620803,1299.7112425614032 M370.165411017903,1300.6328017360602 C486.75109965748135,1296.7193236287037 602.7526289237159,1296.8954019556288 729.2967723308856,1299.653003766282 M730.4397404792019,1298.5500935038162 C727.3847261649709,1312.684507473324 730.3107112784319,1329.8740831476975 728.8037570418936,1356.085420701978 M729.5790356627987,1300.4736910934564 C729.3085458237325,1320.808172226813 730.5572140664467,1344.2917174345664 728.833611127453,1356.8203776502999 M731.518748646152,1355.8006830355146 C618.1643556276458,1356.1211118105655 508.48481648657,1355.4824329587987 368.8160074290581,1357.6368942589106 M729.8295359862545,1356.1880246442634 C586.3310141695922,1353.2183802356303 442.5296160754894,1354.0044826398903 369.90789607715493,1356.3284636707979 M371.3804271058451,1357.8513455754728 C370.04125299268395,1335.650199017142 369.1389888941067,1312.0999978072723 371.292691728128,1301.224707988866 M370.36310523763876,1355.8105196312295 C369.43657939120124,1337.1554390629765 368.7910555126356,1320.5153865990621 368.72948049924923,1300.220564738974" stroke="#1e293b" stroke-width="1.4" fill="none" stroke-linecap="round" stroke-linejoin="round"/><text x="550" y="1319.375" font-size="15" fill="#1e293b" text-anchor="middle" dominant-baseline="middle">patch input_tokens</text><text x="550" y="1336.625" font-size="15" fill="#1e293b" text-anchor="middle" dominant-baseline="middle">in SSE message_start</text><path d="M370,1430 L730,1430 L730,1480 L370,1480 Z" fill="#dbeafe" /><path d="M368.70501766649016,1429.739232013997 C453.7222845562292,1427.7786048728487 537.8531053492883,1427.3468009103915 729.9979015039571,1428.7512347704476 M369.55038378122515,1430.7367828730823 C489.1495214156667,1432.8495600407398 609.6187031490809,1431.9931479699046 730.2342069957709,1430.620603041902 M730.449836346892,1428.7248963319482 C730.9650187191885,1450.6684389418274 729.3357887408548,1471.298308004308 729.6498412049532,1480.8990643549091 M730.3816030776155,1430.032929025317 C730.1275804963508,1444.793201660255 730.2159944482909,1460.9208732505813 729.8729670363422,1480.6979214218693 M731.2060745590205,1481.484052258716 C606.3884953633926,1480.68009821587 482.08344286900973,1479.709323178335 369.2636452073764,1478.9952655964134 M730.6133581748439,1479.8472057746997 C601.6212414951933,1480.6016644451286 472.76438635471476,1479.7534589614654 370.6072267884247,1480.779983160821 M371.0306740480662,1479.827676958946 C367.7535052194033,1461.0153389862 368.4455281419367,1440.1976669170188 368.13156514623057,1428.5790790464619 M369.769098668814,1479.7611408425514 C368.9223800684924,1467.4219822288742 370.8466468604658,1454.8372264859217 370.2498865897798,1428.945866879622" stroke="#1e293b" stroke-width="1.4" fill="none" stroke-linecap="round" stroke-linejoin="round"/><text x="550" y="1455" font-size="16" fill="#1e293b" text-anchor="middle" dominant-baseline="middle">stream response to client</text><path d="M100,1200 L260,1200 L260,1256 L100,1256 Z" fill="#e2e8f0" /><path d="M97.88159882929331,1197.7698370001365 C154.19030096026285,1200.70386153849 207.63897261051068,1196.5134312365865 260.9069377519021,1199.2699556619082 M100.74630551922137,1199.6919674945705 C140.40097154574752,1202.8521828797127 179.9068228080176,1200.456780042032 259.70420208848554,1200.6126984700102 M260.31260767693055,1201.4613693844765 C259.8696425838558,1213.478366175884 261.8278914534674,1227.7916919392649 262.1942719547283,1254.4523601252824 M259.91225527670457,1198.76144961194 C259.2479626460183,1219.4371826189313 260.5278999344335,1237.262944919309 261.2870083771045,1257.2928965607302 M259.502475465179,1255.8115593912014 C221.4067928929162,1258.3702544753212 186.10031330916084,1259.8713465082335 99.34424810010226,1253.5394393041743 M259.05680108984797,1254.9991999210808 C217.0205955511022,1257.1786033999822 171.865814978565,1258.5408300620293 99.79039933535235,1256.7015187102058 M98.20795054742035,1258.347242342787 C99.95357573922685,1244.8813541662323 100.46268284387618,1232.1388001309083 98.08993177973423,1197.5925900527986 M100.39074550838136,1257.1624848260124 C99.17216205946701,1245.0758198686492 101.20194439735918,1231.890903394672 99.7450708715593,1200.6402028896255" stroke="#1e293b" stroke-width="1.4" fill="none" stroke-linecap="round" stroke-linejoin="round"/><text x="180" y="1219.95" font-size="14" fill="#475569" text-anchor="middle" dominant-baseline="middle">forward to</text><text x="180" y="1236.05" font-size="14" fill="#475569" text-anchor="middle" dominant-baseline="middle">api.anthropic.com</text><path d="M551.9328937175626,80.26343680206523 C551.5994266945569,95.33722541888149 548.2198997741185,109.62118536115905 547.8651112695296,119.51889769986228 M549.6052773783289,80.95713816666186 C550.900667534856,89.58568501557748 549.5954317610029,100.8475914425338 548.9045885951342,119.78455638487561" stroke="#1e293b" stroke-width="1.3" fill="none" stroke-linecap="round" /><path d="M550,120 L545.6503446588877,110.99552897647322 M550,120 L554.3496553411123,110.99552897647322" stroke="#1e293b" stroke-width="1.3" fill="none" stroke-linecap="round"/><path d="M681.2605338308631,161.6869693016103 C718.4909543963339,158.85424587542713 755.1672944162854,161.60099546560423 819.1373952398002,159.03173312975906 M680.566991235154,160.0751380803731 C724.1030472916669,160.23916744133038 768.2047682083634,160.79918234830131 819.3844732083824,158.86626122982906" stroke="#1e293b" stroke-width="1.3" fill="none" stroke-linecap="round" /><path d="M820,160 L810.9955289764732,164.3496553411123 M820,160 L810.9955289764732,155.6503446588877" stroke="#1e293b" stroke-width="1.3" fill="none" stroke-linecap="round"/><text x="750" y="150" font-size="14" fill="#475569" text-anchor="middle" dominant-baseline="middle">no</text><path d="M551.3455839727255,201.4068172744897 C547.9673731776464,211.0919862451677 549.0189248283552,223.83800985798734 549.611073512479,241.22850282978393 M550.1119929203738,199.61524347474034 C550.8881848612257,210.62168583578793 549.6459252163367,222.91442685327598 550.0992446642324,239.59165913883436" stroke="#1e293b" stroke-width="1.3" fill="none" stroke-linecap="round" /><path d="M550,240 L545.6503446588877,230.99552897647322 M550,240 L554.3496553411123,230.99552897647322" stroke="#1e293b" stroke-width="1.3" fill="none" stroke-linecap="round"/><text x="520" y="220" font-size="14" fill="#475569" text-anchor="middle" dominant-baseline="middle">yes</text><path d="M682.3985634769413,282.1683837553511 C723.0748874511613,281.68884050484866 768.4708975778374,280.55741423072993 821.9305078541805,277.82482467961364 M680.1683293871218,280.9871857481893 C736.9275029649839,281.1613197130555 791.281137290005,281.6074008302319 820.6710841942012,279.1695686871222" stroke="#1e293b" stroke-width="1.3" fill="none" stroke-linecap="round" /><path d="M820,280 L810.9955289764732,284.3496553411123 M820,280 L810.9955289764732,275.6503446588877" stroke="#1e293b" stroke-width="1.3" fill="none" stroke-linecap="round"/><text x="750" y="270" font-size="14" fill="#475569" text-anchor="middle" dominant-baseline="middle">no</text><path d="M548.51263385165,320.642622933768 C548.0870142139225,328.37135339116566 548.6166929706937,341.7122296793844 548.4946760868112,359.2224219327793 M550.9421679047958,319.7696516786296 C550.6652396080549,327.8447600149122 550.6269124815401,336.5806551411461 549.4378933013636,359.8154386808392" stroke="#1e293b" stroke-width="1.3" fill="none" stroke-linecap="round" /><path d="M550,360 L545.6503446588877,350.9955289764732 M550,360 L554.3496553411123,350.9955289764732" stroke="#1e293b" stroke-width="1.3" fill="none" stroke-linecap="round"/><text x="520" y="340" font-size="14" fill="#475569" text-anchor="middle" dominant-baseline="middle">yes</text><path d="M418.5410238816956,398.7505313004955 C372.48580089866056,396.5628935337575 321.0231127335625,398.2033124330941 258.7904620730661,398.07286260057805 M420.61941203427136,399.30266133373294 C382.29168399764507,400.0120332149512 346.4442790710881,398.4563981605778 259.46626542943665,400.2519643587297" stroke="#1e293b" stroke-width="1.3" fill="none" stroke-linecap="round" /><path d="M260,400 L269.0044710235268,395.6503446588877 M260,400 L269.0044710235268,404.3496553411123" stroke="#1e293b" stroke-width="1.3" fill="none" stroke-linecap="round"/><text x="340" y="390" font-size="14" fill="#475569" text-anchor="middle" dominant-baseline="middle">no</text><path d="M548.2814045286634,441.90462046307306 C552.0801446848338,449.7556930529868 549.3908367430711,460.5747500657996 547.676528052315,481.6831019690875 M548.9236706523466,439.5055806139512 C550.3601658548156,455.2888009389151 549.7740099504044,469.10566917689374 549.5561993800694,480.4972626390119" stroke="#1e293b" stroke-width="1.3" fill="none" stroke-linecap="round" /><path d="M550,480 L545.6503446588877,470.9955289764732 M550,480 L554.3496553411123,470.9955289764732" stroke="#1e293b" stroke-width="1.3" fill="none" stroke-linecap="round"/><text x="520" y="460" font-size="14" fill="#475569" text-anchor="middle" dominant-baseline="middle">yes</text><path d="M421.0343943796902,519.268454770587 C369.2666438981666,521.4054826597365 314.4499335578669,521.4228349028143 260.7345092710461,518.9386277829944 M420.2459760244128,519.4333607357328 C370.59779192257315,522.1061673879791 320.16492020674,521.1835612284494 259.59201315169173,520.0802061313411" stroke="#1e293b" stroke-width="1.3" fill="none" stroke-linecap="round" /><path d="M260,520 L269.0044710235268,515.6503446588877 M260,520 L269.0044710235268,524.3496553411123" stroke="#1e293b" stroke-width="1.3" fill="none" stroke-linecap="round"/><text x="340" y="510" font-size="14" fill="#475569" text-anchor="middle" dominant-baseline="middle">yes</text><path d="M548.5177671036994,560.6478086965699 C547.7499403211962,571.1007365868808 551.4410422444444,584.920274484666 547.9604243245858,600.0312237542809 M550.1751318597193,561.0550695618247 C550.1935104036341,575.3059690306326 549.5123927007484,588.5283723865138 550.400451865347,599.775643982081" stroke="#1e293b" stroke-width="1.3" fill="none" stroke-linecap="round" /><path d="M550,600 L545.6503446588877,590.9955289764732 M550,600 L554.3496553411123,590.9955289764732" stroke="#1e293b" stroke-width="1.3" fill="none" stroke-linecap="round"/><text x="520" y="580" font-size="14" fill="#475569" text-anchor="middle" dominant-baseline="middle">no</text><path d="M417.64682400263024,637.667658285723 C359.93075429229515,639.1433614084935 298.7547427239056,642.100082151211 257.9636460421025,638.290753242261 M419.37559379347005,639.4740697039549 C373.64176074954736,638.7775650773656 325.9862127095081,637.4411432636853 259.3146571829284,640.5702858512005" stroke="#1e293b" stroke-width="1.3" fill="none" stroke-linecap="round" /><path d="M260,640 L269.0044710235268,635.6503446588877 M260,640 L269.0044710235268,644.3496553411123" stroke="#1e293b" stroke-width="1.3" fill="none" stroke-linecap="round"/><text x="340" y="630" font-size="14" fill="#475569" text-anchor="middle" dominant-baseline="middle">yes</text><path d="M550.429791753835,680.2176393418544 C550.6102985074772,698.1605954594808 548.7989461958041,712.3944537624177 548.9813274234892,719.8304835770399 M550.4304057918339,680.6614442825135 C551.1697463058163,689.6994641290523 550.3975715956756,700.7577326324723 549.4631392231125,720.0479474834634" stroke="#1e293b" stroke-width="1.3" fill="none" stroke-linecap="round" /><path d="M550,720 L545.6503446588877,710.9955289764732 M550,720 L554.3496553411123,710.9955289764732" stroke="#1e293b" stroke-width="1.3" fill="none" stroke-linecap="round"/><text x="520" y="700" font-size="14" fill="#475569" text-anchor="middle" dominant-baseline="middle">no</text><path d="M418.00110207711526,761.5861942960191 C368.3854253997731,761.4425734929259 318.1228667303979,761.6273266991864 260.93527281787095,759.6809389736275 M420.44686598758875,760.2831612561882 C362.8663572954183,758.5261621313648 307.19007900167213,760.007569771438 261.11358205753714,759.2796860926608" stroke="#1e293b" stroke-width="1.3" fill="none" stroke-linecap="round" /><path d="M260,760 L269.0044710235268,755.6503446588877 M260,760 L269.0044710235268,764.3496553411123" stroke="#1e293b" stroke-width="1.3" fill="none" stroke-linecap="round"/><text x="340" y="750" font-size="14" fill="#475569" text-anchor="middle" dominant-baseline="middle">no</text><path d="M549.2181621058126,799.693997594401 C551.2498113501711,813.7419070149158 548.0077422881923,825.8851669546997 551.5434005671382,858.0195648899571 M549.5285017404065,800.661914457027 C550.0967600942696,815.4081631114265 550.4858052187626,832.7384486171451 550.308677787155,860.3129411205787" stroke="#1e293b" stroke-width="1.3" fill="none" stroke-linecap="round" /><path d="M550,860 L545.6503446588877,850.9955289764732 M550,860 L554.3496553411123,850.9955289764732" stroke="#1e293b" stroke-width="1.3" fill="none" stroke-linecap="round"/><text x="520" y="830" font-size="14" fill="#475569" text-anchor="middle" dominant-baseline="middle">yes</text><path d="M552.1450751989402,915.8951436326211 C548.7793873542189,929.8228117030799 548.0715737297788,940.6789690718659 548.1222647381431,947.8144592964463 M549.0841774414866,916.0802455151668 C549.8492067126547,926.134618162051 550.2382423411595,937.7542250863282 550.9932831679602,949.2460177088308" stroke="#1e293b" stroke-width="1.3" fill="none" stroke-linecap="round" /><path d="M550,950 L545.6503446588877,940.9955289764732 M550,950 L554.3496553411123,940.9955289764732" stroke="#1e293b" stroke-width="1.3" fill="none" stroke-linecap="round"/><path d="M418.0630906485573,991.092821735812 C383.6859277394229,993.1277816413877 348.2966366836255,993.0181151400583 259.89282970119274,990.1438568670311 M421.07757988363454,989.5347630766638 C374.5163154053287,989.7892035233724 328.50230165875945,989.6015058142077 260.04520515052366,990.335508187375" stroke="#1e293b" stroke-width="1.3" fill="none" stroke-linecap="round" /><path d="M260,990 L269.0044710235268,985.6503446588877 M260,990 L269.0044710235268,994.3496553411123" stroke="#1e293b" stroke-width="1.3" fill="none" stroke-linecap="round"/><text x="340" y="980" font-size="14" fill="#475569" text-anchor="middle" dominant-baseline="middle">no</text><path d="M549.1002745687355,1028.560954837207 C551.0364546765643,1048.605022776932 550.4070403918986,1065.8082257500807 551.8484369796108,1088.7908724605766 M550.096315502933,1029.8945237372088 C550.6262660379234,1044.0440858774562 550.55125183311,1057.7368848385263 550.3284571037019,1089.5198393898588" stroke="#1e293b" stroke-width="1.3" fill="none" stroke-linecap="round" /><path d="M550,1090 L545.6503446588877,1080.9955289764732 M550,1090 L554.3496553411123,1080.9955289764732" stroke="#1e293b" stroke-width="1.3" fill="none" stroke-linecap="round"/><text x="520" y="1060" font-size="14" fill="#475569" text-anchor="middle" dominant-baseline="middle">yes</text><path d="M547.9480120042265,1146.4159430031975 C552.0434767469244,1157.2278720192858 549.3749241403812,1172.2837859468218 548.5517274133595,1202.2662389317957 M550.5716915171215,1145.0539715937693 C550.7733212478595,1158.9449478147835 549.9169249352334,1169.0789554463086 549.2254539521645,1199.8978387299078" stroke="#1e293b" stroke-width="1.3" fill="none" stroke-linecap="round" /><path d="M550,1200 L545.6503446588877,1190.9955289764732 M550,1200 L554.3496553411123,1190.9955289764732" stroke="#1e293b" stroke-width="1.3" fill="none" stroke-linecap="round"/><path d="M548.0189754859887,1252.1287415225336 C548.1080519488398,1261.9491222260122 551.4356874139052,1273.9661735891357 549.6559735787001,1300.7040532481635 M549.7139571751667,1251.0287340638322 C550.3746336393743,1265.290911685016 550.2873616436531,1281.2384700119076 550.6754597494744,1300.8731261219352" stroke="#1e293b" stroke-width="1.3" fill="none" stroke-linecap="round" /><path d="M550,1300 L545.6503446588877,1290.9955289764732 M550,1300 L554.3496553411123,1290.9955289764732" stroke="#1e293b" stroke-width="1.3" fill="none" stroke-linecap="round"/><path d="M552.3403343436964,1355.139209083447 C550.6374330215614,1384.2795392026014 547.5846384601456,1414.4593291250342 551.435320131093,1428.9202670471095 M549.1413299542588,1357.1653411647653 C549.7107793905352,1372.2992594110049 551.0362514426159,1392.1745888312173 549.0913498017285,1429.9775568813482" stroke="#1e293b" stroke-width="1.3" fill="none" stroke-linecap="round" /><path d="M550,1430 L545.6503446588877,1420.9955289764732 M550,1430 L554.3496553411123,1420.9955289764732" stroke="#1e293b" stroke-width="1.3" fill="none" stroke-linecap="round"/><path d="M180.82587138176206,424.8481136852725 C180.84285809557173,448.8548412624142 182.49977353931294,469.94376715209285 180.68658391495748,496.04846191741996 M180.6014056800137,425.0303309737532 C179.7654780596776,442.15763018536956 179.48150200320777,461.6293064460521 179.0853671907928,494.69848216653713" stroke="#1e293b" stroke-width="1.3" fill="none" stroke-linecap="round" /><path d="M180,495 L175.6503446588877,485.9955289764732 M180,495 L184.3496553411123,485.9955289764732" stroke="#1e293b" stroke-width="1.3" fill="none" stroke-linecap="round"/><path d="M178.55663561497508,547.2332507278859 C178.070468195603,567.680523576287 178.743175074115,593.3896662871318 180.81381649496902,616.4619103472817 M180.69015636040285,544.767036568946 C180.8126478145106,568.0248544359364 181.20154331592605,588.9922006963874 180.07755893013038,614.4246691525079" stroke="#1e293b" stroke-width="1.3" fill="none" stroke-linecap="round" /><path d="M180,615 L175.6503446588877,605.9955289764732 M180,615 L184.3496553411123,605.9955289764732" stroke="#1e293b" stroke-width="1.3" fill="none" stroke-linecap="round"/><path d="M179.6422218699761,667.2507227711224 C180.93696027966683,686.111895077916 180.48668455772113,711.2725495071699 178.60622603095283,736.6496573276088 M180.49963983249043,664.9369468469376 C181.16900239744095,681.8424836868475 181.02970033141577,700.2422206213046 179.75451165044024,736.0868827093982" stroke="#1e293b" stroke-width="1.3" fill="none" stroke-linecap="round" /><path d="M180,735 L175.6503446588877,725.9955289764732 M180,735 L184.3496553411123,725.9955289764732" stroke="#1e293b" stroke-width="1.3" fill="none" stroke-linecap="round"/><path d="M181.41631087422633,783.9572883542702 C180.06759646063387,855.5860580564498 183.3509683375524,922.0857032712333 179.5460625149482,966.0491811491925 M180.12924512056662,784.5824200797907 C179.54541744679884,828.2408345772295 179.3494528058696,871.2196640018755 179.76235478745707,965.9855453179314" stroke="#1e293b" stroke-width="1.3" fill="none" stroke-linecap="round" /><path d="M180,965 L175.6503446588877,955.9955289764732 M180,965 L184.3496553411123,955.9955289764732" stroke="#1e293b" stroke-width="1.3" fill="none" stroke-linecap="round"/><path d="M178.1691863798648,1015.7525697893501 C183.4687372453004,1073.642038676517 182.11558162109105,1130.3807138503996 178.43099015324825,1197.9072546960938 M180.02460103174556,1015.0052437413239 C180.59668346019356,1064.8713373824946 179.82852118496427,1115.8999760837812 181.00231016424635,1198.9669007108507" stroke="#1e293b" stroke-width="1.3" fill="none" stroke-linecap="round" /><path d="M180,1200 L175.6503446588877,1190.9955289764732 M180,1200 L184.3496553411123,1190.9955289764732" stroke="#1e293b" stroke-width="1.3" fill="none" stroke-linecap="round"/><path d="M261.44632591335363,1226.41391454987 C290.3109736095939,1227.9197551712093 321.76818627652716,1229.3978308451894 341.7424500237454,1230.2598347705239 M261.0186132281061,1228.224400111577 C282.070559243776,1227.3845494414861 303.82300335538037,1228.5666671791473 340.0807444715044,1227.9806221420129" stroke="#1e293b" stroke-width="1.3" fill="none" stroke-linecap="round" /><path d="M340.4133197511427,1229.2609325419644 C345.58004908232624,1277.1088769533999 351.6653633732049,1323.267099623876 370.04349224536617,1456.4002150246954 M338.98598074590757,1228.7282848889163 C347.9717285870867,1283.5785198508945 353.94506896777835,1340.2780431103731 370.8648907662023,1455.653318862244" stroke="#1e293b" stroke-width="1.3" fill="none" stroke-linecap="round" /><path d="M370,1455 L364.50807950006777,1446.643038278033 M370,1455 L373.13240047183575,1445.5032601760372" stroke="#1e293b" stroke-width="1.3" fill="none" stroke-linecap="round"/></svg>